<svg width="560" height="392" viewBox="0 0 560 392" fill="none" xmlns="http://www.w3.org/2000/svg">
<path d="M30.52 162.61C37.496 162.61 43.4183 164.1 48.287 167.079C53.2283 169.986 57.007 174.237 59.623 179.832C62.239 185.427 63.547 192.331 63.547 200.542C63.547 209.262 61.9483 216.638 58.751 222.669C55.6263 228.7 51.2663 233.278 45.671 236.403C40.0757 239.528 33.572 241.09 26.16 241.09C22.3087 241.09 18.639 240.69 15.151 239.891C11.663 239.092 8.64733 237.856 6.104 236.185L11.336 225.503C13.4433 226.884 15.7323 227.865 18.203 228.446C20.6737 228.955 23.217 229.209 25.833 229.209C33.027 229.209 38.7313 226.993 42.946 222.56C47.1607 218.127 49.268 211.587 49.268 202.94C49.268 201.559 49.2317 199.961 49.159 198.144C49.0863 196.255 48.832 194.365 48.396 192.476L52.756 197.272C51.5207 200.251 49.7403 202.758 47.415 204.793C45.0897 206.755 42.3647 208.245 39.24 209.262C36.1153 210.279 32.6637 210.788 28.885 210.788C23.9437 210.788 19.4747 209.843 15.478 207.954C11.554 205.992 8.42933 203.267 6.104 199.779C3.77867 196.218 2.616 192.076 2.616 187.353C2.616 182.266 3.85133 177.906 6.322 174.273C8.79267 170.567 12.1353 167.697 16.35 165.662C20.6373 163.627 25.3607 162.61 30.52 162.61ZM31.283 173.728C28.3763 173.728 25.7967 174.273 23.544 175.363C21.2913 176.38 19.511 177.87 18.203 179.832C16.9677 181.721 16.35 184.01 16.35 186.699C16.35 190.696 17.7307 193.857 20.492 196.182C23.2533 198.507 26.9593 199.67 31.61 199.67C34.662 199.67 37.3507 199.125 39.676 198.035C42.0013 196.872 43.818 195.31 45.126 193.348C46.434 191.313 47.088 189.061 47.088 186.59C47.088 184.192 46.4703 182.048 45.235 180.159C43.9997 178.197 42.2193 176.635 39.894 175.472C37.5687 174.309 34.6983 173.728 31.283 173.728ZM99.2619 241.09C93.8846 241.09 88.6162 240.327 83.4569 238.801C78.3702 237.202 74.0829 235.022 70.5949 232.261L76.5899 221.252C79.3512 223.505 82.6939 225.321 86.6179 226.702C90.6146 228.083 94.7566 228.773 99.0439 228.773C104.058 228.773 107.982 227.719 110.816 225.612C113.723 223.505 115.176 220.671 115.176 217.11C115.176 214.712 114.558 212.605 113.323 210.788C112.16 208.971 110.053 207.591 107.001 206.646C104.022 205.701 99.9159 205.229 94.6839 205.229H76.2629L80.1869 163.7H124.986V175.581H85.4189L92.8309 168.823L89.8879 199.888L82.4759 193.239H97.8449C105.402 193.239 111.47 194.256 116.048 196.291C120.699 198.253 124.078 201.014 126.185 204.575C128.365 208.063 129.455 212.06 129.455 216.565C129.455 220.998 128.365 225.067 126.185 228.773C124.005 232.479 120.662 235.458 116.157 237.711C111.724 239.964 106.093 241.09 99.2619 241.09ZM148.086 240L200.188 163.7H210.87L158.768 240H148.086ZM154.408 204.793C150.847 204.793 147.686 203.921 144.925 202.177C142.163 200.433 140.02 197.999 138.494 194.874C136.968 191.749 136.205 188.08 136.205 183.865C136.205 179.65 136.968 175.981 138.494 172.856C140.02 169.731 142.163 167.297 144.925 165.553C147.686 163.809 150.847 162.937 154.408 162.937C158.114 162.937 161.311 163.809 164 165.553C166.761 167.297 168.905 169.731 170.431 172.856C171.957 175.981 172.72 179.65 172.72 183.865C172.72 188.08 171.957 191.749 170.431 194.874C168.905 197.999 166.761 200.433 164 202.177C161.311 203.921 158.114 204.793 154.408 204.793ZM154.517 197.163C157.423 197.163 159.676 196.037 161.275 193.784C162.946 191.459 163.782 188.152 163.782 183.865C163.782 179.578 162.946 176.308 161.275 174.055C159.676 171.73 157.423 170.567 154.517 170.567C151.61 170.567 149.285 171.73 147.541 174.055C145.869 176.38 145.034 179.65 145.034 183.865C145.034 188.08 145.869 191.35 147.541 193.675C149.285 196 151.61 197.163 154.517 197.163ZM204.439 240.763C200.878 240.763 197.717 239.891 194.956 238.147C192.194 236.403 190.051 233.969 188.525 230.844C186.999 227.719 186.236 224.05 186.236 219.835C186.236 215.62 186.999 211.951 188.525 208.826C190.051 205.701 192.194 203.267 194.956 201.523C197.717 199.779 200.878 198.907 204.439 198.907C208.145 198.907 211.342 199.779 214.031 201.523C216.792 203.267 218.936 205.701 220.462 208.826C221.988 211.951 222.751 215.62 222.751 219.835C222.751 224.05 221.988 227.719 220.462 230.844C218.936 233.969 216.792 236.403 214.031 238.147C211.342 239.891 208.145 240.763 204.439 240.763ZM204.439 233.133C207.345 233.133 209.634 231.97 211.306 229.645C212.977 227.32 213.813 224.05 213.813 219.835C213.813 215.62 212.977 212.35 211.306 210.025C209.634 207.7 207.345 206.537 204.439 206.537C201.605 206.537 199.316 207.7 197.572 210.025C195.9 212.278 195.065 215.548 195.065 219.835C195.065 224.122 195.9 227.429 197.572 229.754C199.316 232.007 201.605 233.133 204.439 233.133ZM7.872 271.192C6.496 271.192 5.272 270.904 4.2 270.328C3.144 269.752 2.304 268.968 1.68 267.976C1.072 266.968 0.768 265.824 0.768 264.544C0.768 263.248 1.072 262.104 1.68 261.112C2.304 260.104 3.144 259.32 4.2 258.76C5.272 258.184 6.496 257.896 7.872 257.896C9.232 257.896 10.448 258.184 11.52 258.76C12.592 259.32 13.432 260.096 14.04 261.088C14.648 262.08 14.952 263.232 14.952 264.544C14.952 265.824 14.648 266.968 14.04 267.976C13.432 268.968 12.592 269.752 11.52 270.328C10.448 270.904 9.232 271.192 7.872 271.192ZM7.872 268.12C8.496 268.12 9.056 267.976 9.552 267.688C10.048 267.4 10.44 266.992 10.728 266.464C11.016 265.92 11.16 265.28 11.16 264.544C11.16 263.792 11.016 263.152 10.728 262.624C10.44 262.096 10.048 261.688 9.552 261.4C9.056 261.112 8.496 260.968 7.872 260.968C7.248 260.968 6.688 261.112 6.192 261.4C5.696 261.688 5.296 262.096 4.992 262.624C4.704 263.152 4.56 263.792 4.56 264.544C4.56 265.28 4.704 265.92 4.992 266.464C5.296 266.992 5.696 267.4 6.192 267.688C6.688 267.976 7.248 268.12 7.872 268.12ZM18.7506 271V257.8C18.7506 256.344 19.1826 255.184 20.0466 254.32C20.9106 253.44 22.1426 253 23.7426 253C24.2866 253 24.8066 253.056 25.3026 253.168C25.8146 253.28 26.2466 253.456 26.5986 253.696L25.6146 256.408C25.4066 256.264 25.1746 256.152 24.9186 256.072C24.6626 255.992 24.3906 255.952 24.1026 255.952C23.5586 255.952 23.1346 256.112 22.8306 256.432C22.5426 256.736 22.3986 257.2 22.3986 257.824V259.024L22.4946 260.632V271H18.7506ZM16.7586 261.256V258.376H25.7106V261.256H16.7586ZM41.3327 271.192C39.8127 271.192 38.6287 270.808 37.7807 270.04C36.9327 269.256 36.5087 268.096 36.5087 266.56V255.232H40.2527V266.512C40.2527 267.056 40.3967 267.48 40.6847 267.784C40.9727 268.072 41.3647 268.216 41.8607 268.216C42.4527 268.216 42.9567 268.056 43.3727 267.736L44.3807 270.376C43.9967 270.648 43.5327 270.856 42.9887 271C42.4607 271.128 41.9087 271.192 41.3327 271.192ZM34.5167 261.256V258.376H43.4687V261.256H34.5167ZM53.3319 271.192C51.8599 271.192 50.5639 270.904 49.4439 270.328C48.3399 269.752 47.4839 268.968 46.8759 267.976C46.2679 266.968 45.9639 265.824 45.9639 264.544C45.9639 263.248 46.2599 262.104 46.8519 261.112C47.4599 260.104 48.2839 259.32 49.3239 258.76C50.3639 258.184 51.5399 257.896 52.8519 257.896C54.1159 257.896 55.2519 258.168 56.2599 258.712C57.2839 259.24 58.0919 260.008 58.6839 261.016C59.2759 262.008 59.5719 263.2 59.5719 264.592C59.5719 264.736 59.5639 264.904 59.5479 265.096C59.5319 265.272 59.5159 265.44 59.4999 265.6H49.0119V263.416H57.5319L56.0919 264.064C56.0919 263.392 55.9559 262.808 55.6839 262.312C55.4119 261.816 55.0359 261.432 54.5559 261.16C54.0759 260.872 53.5159 260.728 52.8759 260.728C52.2359 260.728 51.6679 260.872 51.1719 261.16C50.6919 261.432 50.3159 261.824 50.0439 262.336C49.7719 262.832 49.6359 263.424 49.6359 264.112V264.688C49.6359 265.392 49.7879 266.016 50.0919 266.56C50.4119 267.088 50.8519 267.496 51.4119 267.784C51.9879 268.056 52.6599 268.192 53.4279 268.192C54.1159 268.192 54.7159 268.088 55.2279 267.88C55.7559 267.672 56.2359 267.36 56.6679 266.944L58.6599 269.104C58.0679 269.776 57.3239 270.296 56.4279 270.664C55.5319 271.016 54.4999 271.192 53.3319 271.192ZM69.3126 271.192C67.8406 271.192 66.5446 270.904 65.4246 270.328C64.3206 269.752 63.4646 268.968 62.8566 267.976C62.2486 266.968 61.9446 265.824 61.9446 264.544C61.9446 263.248 62.2406 262.104 62.8326 261.112C63.4406 260.104 64.2646 259.32 65.3046 258.76C66.3446 258.184 67.5206 257.896 68.8326 257.896C70.0966 257.896 71.2326 258.168 72.2406 258.712C73.2646 259.24 74.0726 260.008 74.6646 261.016C75.2566 262.008 75.5526 263.2 75.5526 264.592C75.5526 264.736 75.5446 264.904 75.5286 265.096C75.5126 265.272 75.4966 265.44 75.4806 265.6H64.9926V263.416H73.5126L72.0726 264.064C72.0726 263.392 71.9366 262.808 71.6646 262.312C71.3926 261.816 71.0166 261.432 70.5366 261.16C70.0566 260.872 69.4966 260.728 68.8566 260.728C68.2166 260.728 67.6486 260.872 67.1526 261.16C66.6726 261.432 66.2966 261.824 66.0246 262.336C65.7526 262.832 65.6166 263.424 65.6166 264.112V264.688C65.6166 265.392 65.7686 266.016 66.0726 266.56C66.3926 267.088 66.8326 267.496 67.3926 267.784C67.9686 268.056 68.6406 268.192 69.4086 268.192C70.0966 268.192 70.6966 268.088 71.2086 267.88C71.7366 267.672 72.2166 267.36 72.6486 266.944L74.6406 269.104C74.0486 269.776 73.3046 270.296 72.4086 270.664C71.5126 271.016 70.4806 271.192 69.3126 271.192ZM86.7332 257.896C87.7572 257.896 88.6692 258.104 89.4692 258.52C90.2852 258.92 90.9252 259.544 91.3892 260.392C91.8532 261.224 92.0852 262.296 92.0852 263.608V271H88.3412V264.184C88.3412 263.144 88.1092 262.376 87.6452 261.88C87.1972 261.384 86.5572 261.136 85.7252 261.136C85.1332 261.136 84.5972 261.264 84.1172 261.52C83.6532 261.76 83.2852 262.136 83.0132 262.648C82.7572 263.16 82.6292 263.816 82.6292 264.616V271H78.8852V258.088H82.4612V261.664L81.7892 260.584C82.2532 259.72 82.9172 259.056 83.7812 258.592C84.6452 258.128 85.6292 257.896 86.7332 257.896ZM100.663 271.192C99.5589 271.192 98.4949 271.064 97.4709 270.808C96.4629 270.536 95.6629 270.2 95.0709 269.8L96.3189 267.112C96.9109 267.48 97.6069 267.784 98.4069 268.024C99.2229 268.248 100.023 268.36 100.807 268.36C101.671 268.36 102.279 268.256 102.631 268.048C102.999 267.84 103.183 267.552 103.183 267.184C103.183 266.88 103.039 266.656 102.751 266.512C102.479 266.352 102.111 266.232 101.647 266.152C101.183 266.072 100.671 265.992 100.111 265.912C99.5669 265.832 99.0149 265.728 98.4549 265.6C97.8949 265.456 97.3829 265.248 96.9189 264.976C96.4549 264.704 96.0789 264.336 95.7909 263.872C95.5189 263.408 95.3829 262.808 95.3829 262.072C95.3829 261.256 95.6149 260.536 96.0789 259.912C96.5589 259.288 97.2469 258.8 98.1429 258.448C99.0389 258.08 100.111 257.896 101.359 257.896C102.239 257.896 103.135 257.992 104.047 258.184C104.959 258.376 105.719 258.656 106.327 259.024L105.079 261.688C104.455 261.32 103.823 261.072 103.183 260.944C102.559 260.8 101.951 260.728 101.359 260.728C100.527 260.728 99.9189 260.84 99.5349 261.064C99.1509 261.288 98.9589 261.576 98.9589 261.928C98.9589 262.248 99.0949 262.488 99.3669 262.648C99.6549 262.808 100.031 262.936 100.495 263.032C100.959 263.128 101.463 263.216 102.007 263.296C102.567 263.36 103.127 263.464 103.687 263.608C104.247 263.752 104.751 263.96 105.199 264.232C105.663 264.488 106.039 264.848 106.327 265.312C106.615 265.76 106.759 266.352 106.759 267.088C106.759 267.888 106.519 268.6 106.039 269.224C105.559 269.832 104.863 270.312 103.951 270.664C103.055 271.016 101.959 271.192 100.663 271.192ZM125.466 271V268.48L125.226 267.928V263.416C125.226 262.616 124.978 261.992 124.482 261.544C124.002 261.096 123.258 260.872 122.25 260.872C121.562 260.872 120.882 260.984 120.21 261.208C119.554 261.416 118.994 261.704 118.53 262.072L117.186 259.456C117.89 258.96 118.738 258.576 119.73 258.304C120.722 258.032 121.73 257.896 122.754 257.896C124.722 257.896 126.25 258.36 127.338 259.288C128.426 260.216 128.97 261.664 128.97 263.632V271H125.466ZM121.53 271.192C120.522 271.192 119.658 271.024 118.938 270.688C118.218 270.336 117.666 269.864 117.282 269.272C116.898 268.68 116.706 268.016 116.706 267.28C116.706 266.512 116.89 265.84 117.258 265.264C117.642 264.688 118.242 264.24 119.058 263.92C119.874 263.584 120.938 263.416 122.25 263.416H125.682V265.6H122.658C121.778 265.6 121.17 265.744 120.834 266.032C120.514 266.32 120.354 266.68 120.354 267.112C120.354 267.592 120.538 267.976 120.906 268.264C121.29 268.536 121.81 268.672 122.466 268.672C123.09 268.672 123.65 268.528 124.146 268.24C124.642 267.936 125.002 267.496 125.226 266.92L125.802 268.648C125.53 269.48 125.034 270.112 124.314 270.544C123.594 270.976 122.666 271.192 121.53 271.192ZM139.364 275.848C138.148 275.848 136.972 275.696 135.836 275.392C134.716 275.104 133.78 274.664 133.028 274.072L134.516 271.384C135.06 271.832 135.748 272.184 136.58 272.44C137.428 272.712 138.26 272.848 139.076 272.848C140.404 272.848 141.364 272.552 141.956 271.96C142.564 271.368 142.868 270.488 142.868 269.32V267.376L143.108 264.136L143.06 260.872V258.088H146.612V268.84C146.612 271.24 145.988 273.008 144.74 274.144C143.492 275.28 141.7 275.848 139.364 275.848ZM138.788 270.376C137.588 270.376 136.5 270.12 135.524 269.608C134.564 269.08 133.788 268.352 133.196 267.424C132.62 266.48 132.332 265.384 132.332 264.136C132.332 262.872 132.62 261.776 133.196 260.848C133.788 259.904 134.564 259.176 135.524 258.664C136.5 258.152 137.588 257.896 138.788 257.896C139.876 257.896 140.836 258.12 141.668 258.568C142.5 259 143.148 259.68 143.612 260.608C144.076 261.52 144.308 262.696 144.308 264.136C144.308 265.56 144.076 266.736 143.612 267.664C143.148 268.576 142.5 269.256 141.668 269.704C140.836 270.152 139.876 270.376 138.788 270.376ZM139.532 267.304C140.188 267.304 140.772 267.176 141.284 266.92C141.796 266.648 142.196 266.272 142.484 265.792C142.772 265.312 142.916 264.76 142.916 264.136C142.916 263.496 142.772 262.944 142.484 262.48C142.196 262 141.796 261.632 141.284 261.376C140.772 261.104 140.188 260.968 139.532 260.968C138.876 260.968 138.292 261.104 137.78 261.376C137.268 261.632 136.86 262 136.556 262.48C136.268 262.944 136.124 263.496 136.124 264.136C136.124 264.76 136.268 265.312 136.556 265.792C136.86 266.272 137.268 266.648 137.78 266.92C138.292 267.176 138.876 267.304 139.532 267.304ZM157.345 271.192C155.873 271.192 154.577 270.904 153.457 270.328C152.353 269.752 151.497 268.968 150.889 267.976C150.281 266.968 149.977 265.824 149.977 264.544C149.977 263.248 150.273 262.104 150.865 261.112C151.473 260.104 152.297 259.32 153.337 258.76C154.377 258.184 155.553 257.896 156.865 257.896C158.129 257.896 159.265 258.168 160.273 258.712C161.297 259.24 162.105 260.008 162.697 261.016C163.289 262.008 163.585 263.2 163.585 264.592C163.585 264.736 163.577 264.904 163.561 265.096C163.545 265.272 163.529 265.44 163.513 265.6H153.025V263.416H161.545L160.105 264.064C160.105 263.392 159.969 262.808 159.697 262.312C159.425 261.816 159.049 261.432 158.569 261.16C158.089 260.872 157.529 260.728 156.889 260.728C156.249 260.728 155.681 260.872 155.185 261.16C154.705 261.432 154.329 261.824 154.057 262.336C153.785 262.832 153.649 263.424 153.649 264.112V264.688C153.649 265.392 153.801 266.016 154.105 266.56C154.425 267.088 154.865 267.496 155.425 267.784C156.001 268.056 156.673 268.192 157.441 268.192C158.129 268.192 158.729 268.088 159.241 267.88C159.769 267.672 160.249 267.36 160.681 266.944L162.673 269.104C162.081 269.776 161.337 270.296 160.441 270.664C159.545 271.016 158.513 271.192 157.345 271.192ZM171.261 271.192C170.157 271.192 169.093 271.064 168.069 270.808C167.061 270.536 166.261 270.2 165.669 269.8L166.917 267.112C167.509 267.48 168.205 267.784 169.005 268.024C169.821 268.248 170.621 268.36 171.405 268.36C172.269 268.36 172.877 268.256 173.229 268.048C173.597 267.84 173.781 267.552 173.781 267.184C173.781 266.88 173.637 266.656 173.349 266.512C173.077 266.352 172.709 266.232 172.245 266.152C171.781 266.072 171.269 265.992 170.709 265.912C170.165 265.832 169.613 265.728 169.053 265.6C168.493 265.456 167.981 265.248 167.517 264.976C167.053 264.704 166.677 264.336 166.389 263.872C166.117 263.408 165.981 262.808 165.981 262.072C165.981 261.256 166.213 260.536 166.677 259.912C167.157 259.288 167.845 258.8 168.741 258.448C169.637 258.08 170.709 257.896 171.957 257.896C172.837 257.896 173.733 257.992 174.645 258.184C175.557 258.376 176.317 258.656 176.925 259.024L175.677 261.688C175.053 261.32 174.421 261.072 173.781 260.944C173.157 260.8 172.549 260.728 171.957 260.728C171.125 260.728 170.517 260.84 170.133 261.064C169.749 261.288 169.557 261.576 169.557 261.928C169.557 262.248 169.693 262.488 169.965 262.648C170.253 262.808 170.629 262.936 171.093 263.032C171.557 263.128 172.061 263.216 172.605 263.296C173.165 263.36 173.725 263.464 174.285 263.608C174.845 263.752 175.349 263.96 175.797 264.232C176.261 264.488 176.637 264.848 176.925 265.312C177.213 265.76 177.357 266.352 177.357 267.088C177.357 267.888 177.117 268.6 176.637 269.224C176.157 269.832 175.461 270.312 174.549 270.664C173.653 271.016 172.557 271.192 171.261 271.192ZM189.944 271V255.64L191.624 257.32H186.584V254.2H193.832V271H189.944ZM203.039 271.288C201.871 271.288 200.711 271.136 199.559 270.832C198.407 270.512 197.431 270.064 196.631 269.488L198.143 266.512C198.783 266.976 199.527 267.344 200.375 267.616C201.223 267.888 202.079 268.024 202.943 268.024C203.919 268.024 204.687 267.832 205.247 267.448C205.807 267.064 206.087 266.536 206.087 265.864C206.087 265.224 205.839 264.72 205.343 264.352C204.847 263.984 204.047 263.8 202.943 263.8H201.167V261.232L205.847 255.928L206.279 257.32H197.471V254.2H209.231V256.72L204.575 262.024L202.607 260.896H203.735C205.799 260.896 207.359 261.36 208.415 262.288C209.471 263.216 209.999 264.408 209.999 265.864C209.999 266.808 209.751 267.696 209.255 268.528C208.759 269.344 207.999 270.008 206.975 270.52C205.951 271.032 204.639 271.288 203.039 271.288ZM226.343 271.192C224.823 271.192 223.639 270.808 222.791 270.04C221.943 269.256 221.519 268.096 221.519 266.56V255.232H225.263V266.512C225.263 267.056 225.407 267.48 225.695 267.784C225.983 268.072 226.375 268.216 226.871 268.216C227.463 268.216 227.967 268.056 228.383 267.736L229.391 270.376C229.007 270.648 228.543 270.856 227.999 271C227.471 271.128 226.919 271.192 226.343 271.192ZM219.527 261.256V258.376H228.479V261.256H219.527ZM238.078 271.192C236.702 271.192 235.478 270.904 234.406 270.328C233.35 269.752 232.51 268.968 231.886 267.976C231.278 266.968 230.974 265.824 230.974 264.544C230.974 263.248 231.278 262.104 231.886 261.112C232.51 260.104 233.35 259.32 234.406 258.76C235.478 258.184 236.702 257.896 238.078 257.896C239.438 257.896 240.654 258.184 241.726 258.76C242.798 259.32 243.638 260.096 244.246 261.088C244.854 262.08 245.158 263.232 245.158 264.544C245.158 265.824 244.854 266.968 244.246 267.976C243.638 268.968 242.798 269.752 241.726 270.328C240.654 270.904 239.438 271.192 238.078 271.192ZM238.078 268.12C238.702 268.12 239.262 267.976 239.758 267.688C240.254 267.4 240.646 266.992 240.934 266.464C241.222 265.92 241.366 265.28 241.366 264.544C241.366 263.792 241.222 263.152 240.934 262.624C240.646 262.096 240.254 261.688 239.758 261.4C239.262 261.112 238.702 260.968 238.078 260.968C237.454 260.968 236.894 261.112 236.398 261.4C235.902 261.688 235.502 262.096 235.198 262.624C234.91 263.152 234.766 263.792 234.766 264.544C234.766 265.28 234.91 265.92 235.198 266.464C235.502 266.992 235.902 267.4 236.398 267.688C236.894 267.976 237.454 268.12 238.078 268.12ZM257.937 271V255.64L259.617 257.32H254.577V254.2H261.825V271H257.937ZM268.272 271L275.04 255.688L276.048 257.368H267L268.728 255.544V260.104H265.272V254.2H278.736V256.72L272.496 271H268.272ZM295.184 271.192C294.112 271.192 293.152 270.984 292.304 270.568C291.472 270.152 290.824 269.52 290.36 268.672C289.896 267.808 289.664 266.712 289.664 265.384V258.088H293.408V264.832C293.408 265.904 293.632 266.696 294.08 267.208C294.544 267.704 295.192 267.952 296.024 267.952C296.6 267.952 297.112 267.832 297.56 267.592C298.008 267.336 298.36 266.952 298.616 266.44C298.872 265.912 299 265.256 299 264.472V258.088H302.744V271H299.192V267.448L299.84 268.48C299.408 269.376 298.768 270.056 297.92 270.52C297.088 270.968 296.176 271.192 295.184 271.192ZM311.396 271.192C310.292 271.192 309.228 271.064 308.204 270.808C307.196 270.536 306.396 270.2 305.804 269.8L307.052 267.112C307.644 267.48 308.34 267.784 309.14 268.024C309.956 268.248 310.756 268.36 311.54 268.36C312.404 268.36 313.012 268.256 313.364 268.048C313.732 267.84 313.916 267.552 313.916 267.184C313.916 266.88 313.772 266.656 313.484 266.512C313.212 266.352 312.844 266.232 312.38 266.152C311.916 266.072 311.404 265.992 310.844 265.912C310.3 265.832 309.748 265.728 309.188 265.6C308.628 265.456 308.116 265.248 307.652 264.976C307.188 264.704 306.812 264.336 306.524 263.872C306.252 263.408 306.116 262.808 306.116 262.072C306.116 261.256 306.348 260.536 306.812 259.912C307.292 259.288 307.98 258.8 308.876 258.448C309.772 258.08 310.844 257.896 312.092 257.896C312.972 257.896 313.868 257.992 314.78 258.184C315.692 258.376 316.452 258.656 317.06 259.024L315.812 261.688C315.188 261.32 314.556 261.072 313.916 260.944C313.292 260.8 312.684 260.728 312.092 260.728C311.26 260.728 310.652 260.84 310.268 261.064C309.884 261.288 309.692 261.576 309.692 261.928C309.692 262.248 309.828 262.488 310.1 262.648C310.388 262.808 310.764 262.936 311.228 263.032C311.692 263.128 312.196 263.216 312.74 263.296C313.3 263.36 313.86 263.464 314.42 263.608C314.98 263.752 315.484 263.96 315.932 264.232C316.396 264.488 316.772 264.848 317.06 265.312C317.348 265.76 317.492 266.352 317.492 267.088C317.492 267.888 317.252 268.6 316.772 269.224C316.292 269.832 315.596 270.312 314.684 270.664C313.788 271.016 312.692 271.192 311.396 271.192ZM327.05 271.192C325.578 271.192 324.282 270.904 323.162 270.328C322.058 269.752 321.202 268.968 320.594 267.976C319.986 266.968 319.682 265.824 319.682 264.544C319.682 263.248 319.978 262.104 320.57 261.112C321.178 260.104 322.002 259.32 323.042 258.76C324.082 258.184 325.258 257.896 326.57 257.896C327.834 257.896 328.97 258.168 329.978 258.712C331.002 259.24 331.81 260.008 332.402 261.016C332.994 262.008 333.29 263.2 333.29 264.592C333.29 264.736 333.282 264.904 333.266 265.096C333.25 265.272 333.234 265.44 333.218 265.6H322.73V263.416H331.25L329.81 264.064C329.81 263.392 329.674 262.808 329.402 262.312C329.13 261.816 328.754 261.432 328.274 261.16C327.794 260.872 327.234 260.728 326.594 260.728C325.954 260.728 325.386 260.872 324.89 261.16C324.41 261.432 324.034 261.824 323.762 262.336C323.49 262.832 323.354 263.424 323.354 264.112V264.688C323.354 265.392 323.506 266.016 323.81 266.56C324.13 267.088 324.57 267.496 325.13 267.784C325.706 268.056 326.378 268.192 327.146 268.192C327.834 268.192 328.434 268.088 328.946 267.88C329.474 267.672 329.954 267.36 330.386 266.944L332.378 269.104C331.786 269.776 331.042 270.296 330.146 270.664C329.25 271.016 328.218 271.192 327.05 271.192ZM348.604 271.192C347.5 271.192 346.436 271.064 345.412 270.808C344.404 270.536 343.604 270.2 343.012 269.8L344.26 267.112C344.852 267.48 345.548 267.784 346.348 268.024C347.164 268.248 347.964 268.36 348.748 268.36C349.612 268.36 350.22 268.256 350.572 268.048C350.94 267.84 351.124 267.552 351.124 267.184C351.124 266.88 350.98 266.656 350.692 266.512C350.42 266.352 350.052 266.232 349.588 266.152C349.124 266.072 348.612 265.992 348.052 265.912C347.508 265.832 346.956 265.728 346.396 265.6C345.836 265.456 345.324 265.248 344.86 264.976C344.396 264.704 344.02 264.336 343.732 263.872C343.46 263.408 343.324 262.808 343.324 262.072C343.324 261.256 343.556 260.536 344.02 259.912C344.5 259.288 345.188 258.8 346.084 258.448C346.98 258.08 348.052 257.896 349.3 257.896C350.18 257.896 351.076 257.992 351.988 258.184C352.9 258.376 353.66 258.656 354.268 259.024L353.02 261.688C352.396 261.32 351.764 261.072 351.124 260.944C350.5 260.8 349.892 260.728 349.3 260.728C348.468 260.728 347.86 260.84 347.476 261.064C347.092 261.288 346.9 261.576 346.9 261.928C346.9 262.248 347.036 262.488 347.308 262.648C347.596 262.808 347.972 262.936 348.436 263.032C348.9 263.128 349.404 263.216 349.948 263.296C350.508 263.36 351.068 263.464 351.628 263.608C352.188 263.752 352.692 263.96 353.14 264.232C353.604 264.488 353.98 264.848 354.268 265.312C354.556 265.76 354.7 266.352 354.7 267.088C354.7 267.888 354.46 268.6 353.98 269.224C353.5 269.832 352.804 270.312 351.892 270.664C350.996 271.016 349.9 271.192 348.604 271.192ZM363.994 271.192C362.618 271.192 361.394 270.904 360.322 270.328C359.266 269.752 358.426 268.968 357.802 267.976C357.194 266.968 356.89 265.824 356.89 264.544C356.89 263.248 357.194 262.104 357.802 261.112C358.426 260.104 359.266 259.32 360.322 258.76C361.394 258.184 362.618 257.896 363.994 257.896C365.354 257.896 366.57 258.184 367.642 258.76C368.714 259.32 369.554 260.096 370.162 261.088C370.77 262.08 371.074 263.232 371.074 264.544C371.074 265.824 370.77 266.968 370.162 267.976C369.554 268.968 368.714 269.752 367.642 270.328C366.57 270.904 365.354 271.192 363.994 271.192ZM363.994 268.12C364.618 268.12 365.178 267.976 365.674 267.688C366.17 267.4 366.562 266.992 366.85 266.464C367.138 265.92 367.282 265.28 367.282 264.544C367.282 263.792 367.138 263.152 366.85 262.624C366.562 262.096 366.17 261.688 365.674 261.4C365.178 261.112 364.618 260.968 363.994 260.968C363.37 260.968 362.81 261.112 362.314 261.4C361.818 261.688 361.418 262.096 361.114 262.624C360.826 263.152 360.682 263.792 360.682 264.544C360.682 265.28 360.826 265.92 361.114 266.464C361.418 266.992 361.818 267.4 362.314 267.688C362.81 267.976 363.37 268.12 363.994 268.12ZM380.656 271.192C379.264 271.192 378.024 270.912 376.936 270.352C375.848 269.776 374.992 268.984 374.368 267.976C373.76 266.968 373.456 265.824 373.456 264.544C373.456 263.248 373.76 262.104 374.368 261.112C374.992 260.104 375.848 259.32 376.936 258.76C378.024 258.184 379.264 257.896 380.656 257.896C382.016 257.896 383.2 258.184 384.208 258.76C385.216 259.32 385.96 260.128 386.44 261.184L383.536 262.744C383.2 262.136 382.776 261.688 382.264 261.4C381.768 261.112 381.224 260.968 380.632 260.968C379.992 260.968 379.416 261.112 378.904 261.4C378.392 261.688 377.984 262.096 377.68 262.624C377.392 263.152 377.248 263.792 377.248 264.544C377.248 265.296 377.392 265.936 377.68 266.464C377.984 266.992 378.392 267.4 378.904 267.688C379.416 267.976 379.992 268.12 380.632 268.12C381.224 268.12 381.768 267.984 382.264 267.712C382.776 267.424 383.2 266.968 383.536 266.344L386.44 267.928C385.96 268.968 385.216 269.776 384.208 270.352C383.2 270.912 382.016 271.192 380.656 271.192ZM389.366 271V258.088H393.11V271H389.366ZM391.238 256.288C390.55 256.288 389.99 256.088 389.558 255.688C389.126 255.288 388.91 254.792 388.91 254.2C388.91 253.608 389.126 253.112 389.558 252.712C389.99 252.312 390.55 252.112 391.238 252.112C391.926 252.112 392.486 252.304 392.918 252.688C393.35 253.056 393.566 253.536 393.566 254.128C393.566 254.752 393.35 255.272 392.918 255.688C392.502 256.088 391.942 256.288 391.238 256.288ZM405.344 271V268.48L405.104 267.928V263.416C405.104 262.616 404.856 261.992 404.36 261.544C403.88 261.096 403.136 260.872 402.128 260.872C401.44 260.872 400.76 260.984 400.088 261.208C399.432 261.416 398.872 261.704 398.408 262.072L397.064 259.456C397.768 258.96 398.616 258.576 399.608 258.304C400.6 258.032 401.608 257.896 402.632 257.896C404.6 257.896 406.128 258.36 407.216 259.288C408.304 260.216 408.848 261.664 408.848 263.632V271H405.344ZM401.408 271.192C400.4 271.192 399.536 271.024 398.816 270.688C398.096 270.336 397.544 269.864 397.16 269.272C396.776 268.68 396.584 268.016 396.584 267.28C396.584 266.512 396.768 265.84 397.136 265.264C397.52 264.688 398.12 264.24 398.936 263.92C399.752 263.584 400.816 263.416 402.128 263.416H405.56V265.6H402.536C401.656 265.6 401.048 265.744 400.712 266.032C400.392 266.32 400.232 266.68 400.232 267.112C400.232 267.592 400.416 267.976 400.784 268.264C401.168 268.536 401.688 268.672 402.344 268.672C402.968 268.672 403.528 268.528 404.024 268.24C404.52 267.936 404.88 267.496 405.104 266.92L405.68 268.648C405.408 269.48 404.912 270.112 404.192 270.544C403.472 270.976 402.544 271.192 401.408 271.192ZM413.077 271V253.192H416.821V271H413.077ZM445.308 257.896C446.332 257.896 447.236 258.104 448.02 258.52C448.82 258.92 449.444 259.544 449.892 260.392C450.356 261.224 450.588 262.296 450.588 263.608V271H446.844V264.184C446.844 263.144 446.628 262.376 446.196 261.88C445.764 261.384 445.156 261.136 444.372 261.136C443.828 261.136 443.34 261.264 442.908 261.52C442.476 261.76 442.14 262.128 441.9 262.624C441.66 263.12 441.54 263.752 441.54 264.52V271H437.796V264.184C437.796 263.144 437.58 262.376 437.148 261.88C436.732 261.384 436.132 261.136 435.348 261.136C434.804 261.136 434.316 261.264 433.884 261.52C433.452 261.76 433.116 262.128 432.876 262.624C432.636 263.12 432.516 263.752 432.516 264.52V271H428.772V258.088H432.348V261.616L431.676 260.584C432.124 259.704 432.756 259.04 433.572 258.592C434.404 258.128 435.348 257.896 436.404 257.896C437.588 257.896 438.62 258.2 439.5 258.808C440.396 259.4 440.988 260.312 441.276 261.544L439.956 261.184C440.388 260.176 441.076 259.376 442.02 258.784C442.98 258.192 444.076 257.896 445.308 257.896ZM461.286 271.192C459.814 271.192 458.518 270.904 457.398 270.328C456.294 269.752 455.438 268.968 454.83 267.976C454.222 266.968 453.918 265.824 453.918 264.544C453.918 263.248 454.214 262.104 454.806 261.112C455.414 260.104 456.238 259.32 457.278 258.76C458.318 258.184 459.494 257.896 460.806 257.896C462.07 257.896 463.206 258.168 464.214 258.712C465.238 259.24 466.046 260.008 466.638 261.016C467.23 262.008 467.526 263.2 467.526 264.592C467.526 264.736 467.518 264.904 467.502 265.096C467.486 265.272 467.47 265.44 467.454 265.6H456.966V263.416H465.486L464.046 264.064C464.046 263.392 463.91 262.808 463.638 262.312C463.366 261.816 462.99 261.432 462.51 261.16C462.03 260.872 461.47 260.728 460.83 260.728C460.19 260.728 459.622 260.872 459.126 261.16C458.646 261.432 458.27 261.824 457.998 262.336C457.726 262.832 457.59 263.424 457.59 264.112V264.688C457.59 265.392 457.742 266.016 458.046 266.56C458.366 267.088 458.806 267.496 459.366 267.784C459.942 268.056 460.614 268.192 461.382 268.192C462.07 268.192 462.67 268.088 463.182 267.88C463.71 267.672 464.19 267.36 464.622 266.944L466.614 269.104C466.022 269.776 465.278 270.296 464.382 270.664C463.486 271.016 462.454 271.192 461.286 271.192ZM476.403 271.192C475.187 271.192 474.091 270.92 473.115 270.376C472.139 269.816 471.363 269.04 470.787 268.048C470.227 267.056 469.947 265.888 469.947 264.544C469.947 263.184 470.227 262.008 470.787 261.016C471.363 260.024 472.139 259.256 473.115 258.712C474.091 258.168 475.187 257.896 476.403 257.896C477.491 257.896 478.443 258.136 479.259 258.616C480.075 259.096 480.707 259.824 481.155 260.8C481.603 261.776 481.827 263.024 481.827 264.544C481.827 266.048 481.611 267.296 481.179 268.288C480.747 269.264 480.123 269.992 479.307 270.472C478.507 270.952 477.539 271.192 476.403 271.192ZM477.051 268.12C477.659 268.12 478.211 267.976 478.707 267.688C479.203 267.4 479.595 266.992 479.883 266.464C480.187 265.92 480.339 265.28 480.339 264.544C480.339 263.792 480.187 263.152 479.883 262.624C479.595 262.096 479.203 261.688 478.707 261.4C478.211 261.112 477.659 260.968 477.051 260.968C476.427 260.968 475.867 261.112 475.371 261.4C474.875 261.688 474.475 262.096 474.171 262.624C473.883 263.152 473.739 263.792 473.739 264.544C473.739 265.28 473.883 265.92 474.171 266.464C474.475 266.992 474.875 267.4 475.371 267.688C475.867 267.976 476.427 268.12 477.051 268.12ZM480.435 271V268.36L480.507 264.52L480.267 260.704V253.192H484.011V271H480.435ZM488.316 271V258.088H492.06V271H488.316ZM490.188 256.288C489.5 256.288 488.94 256.088 488.508 255.688C488.076 255.288 487.86 254.792 487.86 254.2C487.86 253.608 488.076 253.112 488.508 252.712C488.94 252.312 489.5 252.112 490.188 252.112C490.876 252.112 491.436 252.304 491.868 252.688C492.3 253.056 492.516 253.536 492.516 254.128C492.516 254.752 492.3 255.272 491.868 255.688C491.452 256.088 490.892 256.288 490.188 256.288ZM504.295 271V268.48L504.055 267.928V263.416C504.055 262.616 503.807 261.992 503.311 261.544C502.831 261.096 502.087 260.872 501.079 260.872C500.391 260.872 499.711 260.984 499.039 261.208C498.383 261.416 497.823 261.704 497.359 262.072L496.015 259.456C496.719 258.96 497.567 258.576 498.559 258.304C499.551 258.032 500.559 257.896 501.583 257.896C503.551 257.896 505.079 258.36 506.167 259.288C507.255 260.216 507.799 261.664 507.799 263.632V271H504.295ZM500.359 271.192C499.351 271.192 498.487 271.024 497.767 270.688C497.047 270.336 496.495 269.864 496.111 269.272C495.727 268.68 495.535 268.016 495.535 267.28C495.535 266.512 495.719 265.84 496.087 265.264C496.471 264.688 497.071 264.24 497.887 263.92C498.703 263.584 499.767 263.416 501.079 263.416H504.511V265.6H501.487C500.607 265.6 499.999 265.744 499.663 266.032C499.343 266.32 499.183 266.68 499.183 267.112C499.183 267.592 499.367 267.976 499.735 268.264C500.119 268.536 500.639 268.672 501.295 268.672C501.919 268.672 502.479 268.528 502.975 268.24C503.471 267.936 503.831 267.496 504.055 266.92L504.631 268.648C504.359 269.48 503.863 270.112 503.143 270.544C502.423 270.976 501.495 271.192 500.359 271.192ZM511.379 274.696L512.963 268.936L513.491 271.096C512.803 271.096 512.235 270.896 511.787 270.496C511.355 270.096 511.139 269.544 511.139 268.84C511.139 268.136 511.363 267.576 511.811 267.16C512.259 266.744 512.811 266.536 513.467 266.536C514.139 266.536 514.691 266.752 515.123 267.184C515.555 267.6 515.771 268.152 515.771 268.84C515.771 269.048 515.755 269.256 515.723 269.464C515.691 269.656 515.627 269.896 515.531 270.184C515.451 270.456 515.315 270.808 515.123 271.24L513.755 274.696H511.379ZM4.68 302L0.024 289.088H3.552L7.416 300.2H5.736L9.768 289.088H12.936L16.848 300.2H15.168L19.152 289.088H22.464L17.784 302H14.16L10.728 292.472H11.832L8.28 302H4.68ZM25.0446 302V289.088H28.7886V302H25.0446ZM26.9166 287.288C26.2286 287.288 25.6686 287.088 25.2366 286.688C24.8046 286.288 24.5886 285.792 24.5886 285.2C24.5886 284.608 24.8046 284.112 25.2366 283.712C25.6686 283.312 26.2286 283.112 26.9166 283.112C27.6046 283.112 28.1646 283.304 28.5966 283.688C29.0286 284.056 29.2446 284.536 29.2446 285.128C29.2446 285.752 29.0286 286.272 28.5966 286.688C28.1806 287.088 27.6206 287.288 26.9166 287.288ZM38.3833 302.192C36.8633 302.192 35.6793 301.808 34.8313 301.04C33.9833 300.256 33.5593 299.096 33.5593 297.56V286.232H37.3033V297.512C37.3033 298.056 37.4473 298.48 37.7353 298.784C38.0233 299.072 38.4153 299.216 38.9113 299.216C39.5033 299.216 40.0073 299.056 40.4233 298.736L41.4313 301.376C41.0473 301.648 40.5833 301.856 40.0393 302C39.5113 302.128 38.9593 302.192 38.3833 302.192ZM31.5673 292.256V289.376H40.5193V292.256H31.5673ZM52.221 288.896C53.245 288.896 54.157 289.104 54.957 289.52C55.773 289.92 56.413 290.544 56.877 291.392C57.341 292.224 57.573 293.296 57.573 294.608V302H53.829V295.184C53.829 294.144 53.597 293.376 53.133 292.88C52.685 292.384 52.045 292.136 51.213 292.136C50.621 292.136 50.085 292.264 49.605 292.52C49.141 292.76 48.773 293.136 48.501 293.648C48.245 294.16 48.117 294.816 48.117 295.616V302H44.373V284.192H48.117V292.664L47.277 291.584C47.741 290.72 48.405 290.056 49.269 289.592C50.133 289.128 51.117 288.896 52.221 288.896ZM85.9796 288.896C87.0036 288.896 87.9076 289.104 88.6916 289.52C89.4916 289.92 90.1156 290.544 90.5636 291.392C91.0276 292.224 91.2596 293.296 91.2596 294.608V302H87.5156V295.184C87.5156 294.144 87.2996 293.376 86.8676 292.88C86.4356 292.384 85.8276 292.136 85.0436 292.136C84.4996 292.136 84.0116 292.264 83.5796 292.52C83.1476 292.76 82.8116 293.128 82.5716 293.624C82.3316 294.12 82.2116 294.752 82.2116 295.52V302H78.4676V295.184C78.4676 294.144 78.2516 293.376 77.8196 292.88C77.4036 292.384 76.8036 292.136 76.0196 292.136C75.4756 292.136 74.9876 292.264 74.5556 292.52C74.1236 292.76 73.7876 293.128 73.5476 293.624C73.3076 294.12 73.1876 294.752 73.1876 295.52V302H69.4436V289.088H73.0196V292.616L72.3476 291.584C72.7956 290.704 73.4276 290.04 74.2436 289.592C75.0756 289.128 76.0196 288.896 77.0756 288.896C78.2596 288.896 79.2916 289.2 80.1716 289.808C81.0676 290.4 81.6596 291.312 81.9476 292.544L80.6276 292.184C81.0596 291.176 81.7476 290.376 82.6916 289.784C83.6516 289.192 84.7476 288.896 85.9796 288.896ZM101.693 302.192C100.317 302.192 99.0933 301.904 98.0213 301.328C96.9653 300.752 96.1253 299.968 95.5013 298.976C94.8933 297.968 94.5893 296.824 94.5893 295.544C94.5893 294.248 94.8933 293.104 95.5013 292.112C96.1253 291.104 96.9653 290.32 98.0213 289.76C99.0933 289.184 100.317 288.896 101.693 288.896C103.053 288.896 104.269 289.184 105.341 289.76C106.413 290.32 107.253 291.096 107.861 292.088C108.469 293.08 108.773 294.232 108.773 295.544C108.773 296.824 108.469 297.968 107.861 298.976C107.253 299.968 106.413 300.752 105.341 301.328C104.269 301.904 103.053 302.192 101.693 302.192ZM101.693 299.12C102.317 299.12 102.877 298.976 103.373 298.688C103.869 298.4 104.261 297.992 104.549 297.464C104.837 296.92 104.981 296.28 104.981 295.544C104.981 294.792 104.837 294.152 104.549 293.624C104.261 293.096 103.869 292.688 103.373 292.4C102.877 292.112 102.317 291.968 101.693 291.968C101.069 291.968 100.509 292.112 100.013 292.4C99.5173 292.688 99.1173 293.096 98.8133 293.624C98.5253 294.152 98.3813 294.792 98.3813 295.544C98.3813 296.28 98.5253 296.92 98.8133 297.464C99.1173 297.992 99.5173 298.4 100.013 298.688C100.509 298.976 101.069 299.12 101.693 299.12ZM112.116 302V289.088H115.692V292.736L115.188 291.68C115.572 290.768 116.188 290.08 117.036 289.616C117.884 289.136 118.916 288.896 120.132 288.896V292.352C119.972 292.336 119.828 292.328 119.7 292.328C119.572 292.312 119.436 292.304 119.292 292.304C118.268 292.304 117.436 292.6 116.796 293.192C116.172 293.768 115.86 294.672 115.86 295.904V302H112.116ZM129.512 302.192C128.04 302.192 126.744 301.904 125.624 301.328C124.52 300.752 123.664 299.968 123.056 298.976C122.448 297.968 122.144 296.824 122.144 295.544C122.144 294.248 122.44 293.104 123.032 292.112C123.64 291.104 124.464 290.32 125.504 289.76C126.544 289.184 127.72 288.896 129.032 288.896C130.296 288.896 131.432 289.168 132.44 289.712C133.464 290.24 134.272 291.008 134.864 292.016C135.456 293.008 135.752 294.2 135.752 295.592C135.752 295.736 135.744 295.904 135.728 296.096C135.712 296.272 135.696 296.44 135.68 296.6H125.192V294.416H133.712L132.272 295.064C132.272 294.392 132.136 293.808 131.864 293.312C131.592 292.816 131.216 292.432 130.736 292.16C130.256 291.872 129.696 291.728 129.056 291.728C128.416 291.728 127.848 291.872 127.352 292.16C126.872 292.432 126.496 292.824 126.224 293.336C125.952 293.832 125.816 294.424 125.816 295.112V295.688C125.816 296.392 125.968 297.016 126.272 297.56C126.592 298.088 127.032 298.496 127.592 298.784C128.168 299.056 128.84 299.192 129.608 299.192C130.296 299.192 130.896 299.088 131.408 298.88C131.936 298.672 132.416 298.36 132.848 297.944L134.84 300.104C134.248 300.776 133.504 301.296 132.608 301.664C131.712 302.016 130.68 302.192 129.512 302.192ZM152.002 302.192C150.482 302.192 149.298 301.808 148.45 301.04C147.602 300.256 147.178 299.096 147.178 297.56V286.232H150.922V297.512C150.922 298.056 151.066 298.48 151.354 298.784C151.642 299.072 152.034 299.216 152.53 299.216C153.122 299.216 153.626 299.056 154.042 298.736L155.05 301.376C154.666 301.648 154.202 301.856 153.658 302C153.13 302.128 152.578 302.192 152.002 302.192ZM145.186 292.256V289.376H154.138V292.256H145.186ZM165.839 288.896C166.863 288.896 167.775 289.104 168.575 289.52C169.391 289.92 170.031 290.544 170.495 291.392C170.959 292.224 171.191 293.296 171.191 294.608V302H167.447V295.184C167.447 294.144 167.215 293.376 166.751 292.88C166.303 292.384 165.663 292.136 164.831 292.136C164.239 292.136 163.703 292.264 163.223 292.52C162.759 292.76 162.391 293.136 162.119 293.648C161.863 294.16 161.735 294.816 161.735 295.616V302H157.991V284.192H161.735V292.664L160.895 291.584C161.359 290.72 162.023 290.056 162.887 289.592C163.751 289.128 164.735 288.896 165.839 288.896ZM183.345 302V299.48L183.105 298.928V294.416C183.105 293.616 182.857 292.992 182.361 292.544C181.881 292.096 181.137 291.872 180.129 291.872C179.441 291.872 178.761 291.984 178.089 292.208C177.433 292.416 176.873 292.704 176.409 293.072L175.065 290.456C175.769 289.96 176.617 289.576 177.609 289.304C178.601 289.032 179.609 288.896 180.633 288.896C182.601 288.896 184.129 289.36 185.217 290.288C186.305 291.216 186.849 292.664 186.849 294.632V302H183.345ZM179.409 302.192C178.401 302.192 177.537 302.024 176.817 301.688C176.097 301.336 175.545 300.864 175.161 300.272C174.777 299.68 174.585 299.016 174.585 298.28C174.585 297.512 174.769 296.84 175.137 296.264C175.521 295.688 176.121 295.24 176.937 294.92C177.753 294.584 178.817 294.416 180.129 294.416H183.561V296.6H180.537C179.657 296.6 179.049 296.744 178.713 297.032C178.393 297.32 178.233 297.68 178.233 298.112C178.233 298.592 178.417 298.976 178.785 299.264C179.169 299.536 179.689 299.672 180.345 299.672C180.969 299.672 181.529 299.528 182.025 299.24C182.521 298.936 182.881 298.496 183.105 297.92L183.681 299.648C183.409 300.48 182.913 301.112 182.193 301.544C181.473 301.976 180.545 302.192 179.409 302.192ZM198.926 288.896C199.95 288.896 200.862 289.104 201.662 289.52C202.478 289.92 203.118 290.544 203.582 291.392C204.046 292.224 204.278 293.296 204.278 294.608V302H200.534V295.184C200.534 294.144 200.302 293.376 199.838 292.88C199.39 292.384 198.75 292.136 197.918 292.136C197.326 292.136 196.79 292.264 196.31 292.52C195.846 292.76 195.478 293.136 195.206 293.648C194.95 294.16 194.822 294.816 194.822 295.616V302H191.078V289.088H194.654V292.664L193.982 291.584C194.446 290.72 195.11 290.056 195.974 289.592C196.838 289.128 197.822 288.896 198.926 288.896ZM217.948 302V286.64L219.628 288.32H214.588V285.2H221.836V302H217.948ZM234.024 302V289.088H237.768V302H234.024ZM235.896 287.288C235.208 287.288 234.648 287.088 234.216 286.688C233.784 286.288 233.568 285.792 233.568 285.2C233.568 284.608 233.784 284.112 234.216 283.712C234.648 283.312 235.208 283.112 235.896 283.112C236.584 283.112 237.144 283.304 237.576 283.688C238.008 284.056 238.224 284.536 238.224 285.128C238.224 285.752 238.008 286.272 237.576 286.688C237.16 287.088 236.6 287.288 235.896 287.288ZM249.93 288.896C250.954 288.896 251.866 289.104 252.666 289.52C253.482 289.92 254.122 290.544 254.586 291.392C255.05 292.224 255.282 293.296 255.282 294.608V302H251.538V295.184C251.538 294.144 251.306 293.376 250.842 292.88C250.394 292.384 249.754 292.136 248.922 292.136C248.33 292.136 247.794 292.264 247.314 292.52C246.85 292.76 246.482 293.136 246.21 293.648C245.954 294.16 245.826 294.816 245.826 295.616V302H242.082V289.088H245.658V292.664L244.986 291.584C245.45 290.72 246.114 290.056 246.978 289.592C247.842 289.128 248.826 288.896 249.93 288.896ZM271.809 302.288C270.641 302.288 269.481 302.136 268.329 301.832C267.177 301.512 266.201 301.064 265.401 300.488L266.913 297.512C267.553 297.976 268.297 298.344 269.145 298.616C269.993 298.888 270.849 299.024 271.713 299.024C272.689 299.024 273.457 298.832 274.017 298.448C274.577 298.064 274.857 297.536 274.857 296.864C274.857 296.224 274.609 295.72 274.113 295.352C273.617 294.984 272.817 294.8 271.713 294.8H269.937V292.232L274.617 286.928L275.049 288.32H266.241V285.2H278.001V287.72L273.345 293.024L271.377 291.896H272.505C274.569 291.896 276.129 292.36 277.185 293.288C278.241 294.216 278.769 295.408 278.769 296.864C278.769 297.808 278.521 298.696 278.025 299.528C277.529 300.344 276.769 301.008 275.745 301.52C274.721 302.032 273.409 302.288 271.809 302.288ZM289.833 302V289.088H293.409V292.736L292.905 291.68C293.289 290.768 293.905 290.08 294.753 289.616C295.601 289.136 296.633 288.896 297.849 288.896V292.352C297.689 292.336 297.545 292.328 297.417 292.328C297.289 292.312 297.153 292.304 297.009 292.304C295.985 292.304 295.153 292.6 294.513 293.192C293.889 293.768 293.577 294.672 293.577 295.904V302H289.833ZM307.229 302.192C305.757 302.192 304.461 301.904 303.341 301.328C302.237 300.752 301.381 299.968 300.773 298.976C300.165 297.968 299.861 296.824 299.861 295.544C299.861 294.248 300.157 293.104 300.749 292.112C301.357 291.104 302.181 290.32 303.221 289.76C304.261 289.184 305.437 288.896 306.749 288.896C308.013 288.896 309.149 289.168 310.157 289.712C311.181 290.24 311.989 291.008 312.581 292.016C313.173 293.008 313.469 294.2 313.469 295.592C313.469 295.736 313.461 295.904 313.445 296.096C313.429 296.272 313.413 296.44 313.397 296.6H302.909V294.416H311.429L309.989 295.064C309.989 294.392 309.853 293.808 309.581 293.312C309.309 292.816 308.933 292.432 308.453 292.16C307.973 291.872 307.413 291.728 306.773 291.728C306.133 291.728 305.565 291.872 305.069 292.16C304.589 292.432 304.213 292.824 303.941 293.336C303.669 293.832 303.533 294.424 303.533 295.112V295.688C303.533 296.392 303.685 297.016 303.989 297.56C304.309 298.088 304.749 298.496 305.309 298.784C305.885 299.056 306.557 299.192 307.325 299.192C308.013 299.192 308.613 299.088 309.125 298.88C309.653 298.672 310.133 298.36 310.565 297.944L312.557 300.104C311.965 300.776 311.221 301.296 310.325 301.664C309.429 302.016 308.397 302.192 307.229 302.192ZM324.434 302.192C323.346 302.192 322.394 301.952 321.578 301.472C320.762 300.992 320.122 300.264 319.658 299.288C319.21 298.296 318.986 297.048 318.986 295.544C318.986 294.024 319.202 292.776 319.634 291.8C320.066 290.824 320.69 290.096 321.506 289.616C322.322 289.136 323.298 288.896 324.434 288.896C325.65 288.896 326.738 289.176 327.698 289.736C328.674 290.28 329.442 291.048 330.002 292.04C330.578 293.032 330.866 294.2 330.866 295.544C330.866 296.904 330.578 298.08 330.002 299.072C329.442 300.064 328.674 300.832 327.698 301.376C326.738 301.92 325.65 302.192 324.434 302.192ZM316.802 306.656V289.088H320.378V291.728L320.306 295.568L320.546 299.384V306.656H316.802ZM323.786 299.12C324.41 299.12 324.962 298.976 325.442 298.688C325.938 298.4 326.33 297.992 326.618 297.464C326.922 296.92 327.074 296.28 327.074 295.544C327.074 294.792 326.922 294.152 326.618 293.624C326.33 293.096 325.938 292.688 325.442 292.4C324.962 292.112 324.41 291.968 323.786 291.968C323.162 291.968 322.602 292.112 322.106 292.4C321.61 292.688 321.218 293.096 320.93 293.624C320.642 294.152 320.498 294.792 320.498 295.544C320.498 296.28 320.642 296.92 320.93 297.464C321.218 297.992 321.61 298.4 322.106 298.688C322.602 298.976 323.162 299.12 323.786 299.12ZM340.356 302.192C338.98 302.192 337.756 301.904 336.684 301.328C335.628 300.752 334.788 299.968 334.164 298.976C333.556 297.968 333.252 296.824 333.252 295.544C333.252 294.248 333.556 293.104 334.164 292.112C334.788 291.104 335.628 290.32 336.684 289.76C337.756 289.184 338.98 288.896 340.356 288.896C341.716 288.896 342.932 289.184 344.004 289.76C345.076 290.32 345.916 291.096 346.524 292.088C347.132 293.08 347.436 294.232 347.436 295.544C347.436 296.824 347.132 297.968 346.524 298.976C345.916 299.968 345.076 300.752 344.004 301.328C342.932 301.904 341.716 302.192 340.356 302.192ZM340.356 299.12C340.98 299.12 341.54 298.976 342.036 298.688C342.532 298.4 342.924 297.992 343.212 297.464C343.5 296.92 343.644 296.28 343.644 295.544C343.644 294.792 343.5 294.152 343.212 293.624C342.924 293.096 342.532 292.688 342.036 292.4C341.54 292.112 340.98 291.968 340.356 291.968C339.732 291.968 339.172 292.112 338.676 292.4C338.18 292.688 337.78 293.096 337.476 293.624C337.188 294.152 337.044 294.792 337.044 295.544C337.044 296.28 337.188 296.92 337.476 297.464C337.78 297.992 338.18 298.4 338.676 298.688C339.172 298.976 339.732 299.12 340.356 299.12ZM350.779 302V289.088H354.355V292.736L353.851 291.68C354.235 290.768 354.851 290.08 355.699 289.616C356.547 289.136 357.579 288.896 358.795 288.896V292.352C358.635 292.336 358.491 292.328 358.363 292.328C358.235 292.312 358.099 292.304 357.955 292.304C356.931 292.304 356.099 292.6 355.459 293.192C354.835 293.768 354.523 294.672 354.523 295.904V302H350.779ZM367.586 302.192C366.066 302.192 364.882 301.808 364.034 301.04C363.186 300.256 362.762 299.096 362.762 297.56V286.232H366.506V297.512C366.506 298.056 366.65 298.48 366.938 298.784C367.226 299.072 367.618 299.216 368.114 299.216C368.706 299.216 369.21 299.056 369.626 298.736L370.634 301.376C370.25 301.648 369.786 301.856 369.242 302C368.714 302.128 368.162 302.192 367.586 302.192ZM360.77 292.256V289.376H369.722V292.256H360.77ZM373.576 302V289.088H377.32V302H373.576ZM375.448 287.288C374.76 287.288 374.2 287.088 373.768 286.688C373.336 286.288 373.12 285.792 373.12 285.2C373.12 284.608 373.336 284.112 373.768 283.712C374.2 283.312 374.76 283.112 375.448 283.112C376.136 283.112 376.696 283.304 377.128 283.688C377.56 284.056 377.776 284.536 377.776 285.128C377.776 285.752 377.56 286.272 377.128 286.688C376.712 287.088 376.152 287.288 375.448 287.288ZM389.483 288.896C390.507 288.896 391.419 289.104 392.219 289.52C393.035 289.92 393.675 290.544 394.139 291.392C394.603 292.224 394.835 293.296 394.835 294.608V302H391.091V295.184C391.091 294.144 390.859 293.376 390.395 292.88C389.947 292.384 389.307 292.136 388.475 292.136C387.883 292.136 387.347 292.264 386.867 292.52C386.403 292.76 386.035 293.136 385.763 293.648C385.507 294.16 385.379 294.816 385.379 295.616V302H381.635V289.088H385.211V292.664L384.539 291.584C385.003 290.72 385.667 290.056 386.531 289.592C387.395 289.128 388.379 288.896 389.483 288.896ZM405.234 306.848C404.018 306.848 402.842 306.696 401.706 306.392C400.586 306.104 399.65 305.664 398.898 305.072L400.386 302.384C400.93 302.832 401.618 303.184 402.45 303.44C403.298 303.712 404.13 303.848 404.946 303.848C406.274 303.848 407.234 303.552 407.826 302.96C408.434 302.368 408.738 301.488 408.738 300.32V298.376L408.978 295.136L408.93 291.872V289.088H412.482V299.84C412.482 302.24 411.858 304.008 410.61 305.144C409.362 306.28 407.57 306.848 405.234 306.848ZM404.658 301.376C403.458 301.376 402.37 301.12 401.394 300.608C400.434 300.08 399.658 299.352 399.066 298.424C398.49 297.48 398.202 296.384 398.202 295.136C398.202 293.872 398.49 292.776 399.066 291.848C399.658 290.904 400.434 290.176 401.394 289.664C402.37 289.152 403.458 288.896 404.658 288.896C405.746 288.896 406.706 289.12 407.538 289.568C408.37 290 409.018 290.68 409.482 291.608C409.946 292.52 410.178 293.696 410.178 295.136C410.178 296.56 409.946 297.736 409.482 298.664C409.018 299.576 408.37 300.256 407.538 300.704C406.706 301.152 405.746 301.376 404.658 301.376ZM405.402 298.304C406.058 298.304 406.642 298.176 407.154 297.92C407.666 297.648 408.066 297.272 408.354 296.792C408.642 296.312 408.786 295.76 408.786 295.136C408.786 294.496 408.642 293.944 408.354 293.48C408.066 293 407.666 292.632 407.154 292.376C406.642 292.104 406.058 291.968 405.402 291.968C404.746 291.968 404.162 292.104 403.65 292.376C403.138 292.632 402.73 293 402.426 293.48C402.138 293.944 401.994 294.496 401.994 295.136C401.994 295.76 402.138 296.312 402.426 296.792C402.73 297.272 403.138 297.648 403.65 297.92C404.162 298.176 404.746 298.304 405.402 298.304ZM429.724 302.192C428.204 302.192 427.02 301.808 426.172 301.04C425.324 300.256 424.9 299.096 424.9 297.56V286.232H428.644V297.512C428.644 298.056 428.788 298.48 429.076 298.784C429.364 299.072 429.756 299.216 430.252 299.216C430.844 299.216 431.348 299.056 431.764 298.736L432.772 301.376C432.388 301.648 431.924 301.856 431.38 302C430.852 302.128 430.3 302.192 429.724 302.192ZM422.908 292.256V289.376H431.86V292.256H422.908ZM443.562 288.896C444.586 288.896 445.498 289.104 446.298 289.52C447.114 289.92 447.754 290.544 448.218 291.392C448.682 292.224 448.914 293.296 448.914 294.608V302H445.17V295.184C445.17 294.144 444.938 293.376 444.474 292.88C444.026 292.384 443.386 292.136 442.554 292.136C441.962 292.136 441.426 292.264 440.946 292.52C440.482 292.76 440.114 293.136 439.842 293.648C439.586 294.16 439.458 294.816 439.458 295.616V302H435.714V284.192H439.458V292.664L438.618 291.584C439.082 290.72 439.746 290.056 440.61 289.592C441.474 289.128 442.458 288.896 443.562 288.896ZM459.649 302.192C458.177 302.192 456.881 301.904 455.761 301.328C454.657 300.752 453.801 299.968 453.193 298.976C452.585 297.968 452.281 296.824 452.281 295.544C452.281 294.248 452.577 293.104 453.169 292.112C453.777 291.104 454.601 290.32 455.641 289.76C456.681 289.184 457.857 288.896 459.169 288.896C460.433 288.896 461.569 289.168 462.577 289.712C463.601 290.24 464.409 291.008 465.001 292.016C465.593 293.008 465.889 294.2 465.889 295.592C465.889 295.736 465.881 295.904 465.865 296.096C465.849 296.272 465.833 296.44 465.817 296.6H455.329V294.416H463.849L462.409 295.064C462.409 294.392 462.273 293.808 462.001 293.312C461.729 292.816 461.353 292.432 460.873 292.16C460.393 291.872 459.833 291.728 459.193 291.728C458.553 291.728 457.985 291.872 457.489 292.16C457.009 292.432 456.633 292.824 456.361 293.336C456.089 293.832 455.953 294.424 455.953 295.112V295.688C455.953 296.392 456.105 297.016 456.409 297.56C456.729 298.088 457.169 298.496 457.729 298.784C458.305 299.056 458.977 299.192 459.745 299.192C460.433 299.192 461.033 299.088 461.545 298.88C462.073 298.672 462.553 298.36 462.985 297.944L464.977 300.104C464.385 300.776 463.641 301.296 462.745 301.664C461.849 302.016 460.817 302.192 459.649 302.192ZM470.619 306.848C469.947 306.848 469.283 306.744 468.627 306.536C467.971 306.328 467.435 306.04 467.019 305.672L468.387 303.008C468.675 303.264 469.003 303.464 469.371 303.608C469.755 303.752 470.131 303.824 470.499 303.824C471.027 303.824 471.443 303.696 471.747 303.44C472.067 303.2 472.355 302.792 472.611 302.216L473.283 300.632L473.571 300.224L478.203 289.088H481.803L475.971 302.792C475.555 303.832 475.075 304.648 474.531 305.24C474.003 305.832 473.411 306.248 472.755 306.488C472.115 306.728 471.403 306.848 470.619 306.848ZM472.827 302.504L467.067 289.088H470.931L475.395 299.888L472.827 302.504ZM497.256 302.192C496.184 302.192 495.224 301.984 494.376 301.568C493.544 301.152 492.896 300.52 492.432 299.672C491.968 298.808 491.736 297.712 491.736 296.384V289.088H495.48V295.832C495.48 296.904 495.704 297.696 496.152 298.208C496.616 298.704 497.264 298.952 498.096 298.952C498.672 298.952 499.184 298.832 499.632 298.592C500.08 298.336 500.432 297.952 500.688 297.44C500.944 296.912 501.072 296.256 501.072 295.472V289.088H504.816V302H501.264V298.448L501.912 299.48C501.48 300.376 500.84 301.056 499.992 301.52C499.16 301.968 498.248 302.192 497.256 302.192ZM513.469 302.192C512.365 302.192 511.301 302.064 510.277 301.808C509.269 301.536 508.469 301.2 507.877 300.8L509.125 298.112C509.717 298.48 510.413 298.784 511.213 299.024C512.029 299.248 512.829 299.36 513.613 299.36C514.477 299.36 515.085 299.256 515.437 299.048C515.805 298.84 515.989 298.552 515.989 298.184C515.989 297.88 515.845 297.656 515.557 297.512C515.285 297.352 514.917 297.232 514.453 297.152C513.989 297.072 513.477 296.992 512.917 296.912C512.373 296.832 511.821 296.728 511.261 296.6C510.701 296.456 510.189 296.248 509.725 295.976C509.261 295.704 508.885 295.336 508.597 294.872C508.325 294.408 508.189 293.808 508.189 293.072C508.189 292.256 508.421 291.536 508.885 290.912C509.365 290.288 510.053 289.8 510.949 289.448C511.845 289.08 512.917 288.896 514.165 288.896C515.045 288.896 515.941 288.992 516.853 289.184C517.765 289.376 518.525 289.656 519.133 290.024L517.885 292.688C517.261 292.32 516.629 292.072 515.989 291.944C515.365 291.8 514.757 291.728 514.165 291.728C513.333 291.728 512.725 291.84 512.341 292.064C511.957 292.288 511.765 292.576 511.765 292.928C511.765 293.248 511.901 293.488 512.173 293.648C512.461 293.808 512.837 293.936 513.301 294.032C513.765 294.128 514.269 294.216 514.813 294.296C515.373 294.36 515.933 294.464 516.493 294.608C517.053 294.752 517.557 294.96 518.005 295.232C518.469 295.488 518.845 295.848 519.133 296.312C519.421 296.76 519.565 297.352 519.565 298.088C519.565 298.888 519.325 299.6 518.845 300.224C518.365 300.832 517.669 301.312 516.757 301.664C515.861 302.016 514.765 302.192 513.469 302.192ZM529.123 302.192C527.651 302.192 526.355 301.904 525.235 301.328C524.131 300.752 523.275 299.968 522.667 298.976C522.059 297.968 521.755 296.824 521.755 295.544C521.755 294.248 522.051 293.104 522.643 292.112C523.251 291.104 524.075 290.32 525.115 289.76C526.155 289.184 527.331 288.896 528.643 288.896C529.907 288.896 531.043 289.168 532.051 289.712C533.075 290.24 533.883 291.008 534.475 292.016C535.067 293.008 535.363 294.2 535.363 295.592C535.363 295.736 535.355 295.904 535.339 296.096C535.323 296.272 535.307 296.44 535.291 296.6H524.803V294.416H533.323L531.883 295.064C531.883 294.392 531.747 293.808 531.475 293.312C531.203 292.816 530.827 292.432 530.347 292.16C529.867 291.872 529.307 291.728 528.667 291.728C528.027 291.728 527.459 291.872 526.963 292.16C526.483 292.432 526.107 292.824 525.835 293.336C525.563 293.832 525.427 294.424 525.427 295.112V295.688C525.427 296.392 525.579 297.016 525.883 297.56C526.203 298.088 526.643 298.496 527.203 298.784C527.779 299.056 528.451 299.192 529.219 299.192C529.907 299.192 530.507 299.088 531.019 298.88C531.547 298.672 532.027 298.36 532.459 297.944L534.451 300.104C533.859 300.776 533.115 301.296 532.219 301.664C531.323 302.016 530.291 302.192 529.123 302.192ZM1.728 333V320.088H5.472V333H1.728ZM3.6 318.288C2.912 318.288 2.352 318.088 1.92 317.688C1.488 317.288 1.272 316.792 1.272 316.2C1.272 315.608 1.488 315.112 1.92 314.712C2.352 314.312 2.912 314.112 3.6 314.112C4.288 314.112 4.848 314.304 5.28 314.688C5.712 315.056 5.928 315.536 5.928 316.128C5.928 316.752 5.712 317.272 5.28 317.688C4.864 318.088 4.304 318.288 3.6 318.288ZM15.0668 333.192C13.5468 333.192 12.3628 332.808 11.5148 332.04C10.6668 331.256 10.2428 330.096 10.2428 328.56V317.232H13.9868V328.512C13.9868 329.056 14.1308 329.48 14.4188 329.784C14.7068 330.072 15.0988 330.216 15.5948 330.216C16.1868 330.216 16.6908 330.056 17.1068 329.736L18.1148 332.376C17.7308 332.648 17.2668 332.856 16.7228 333C16.1948 333.128 15.6428 333.192 15.0668 333.192ZM8.25075 323.256V320.376H17.2028V323.256H8.25075ZM32.1973 315.192L30.6133 320.952L30.0853 318.792C30.7733 318.792 31.3333 318.992 31.7653 319.392C32.1973 319.792 32.4133 320.344 32.4133 321.048C32.4133 321.736 32.1893 322.296 31.7413 322.728C31.3093 323.144 30.7653 323.352 30.1093 323.352C29.4373 323.352 28.8773 323.144 28.4293 322.728C27.9973 322.296 27.7813 321.736 27.7813 321.048C27.7813 320.84 27.7973 320.64 27.8293 320.448C27.8613 320.24 27.9253 320 28.0213 319.728C28.1173 319.456 28.2533 319.096 28.4293 318.648L29.8213 315.192H32.1973ZM37.8613 315.192L36.2773 320.952L35.7493 318.792C36.4373 318.792 36.9973 318.992 37.4293 319.392C37.8613 319.792 38.0773 320.344 38.0773 321.048C38.0773 321.736 37.8533 322.296 37.4053 322.728C36.9733 323.144 36.4293 323.352 35.7733 323.352C35.1013 323.352 34.5413 323.144 34.0933 322.728C33.6613 322.296 33.4453 321.736 33.4453 321.048C33.4453 320.84 33.4613 320.64 33.4933 320.448C33.5253 320.24 33.5893 320 33.6853 319.728C33.7813 319.456 33.9173 319.096 34.0933 318.648L35.4853 315.192H37.8613ZM49.1721 333V330.48L48.9321 329.928V325.416C48.9321 324.616 48.6841 323.992 48.1881 323.544C47.7081 323.096 46.9641 322.872 45.9561 322.872C45.2681 322.872 44.5881 322.984 43.9161 323.208C43.2601 323.416 42.7001 323.704 42.2361 324.072L40.8921 321.456C41.5961 320.96 42.4441 320.576 43.4361 320.304C44.4281 320.032 45.4361 319.896 46.4601 319.896C48.4281 319.896 49.9561 320.36 51.0441 321.288C52.1321 322.216 52.6761 323.664 52.6761 325.632V333H49.1721ZM45.2361 333.192C44.2281 333.192 43.3641 333.024 42.6441 332.688C41.9241 332.336 41.3721 331.864 40.9881 331.272C40.6041 330.68 40.4121 330.016 40.4121 329.28C40.4121 328.512 40.5961 327.84 40.9641 327.264C41.3481 326.688 41.9481 326.24 42.7641 325.92C43.5801 325.584 44.6441 325.416 45.9561 325.416H49.3881V327.6H46.3641C45.4841 327.6 44.8761 327.744 44.5401 328.032C44.2201 328.32 44.0601 328.68 44.0601 329.112C44.0601 329.592 44.2441 329.976 44.6121 330.264C44.9961 330.536 45.5161 330.672 46.1721 330.672C46.7961 330.672 47.3561 330.528 47.8521 330.24C48.3481 329.936 48.7081 329.496 48.9321 328.92L49.5081 330.648C49.2361 331.48 48.7401 332.112 48.0201 332.544C47.3001 332.976 46.3721 333.192 45.2361 333.192ZM56.9046 333V315.192H60.6486V333H56.9046ZM81.4993 319.896C82.5233 319.896 83.4273 320.104 84.2113 320.52C85.0113 320.92 85.6353 321.544 86.0833 322.392C86.5473 323.224 86.7793 324.296 86.7793 325.608V333H83.0353V326.184C83.0353 325.144 82.8193 324.376 82.3873 323.88C81.9553 323.384 81.3473 323.136 80.5633 323.136C80.0193 323.136 79.5313 323.264 79.0993 323.52C78.6673 323.76 78.3313 324.128 78.0913 324.624C77.8513 325.12 77.7313 325.752 77.7313 326.52V333H73.9873V326.184C73.9873 325.144 73.7713 324.376 73.3393 323.88C72.9233 323.384 72.3233 323.136 71.5393 323.136C70.9953 323.136 70.5073 323.264 70.0753 323.52C69.6433 323.76 69.3073 324.128 69.0673 324.624C68.8273 325.12 68.7073 325.752 68.7073 326.52V333H64.9633V320.088H68.5393V323.616L67.8673 322.584C68.3153 321.704 68.9473 321.04 69.7633 320.592C70.5953 320.128 71.5393 319.896 72.5953 319.896C73.7793 319.896 74.8113 320.2 75.6913 320.808C76.5873 321.4 77.1793 322.312 77.4673 323.544L76.1473 323.184C76.5793 322.176 77.2673 321.376 78.2113 320.784C79.1713 320.192 80.2673 319.896 81.4993 319.896ZM97.2129 333.192C95.8369 333.192 94.6129 332.904 93.5409 332.328C92.4849 331.752 91.6449 330.968 91.0209 329.976C90.4129 328.968 90.1089 327.824 90.1089 326.544C90.1089 325.248 90.4129 324.104 91.0209 323.112C91.6449 322.104 92.4849 321.32 93.5409 320.76C94.6129 320.184 95.8369 319.896 97.2129 319.896C98.5729 319.896 99.7889 320.184 100.861 320.76C101.933 321.32 102.773 322.096 103.381 323.088C103.989 324.08 104.293 325.232 104.293 326.544C104.293 327.824 103.989 328.968 103.381 329.976C102.773 330.968 101.933 331.752 100.861 332.328C99.7889 332.904 98.5729 333.192 97.2129 333.192ZM97.2129 330.12C97.8369 330.12 98.3969 329.976 98.8929 329.688C99.3889 329.4 99.7809 328.992 100.069 328.464C100.357 327.92 100.501 327.28 100.501 326.544C100.501 325.792 100.357 325.152 100.069 324.624C99.7809 324.096 99.3889 323.688 98.8929 323.4C98.3969 323.112 97.8369 322.968 97.2129 322.968C96.5889 322.968 96.0289 323.112 95.5329 323.4C95.0369 323.688 94.6369 324.096 94.3329 324.624C94.0449 325.152 93.9009 325.792 93.9009 326.544C93.9009 327.28 94.0449 327.92 94.3329 328.464C94.6369 328.992 95.0369 329.4 95.5329 329.688C96.0289 329.976 96.5889 330.12 97.2129 330.12ZM111.98 333.192C110.876 333.192 109.812 333.064 108.788 332.808C107.78 332.536 106.98 332.2 106.388 331.8L107.636 329.112C108.228 329.48 108.924 329.784 109.724 330.024C110.54 330.248 111.34 330.36 112.124 330.36C112.988 330.36 113.596 330.256 113.948 330.048C114.316 329.84 114.5 329.552 114.5 329.184C114.5 328.88 114.356 328.656 114.068 328.512C113.796 328.352 113.428 328.232 112.964 328.152C112.5 328.072 111.988 327.992 111.428 327.912C110.884 327.832 110.332 327.728 109.772 327.6C109.212 327.456 108.7 327.248 108.236 326.976C107.772 326.704 107.396 326.336 107.108 325.872C106.836 325.408 106.7 324.808 106.7 324.072C106.7 323.256 106.932 322.536 107.396 321.912C107.876 321.288 108.564 320.8 109.46 320.448C110.356 320.08 111.428 319.896 112.676 319.896C113.556 319.896 114.452 319.992 115.364 320.184C116.276 320.376 117.036 320.656 117.644 321.024L116.396 323.688C115.772 323.32 115.14 323.072 114.5 322.944C113.876 322.8 113.268 322.728 112.676 322.728C111.844 322.728 111.236 322.84 110.852 323.064C110.468 323.288 110.276 323.576 110.276 323.928C110.276 324.248 110.412 324.488 110.684 324.648C110.972 324.808 111.348 324.936 111.812 325.032C112.276 325.128 112.78 325.216 113.324 325.296C113.884 325.36 114.444 325.464 115.004 325.608C115.564 325.752 116.068 325.96 116.516 326.232C116.98 326.488 117.356 326.848 117.644 327.312C117.932 327.76 118.076 328.352 118.076 329.088C118.076 329.888 117.836 330.6 117.356 331.224C116.876 331.832 116.18 332.312 115.268 332.664C114.372 333.016 113.276 333.192 111.98 333.192ZM126.505 333.192C124.985 333.192 123.801 332.808 122.953 332.04C122.105 331.256 121.681 330.096 121.681 328.56V317.232H125.425V328.512C125.425 329.056 125.569 329.48 125.857 329.784C126.145 330.072 126.537 330.216 127.033 330.216C127.625 330.216 128.129 330.056 128.545 329.736L129.553 332.376C129.169 332.648 128.705 332.856 128.161 333C127.633 333.128 127.081 333.192 126.505 333.192ZM119.689 323.256V320.376H128.641V323.256H119.689ZM146.372 333.192C144.98 333.192 143.74 332.912 142.652 332.352C141.564 331.776 140.708 330.984 140.084 329.976C139.476 328.968 139.172 327.824 139.172 326.544C139.172 325.248 139.476 324.104 140.084 323.112C140.708 322.104 141.564 321.32 142.652 320.76C143.74 320.184 144.98 319.896 146.372 319.896C147.732 319.896 148.916 320.184 149.924 320.76C150.932 321.32 151.676 322.128 152.156 323.184L149.252 324.744C148.916 324.136 148.492 323.688 147.98 323.4C147.484 323.112 146.94 322.968 146.348 322.968C145.708 322.968 145.132 323.112 144.62 323.4C144.108 323.688 143.7 324.096 143.396 324.624C143.108 325.152 142.964 325.792 142.964 326.544C142.964 327.296 143.108 327.936 143.396 328.464C143.7 328.992 144.108 329.4 144.62 329.688C145.132 329.976 145.708 330.12 146.348 330.12C146.94 330.12 147.484 329.984 147.98 329.712C148.492 329.424 148.916 328.968 149.252 328.344L152.156 329.928C151.676 330.968 150.932 331.776 149.924 332.352C148.916 332.912 147.732 333.192 146.372 333.192ZM161.132 333.192C159.756 333.192 158.532 332.904 157.46 332.328C156.404 331.752 155.564 330.968 154.94 329.976C154.332 328.968 154.028 327.824 154.028 326.544C154.028 325.248 154.332 324.104 154.94 323.112C155.564 322.104 156.404 321.32 157.46 320.76C158.532 320.184 159.756 319.896 161.132 319.896C162.492 319.896 163.708 320.184 164.78 320.76C165.852 321.32 166.692 322.096 167.3 323.088C167.908 324.08 168.212 325.232 168.212 326.544C168.212 327.824 167.908 328.968 167.3 329.976C166.692 330.968 165.852 331.752 164.78 332.328C163.708 332.904 162.492 333.192 161.132 333.192ZM161.132 330.12C161.756 330.12 162.316 329.976 162.812 329.688C163.308 329.4 163.7 328.992 163.988 328.464C164.276 327.92 164.42 327.28 164.42 326.544C164.42 325.792 164.276 325.152 163.988 324.624C163.7 324.096 163.308 323.688 162.812 323.4C162.316 323.112 161.756 322.968 161.132 322.968C160.508 322.968 159.948 323.112 159.452 323.4C158.956 323.688 158.556 324.096 158.252 324.624C157.964 325.152 157.82 325.792 157.82 326.544C157.82 327.28 157.964 327.92 158.252 328.464C158.556 328.992 158.956 329.4 159.452 329.688C159.948 329.976 160.508 330.12 161.132 330.12ZM179.402 319.896C180.426 319.896 181.338 320.104 182.138 320.52C182.954 320.92 183.594 321.544 184.058 322.392C184.522 323.224 184.754 324.296 184.754 325.608V333H181.01V326.184C181.01 325.144 180.778 324.376 180.314 323.88C179.866 323.384 179.226 323.136 178.394 323.136C177.802 323.136 177.266 323.264 176.786 323.52C176.322 323.76 175.954 324.136 175.682 324.648C175.426 325.16 175.298 325.816 175.298 326.616V333H171.554V320.088H175.13V323.664L174.458 322.584C174.922 321.72 175.586 321.056 176.45 320.592C177.314 320.128 178.298 319.896 179.402 319.896ZM193.332 333.192C192.228 333.192 191.164 333.064 190.14 332.808C189.132 332.536 188.332 332.2 187.74 331.8L188.988 329.112C189.58 329.48 190.276 329.784 191.076 330.024C191.892 330.248 192.692 330.36 193.476 330.36C194.34 330.36 194.948 330.256 195.3 330.048C195.668 329.84 195.852 329.552 195.852 329.184C195.852 328.88 195.708 328.656 195.42 328.512C195.148 328.352 194.78 328.232 194.316 328.152C193.852 328.072 193.34 327.992 192.78 327.912C192.236 327.832 191.684 327.728 191.124 327.6C190.564 327.456 190.052 327.248 189.588 326.976C189.124 326.704 188.748 326.336 188.46 325.872C188.188 325.408 188.052 324.808 188.052 324.072C188.052 323.256 188.284 322.536 188.748 321.912C189.228 321.288 189.916 320.8 190.812 320.448C191.708 320.08 192.78 319.896 194.028 319.896C194.908 319.896 195.804 319.992 196.716 320.184C197.628 320.376 198.388 320.656 198.996 321.024L197.748 323.688C197.124 323.32 196.492 323.072 195.852 322.944C195.228 322.8 194.62 322.728 194.028 322.728C193.196 322.728 192.588 322.84 192.204 323.064C191.82 323.288 191.628 323.576 191.628 323.928C191.628 324.248 191.764 324.488 192.036 324.648C192.324 324.808 192.7 324.936 193.164 325.032C193.628 325.128 194.132 325.216 194.676 325.296C195.236 325.36 195.796 325.464 196.356 325.608C196.916 325.752 197.42 325.96 197.868 326.232C198.332 326.488 198.708 326.848 198.996 327.312C199.284 327.76 199.428 328.352 199.428 329.088C199.428 329.888 199.188 330.6 198.708 331.224C198.228 331.832 197.532 332.312 196.62 332.664C195.724 333.016 194.628 333.192 193.332 333.192ZM207.858 333.192C206.338 333.192 205.154 332.808 204.306 332.04C203.458 331.256 203.034 330.096 203.034 328.56V317.232H206.778V328.512C206.778 329.056 206.922 329.48 207.21 329.784C207.498 330.072 207.89 330.216 208.386 330.216C208.978 330.216 209.482 330.056 209.898 329.736L210.906 332.376C210.522 332.648 210.058 332.856 209.514 333C208.986 333.128 208.434 333.192 207.858 333.192ZM201.042 323.256V320.376H209.994V323.256H201.042ZM221.768 333V330.48L221.528 329.928V325.416C221.528 324.616 221.28 323.992 220.784 323.544C220.304 323.096 219.56 322.872 218.552 322.872C217.864 322.872 217.184 322.984 216.512 323.208C215.856 323.416 215.296 323.704 214.832 324.072L213.488 321.456C214.192 320.96 215.04 320.576 216.032 320.304C217.024 320.032 218.032 319.896 219.056 319.896C221.024 319.896 222.552 320.36 223.64 321.288C224.728 322.216 225.272 323.664 225.272 325.632V333H221.768ZM217.832 333.192C216.824 333.192 215.96 333.024 215.24 332.688C214.52 332.336 213.968 331.864 213.584 331.272C213.2 330.68 213.008 330.016 213.008 329.28C213.008 328.512 213.192 327.84 213.56 327.264C213.944 326.688 214.544 326.24 215.36 325.92C216.176 325.584 217.24 325.416 218.552 325.416H221.984V327.6H218.96C218.08 327.6 217.472 327.744 217.136 328.032C216.816 328.32 216.656 328.68 216.656 329.112C216.656 329.592 216.84 329.976 217.208 330.264C217.592 330.536 218.112 330.672 218.768 330.672C219.392 330.672 219.952 330.528 220.448 330.24C220.944 329.936 221.304 329.496 221.528 328.92L222.104 330.648C221.832 331.48 221.336 332.112 220.616 332.544C219.896 332.976 218.968 333.192 217.832 333.192ZM237.348 319.896C238.372 319.896 239.284 320.104 240.084 320.52C240.9 320.92 241.54 321.544 242.004 322.392C242.468 323.224 242.7 324.296 242.7 325.608V333H238.956V326.184C238.956 325.144 238.724 324.376 238.26 323.88C237.812 323.384 237.172 323.136 236.34 323.136C235.748 323.136 235.212 323.264 234.732 323.52C234.268 323.76 233.9 324.136 233.628 324.648C233.372 325.16 233.244 325.816 233.244 326.616V333H229.5V320.088H233.076V323.664L232.404 322.584C232.868 321.72 233.532 321.056 234.396 320.592C235.26 320.128 236.244 319.896 237.348 319.896ZM252.214 333.192C250.694 333.192 249.51 332.808 248.662 332.04C247.814 331.256 247.39 330.096 247.39 328.56V317.232H251.134V328.512C251.134 329.056 251.278 329.48 251.566 329.784C251.854 330.072 252.246 330.216 252.742 330.216C253.334 330.216 253.838 330.056 254.254 329.736L255.262 332.376C254.878 332.648 254.414 332.856 253.87 333C253.342 333.128 252.79 333.192 252.214 333.192ZM245.398 323.256V320.376H254.35V323.256H245.398ZM258.204 333V315.192H261.948V333H258.204ZM267.894 337.848C267.222 337.848 266.558 337.744 265.902 337.536C265.246 337.328 264.71 337.04 264.294 336.672L265.662 334.008C265.95 334.264 266.278 334.464 266.646 334.608C267.03 334.752 267.406 334.824 267.774 334.824C268.302 334.824 268.718 334.696 269.022 334.44C269.342 334.2 269.63 333.792 269.886 333.216L270.558 331.632L270.846 331.224L275.478 320.088H279.078L273.246 333.792C272.83 334.832 272.35 335.648 271.806 336.24C271.278 336.832 270.686 337.248 270.03 337.488C269.39 337.728 268.678 337.848 267.894 337.848ZM270.102 333.504L264.342 320.088H268.206L272.67 330.888L270.102 333.504ZM282.089 333.192C281.449 333.192 280.897 332.976 280.433 332.544C279.985 332.096 279.761 331.528 279.761 330.84C279.761 330.152 279.985 329.6 280.433 329.184C280.897 328.752 281.449 328.536 282.089 328.536C282.745 328.536 283.297 328.752 283.745 329.184C284.193 329.6 284.417 330.152 284.417 330.84C284.417 331.528 284.193 332.096 283.745 332.544C283.297 332.976 282.745 333.192 282.089 333.192ZM286.63 323.16L288.214 317.4L288.742 319.584C288.054 319.584 287.486 319.384 287.038 318.984C286.606 318.568 286.39 318.008 286.39 317.304C286.39 316.616 286.614 316.064 287.062 315.648C287.51 315.216 288.062 315 288.718 315C289.39 315 289.942 315.216 290.374 315.648C290.806 316.064 291.022 316.616 291.022 317.304C291.022 317.512 291.006 317.72 290.974 317.928C290.958 318.12 290.902 318.352 290.806 318.624C290.726 318.896 290.59 319.256 290.398 319.704L289.006 323.16H286.63ZM292.294 323.16L293.878 317.4L294.406 319.584C293.718 319.584 293.15 319.384 292.702 318.984C292.27 318.568 292.054 318.008 292.054 317.304C292.054 316.616 292.278 316.064 292.726 315.648C293.174 315.216 293.726 315 294.382 315C295.054 315 295.606 315.216 296.038 315.648C296.47 316.064 296.686 316.616 296.686 317.304C296.686 317.512 296.67 317.72 296.638 317.928C296.622 318.12 296.566 318.352 296.47 318.624C296.39 318.896 296.254 319.256 296.062 319.704L294.67 323.16H292.294Z" fill="white"/>
<rect x="465" y="5" width="99" height="462" rx="49.5" transform="rotate(90 465 5)" fill="white"/>
<rect x="497.5" y="4.5" width="99" height="492" rx="49.5" transform="rotate(90 497.5 4.5)" stroke="white" stroke-width="9"/>
</svg>
