<svg width="86" height="86" viewBox="0 0 86 86" fill="none" xmlns="http://www.w3.org/2000/svg">
<path d="M51.1015 85.225C76.8508 81.6924 94.6074 44.4802 79.8985 20.0017C65.1897 -4.47676 64.3833 23.2353 66.419 29.5382C68.4548 35.841 73.766 49.7081 66.7495 48.6866C59.733 47.665 58.0609 30.5135 52.0798 19.8418C46.0987 9.17019 40.2204 -3.08338 33.0488 1.77443C25.8772 6.63224 27.529 21.0768 37.2591 38.4375C46.9893 55.7983 40.5798 59.3905 35.8779 58.0626C31.1759 56.7346 22.6577 40.6763 15.4203 34.8244C8.18289 28.9726 -2.40312 30.409 1.80127 41.4413C6.00566 52.4735 19.8766 89.4893 51.1015 85.225Z" fill="#B1E7FE"/>
</svg>
