<svg width="428" height="171" viewBox="0 0 428 171" fill="none" xmlns="http://www.w3.org/2000/svg">
<ellipse cx="38" cy="39" rx="38" ry="39" fill="#0D70FF"/>
<ellipse cx="38" cy="132" rx="38" ry="39" fill="#D9D9D9" fill-opacity="0.615686"/>
<ellipse cx="126" cy="39" rx="38" ry="39" fill="#0D70FF"/>
<ellipse cx="126" cy="132" rx="38" ry="39" fill="#D9D9D9" fill-opacity="0.615686"/>
<ellipse cx="214" cy="39" rx="38" ry="39" fill="#0D70FF"/>
<ellipse cx="214" cy="132" rx="38" ry="39" fill="#D9D9D9" fill-opacity="0.615686"/>
<ellipse cx="302" cy="39" rx="38" ry="39" fill="#0D70FF"/>
<ellipse cx="302" cy="132" rx="38" ry="39" fill="#D9D9D9" fill-opacity="0.615686"/>
<ellipse cx="390" cy="39" rx="38" ry="39" fill="#D9D9D9" fill-opacity="0.615686"/>
<ellipse cx="390" cy="132" rx="38" ry="39" fill="#D9D9D9" fill-opacity="0.615686"/>
<path d="M44.2537 44.9174C44.9559 43.861 46.5 40.4996 50 40.4994C53.4999 40.4993 54.5 43.4174 54.5 44.9174" stroke="black" stroke-width="5" stroke-linecap="round" stroke-linejoin="round"/>
<path d="M218.335 44.9174C219.037 43.861 220.581 40.4996 224.081 40.4994C227.581 40.4993 228.581 43.4174 228.581 44.9174" stroke="black" stroke-width="5" stroke-linecap="round" stroke-linejoin="round"/>
<path d="M106.254 44.9169C106.254 42.5 108.302 40.7302 111 40.4995C113.698 40.2688 116 41.5 117.381 43.9652" stroke="black" stroke-width="5" stroke-linecap="round" stroke-linejoin="round"/>
<path d="M285.341 44.9169C285.341 42.5 287.389 40.7302 290.087 40.4995C292.784 40.2688 295.087 41.5 296.468 43.9652" stroke="black" stroke-width="5" stroke-linecap="round" stroke-linejoin="round"/>
<ellipse cx="38" cy="28.5" rx="4" ry="5.5" fill="black"/>
<ellipse cx="101" cy="28.5" rx="4" ry="5.5" fill="black"/>
<ellipse cx="213" cy="28.5" rx="4" ry="5.5" fill="black"/>
<ellipse cx="280" cy="28.5" rx="4" ry="5.5" fill="black"/>
<ellipse cx="59" cy="28.5" rx="4" ry="5.5" fill="black"/>
<ellipse cx="122" cy="28.5" rx="4" ry="5.5" fill="black"/>
<ellipse cx="234" cy="28.5" rx="4" ry="5.5" fill="black"/>
<ellipse cx="301" cy="28.5" rx="4" ry="5.5" fill="black"/>
</svg>
