<svg width="559" height="660" viewBox="0 0 559 660" fill="none" xmlns="http://www.w3.org/2000/svg">
<path d="M28.776 505.09C23.3987 505.09 18.1303 504.327 12.971 502.801C7.88433 501.202 3.597 499.022 0.109 496.261L6.213 485.252C8.97433 487.505 12.317 489.321 16.241 490.702C20.165 492.083 24.2707 492.773 28.558 492.773C33.6447 492.773 37.605 491.756 40.439 489.721C43.273 487.614 44.69 484.78 44.69 481.219C44.69 477.731 43.382 474.97 40.766 472.935C38.15 470.9 33.9353 469.883 28.122 469.883H21.146V460.182L42.946 434.24L44.799 439.581H3.815V427.7H55.808V437.183L34.008 463.125L26.596 458.765H30.847C40.221 458.765 47.2333 460.872 51.884 465.087C56.6073 469.229 58.969 474.57 58.969 481.11C58.969 485.397 57.879 489.358 55.699 492.991C53.519 496.624 50.1763 499.567 45.671 501.82C41.2383 504 35.6067 505.09 28.776 505.09ZM77.5794 504.763C75.1087 504.763 73.0014 503.927 71.2574 502.256C69.5134 500.512 68.6414 498.332 68.6414 495.716C68.6414 492.955 69.5134 490.775 71.2574 489.176C73.0014 487.505 75.1087 486.669 77.5794 486.669C80.0501 486.669 82.1574 487.505 83.9014 489.176C85.6454 490.775 86.5174 492.955 86.5174 495.716C86.5174 498.332 85.6454 500.512 83.9014 502.256C82.1574 503.927 80.0501 504.763 77.5794 504.763ZM121.817 505.09C116.439 505.09 111.171 504.327 106.012 502.801C100.925 501.202 96.6377 499.022 93.1497 496.261L99.1447 485.252C101.906 487.505 105.249 489.321 109.173 490.702C113.169 492.083 117.311 492.773 121.599 492.773C126.613 492.773 130.537 491.719 133.371 489.612C136.277 487.505 137.731 484.671 137.731 481.11C137.731 478.712 137.113 476.605 135.878 474.788C134.715 472.971 132.608 471.591 129.556 470.646C126.576 469.701 122.471 469.229 117.239 469.229H98.8177L102.742 427.7H147.541V439.581H107.974L115.386 432.823L112.443 463.888L105.031 457.239H120.4C127.957 457.239 134.025 458.256 138.603 460.291C143.253 462.253 146.632 465.014 148.74 468.575C150.92 472.063 152.01 476.06 152.01 480.565C152.01 484.998 150.92 489.067 148.74 492.773C146.56 496.479 143.217 499.458 138.712 501.711C134.279 503.964 128.647 505.09 121.817 505.09ZM229.156 445.14C233.807 445.14 237.949 446.048 241.582 447.865C245.288 449.682 248.195 452.479 250.302 456.258C252.409 459.964 253.463 464.76 253.463 470.646V504H239.838V472.39C239.838 467.231 238.603 463.379 236.132 460.836C233.734 458.293 230.355 457.021 225.995 457.021C222.798 457.021 219.964 457.675 217.493 458.983C215.022 460.291 213.097 462.253 211.716 464.869C210.408 467.412 209.754 470.646 209.754 474.57V504H196.129V423.122H209.754V461.49L206.811 456.694C208.846 452.988 211.789 450.154 215.64 448.192C219.564 446.157 224.069 445.14 229.156 445.14ZM271.587 504V445.794H284.558V461.817L283.032 457.13C284.776 453.206 287.501 450.227 291.207 448.192C294.986 446.157 299.673 445.14 305.268 445.14V458.111C304.687 457.966 304.142 457.893 303.633 457.893C303.125 457.82 302.616 457.784 302.107 457.784C296.948 457.784 292.842 459.31 289.79 462.362C286.738 465.341 285.212 469.81 285.212 475.769V504H271.587ZM336.184 504.763C331.315 504.763 326.628 504.145 322.123 502.91C317.69 501.602 314.166 500.04 311.55 498.223L316.782 487.868C319.398 489.539 322.522 490.92 326.156 492.01C329.789 493.1 333.422 493.645 337.056 493.645C341.343 493.645 344.431 493.064 346.321 491.901C348.283 490.738 349.264 489.176 349.264 487.214C349.264 485.615 348.61 484.416 347.302 483.617C345.994 482.745 344.286 482.091 342.179 481.655C340.071 481.219 337.71 480.819 335.094 480.456C332.55 480.093 329.971 479.62 327.355 479.039C324.811 478.385 322.486 477.477 320.379 476.314C318.271 475.079 316.564 473.444 315.256 471.409C313.948 469.374 313.294 466.686 313.294 463.343C313.294 459.637 314.347 456.44 316.455 453.751C318.562 450.99 321.505 448.882 325.284 447.429C329.135 445.903 333.677 445.14 338.909 445.14C342.833 445.14 346.793 445.576 350.79 446.448C354.786 447.32 358.093 448.555 360.709 450.154L355.477 460.509C352.715 458.838 349.918 457.711 347.084 457.13C344.322 456.476 341.561 456.149 338.8 456.149C334.658 456.149 331.569 456.767 329.535 458.002C327.573 459.237 326.592 460.8 326.592 462.689C326.592 464.433 327.246 465.741 328.554 466.613C329.862 467.485 331.569 468.175 333.677 468.684C335.784 469.193 338.109 469.629 340.653 469.992C343.269 470.283 345.848 470.755 348.392 471.409C350.935 472.063 353.26 472.971 355.368 474.134C357.548 475.224 359.292 476.786 360.6 478.821C361.908 480.856 362.562 483.508 362.562 486.778C362.562 490.411 361.472 493.572 359.292 496.261C357.184 498.95 354.169 501.057 350.245 502.583C346.321 504.036 341.634 504.763 336.184 504.763ZM1.728 535V522.088H5.472V535H1.728ZM3.6 520.288C2.912 520.288 2.352 520.088 1.92 519.688C1.488 519.288 1.272 518.792 1.272 518.2C1.272 517.608 1.488 517.112 1.92 516.712C2.352 516.312 2.912 516.112 3.6 516.112C4.288 516.112 4.848 516.304 5.28 516.688C5.712 517.056 5.928 517.536 5.928 518.128C5.928 518.752 5.712 519.272 5.28 519.688C4.864 520.088 4.304 520.288 3.6 520.288ZM14.1308 535.192C13.0268 535.192 11.9628 535.064 10.9388 534.808C9.93075 534.536 9.13075 534.2 8.53875 533.8L9.78675 531.112C10.3788 531.48 11.0748 531.784 11.8748 532.024C12.6908 532.248 13.4908 532.36 14.2748 532.36C15.1388 532.36 15.7468 532.256 16.0988 532.048C16.4668 531.84 16.6508 531.552 16.6508 531.184C16.6508 530.88 16.5068 530.656 16.2188 530.512C15.9468 530.352 15.5788 530.232 15.1148 530.152C14.6508 530.072 14.1388 529.992 13.5788 529.912C13.0348 529.832 12.4828 529.728 11.9228 529.6C11.3628 529.456 10.8508 529.248 10.3868 528.976C9.92275 528.704 9.54675 528.336 9.25875 527.872C8.98675 527.408 8.85075 526.808 8.85075 526.072C8.85075 525.256 9.08275 524.536 9.54675 523.912C10.0268 523.288 10.7148 522.8 11.6108 522.448C12.5068 522.08 13.5788 521.896 14.8268 521.896C15.7068 521.896 16.6028 521.992 17.5148 522.184C18.4268 522.376 19.1868 522.656 19.7948 523.024L18.5468 525.688C17.9228 525.32 17.2908 525.072 16.6508 524.944C16.0268 524.8 15.4188 524.728 14.8268 524.728C13.9948 524.728 13.3868 524.84 13.0028 525.064C12.6188 525.288 12.4268 525.576 12.4268 525.928C12.4268 526.248 12.5628 526.488 12.8348 526.648C13.1228 526.808 13.4988 526.936 13.9628 527.032C14.4268 527.128 14.9308 527.216 15.4748 527.296C16.0348 527.36 16.5948 527.464 17.1548 527.608C17.7148 527.752 18.2188 527.96 18.6668 528.232C19.1308 528.488 19.5068 528.848 19.7948 529.312C20.0828 529.76 20.2268 530.352 20.2268 531.088C20.2268 531.888 19.9868 532.6 19.5068 533.224C19.0268 533.832 18.3308 534.312 17.4188 534.664C16.5228 535.016 15.4268 535.192 14.1308 535.192ZM36.2936 535.192C34.7736 535.192 33.5896 534.808 32.7416 534.04C31.8936 533.256 31.4696 532.096 31.4696 530.56V519.232H35.2136V530.512C35.2136 531.056 35.3576 531.48 35.6456 531.784C35.9336 532.072 36.3256 532.216 36.8216 532.216C37.4136 532.216 37.9176 532.056 38.3336 531.736L39.3416 534.376C38.9576 534.648 38.4936 534.856 37.9496 535C37.4216 535.128 36.8696 535.192 36.2936 535.192ZM29.4776 525.256V522.376H38.4296V525.256H29.4776ZM50.1313 521.896C51.1553 521.896 52.0673 522.104 52.8673 522.52C53.6833 522.92 54.3233 523.544 54.7873 524.392C55.2513 525.224 55.4833 526.296 55.4833 527.608V535H51.7393V528.184C51.7393 527.144 51.5073 526.376 51.0433 525.88C50.5953 525.384 49.9553 525.136 49.1233 525.136C48.5313 525.136 47.9953 525.264 47.5153 525.52C47.0513 525.76 46.6833 526.136 46.4113 526.648C46.1553 527.16 46.0273 527.816 46.0273 528.616V535H42.2833V517.192H46.0273V525.664L45.1873 524.584C45.6513 523.72 46.3153 523.056 47.1793 522.592C48.0433 522.128 49.0273 521.896 50.1313 521.896ZM66.2188 535.192C64.7468 535.192 63.4508 534.904 62.3308 534.328C61.2268 533.752 60.3708 532.968 59.7628 531.976C59.1548 530.968 58.8508 529.824 58.8508 528.544C58.8508 527.248 59.1468 526.104 59.7388 525.112C60.3468 524.104 61.1708 523.32 62.2108 522.76C63.2508 522.184 64.4268 521.896 65.7388 521.896C67.0028 521.896 68.1388 522.168 69.1468 522.712C70.1708 523.24 70.9788 524.008 71.5708 525.016C72.1628 526.008 72.4588 527.2 72.4588 528.592C72.4588 528.736 72.4508 528.904 72.4348 529.096C72.4188 529.272 72.4028 529.44 72.3868 529.6H61.8988V527.416H70.4188L68.9788 528.064C68.9788 527.392 68.8428 526.808 68.5708 526.312C68.2988 525.816 67.9228 525.432 67.4428 525.16C66.9628 524.872 66.4028 524.728 65.7628 524.728C65.1228 524.728 64.5548 524.872 64.0588 525.16C63.5788 525.432 63.2028 525.824 62.9308 526.336C62.6588 526.832 62.5228 527.424 62.5228 528.112V528.688C62.5228 529.392 62.6748 530.016 62.9788 530.56C63.2988 531.088 63.7388 531.496 64.2988 531.784C64.8748 532.056 65.5468 532.192 66.3148 532.192C67.0028 532.192 67.6028 532.088 68.1148 531.88C68.6428 531.672 69.1228 531.36 69.5548 530.944L71.5468 533.104C70.9548 533.776 70.2108 534.296 69.3148 534.664C68.4188 535.016 67.3868 535.192 66.2188 535.192ZM91.3483 535V532.48L91.1083 531.928V527.416C91.1083 526.616 90.8603 525.992 90.3643 525.544C89.8843 525.096 89.1403 524.872 88.1323 524.872C87.4443 524.872 86.7643 524.984 86.0923 525.208C85.4363 525.416 84.8763 525.704 84.4123 526.072L83.0683 523.456C83.7723 522.96 84.6203 522.576 85.6123 522.304C86.6043 522.032 87.6123 521.896 88.6363 521.896C90.6043 521.896 92.1323 522.36 93.2203 523.288C94.3083 524.216 94.8523 525.664 94.8523 527.632V535H91.3483ZM87.4123 535.192C86.4043 535.192 85.5403 535.024 84.8203 534.688C84.1003 534.336 83.5483 533.864 83.1643 533.272C82.7803 532.68 82.5883 532.016 82.5883 531.28C82.5883 530.512 82.7723 529.84 83.1403 529.264C83.5243 528.688 84.1243 528.24 84.9403 527.92C85.7563 527.584 86.8203 527.416 88.1323 527.416H91.5643V529.6H88.5403C87.6603 529.6 87.0523 529.744 86.7163 530.032C86.3963 530.32 86.2363 530.68 86.2363 531.112C86.2363 531.592 86.4203 531.976 86.7883 532.264C87.1723 532.536 87.6923 532.672 88.3483 532.672C88.9723 532.672 89.5323 532.528 90.0283 532.24C90.5243 531.936 90.8843 531.496 91.1083 530.92L91.6843 532.648C91.4123 533.48 90.9163 534.112 90.1963 534.544C89.4763 534.976 88.5483 535.192 87.4123 535.192ZM102.35 535L96.9264 522.088H100.79L105.302 533.2H103.382L108.062 522.088H111.662L106.214 535H102.35ZM120.087 535.192C118.615 535.192 117.319 534.904 116.199 534.328C115.095 533.752 114.239 532.968 113.631 531.976C113.023 530.968 112.719 529.824 112.719 528.544C112.719 527.248 113.015 526.104 113.607 525.112C114.215 524.104 115.039 523.32 116.079 522.76C117.119 522.184 118.295 521.896 119.607 521.896C120.871 521.896 122.007 522.168 123.015 522.712C124.039 523.24 124.847 524.008 125.439 525.016C126.031 526.008 126.327 527.2 126.327 528.592C126.327 528.736 126.319 528.904 126.303 529.096C126.287 529.272 126.271 529.44 126.255 529.6H115.767V527.416H124.287L122.847 528.064C122.847 527.392 122.711 526.808 122.439 526.312C122.167 525.816 121.791 525.432 121.311 525.16C120.831 524.872 120.271 524.728 119.631 524.728C118.991 524.728 118.423 524.872 117.927 525.16C117.447 525.432 117.071 525.824 116.799 526.336C116.527 526.832 116.391 527.424 116.391 528.112V528.688C116.391 529.392 116.543 530.016 116.847 530.56C117.167 531.088 117.607 531.496 118.167 531.784C118.743 532.056 119.415 532.192 120.183 532.192C120.871 532.192 121.471 532.088 121.983 531.88C122.511 531.672 122.991 531.36 123.423 530.944L125.415 533.104C124.823 533.776 124.079 534.296 123.183 534.664C122.287 535.016 121.255 535.192 120.087 535.192ZM129.659 535V522.088H133.235V525.736L132.731 524.68C133.115 523.768 133.731 523.08 134.579 522.616C135.427 522.136 136.459 521.896 137.675 521.896V525.352C137.515 525.336 137.371 525.328 137.243 525.328C137.115 525.312 136.979 525.304 136.835 525.304C135.811 525.304 134.979 525.6 134.339 526.192C133.715 526.768 133.403 527.672 133.403 528.904V535H129.659ZM147.818 535V532.48L147.578 531.928V527.416C147.578 526.616 147.33 525.992 146.834 525.544C146.354 525.096 145.61 524.872 144.602 524.872C143.914 524.872 143.234 524.984 142.562 525.208C141.906 525.416 141.346 525.704 140.882 526.072L139.538 523.456C140.242 522.96 141.09 522.576 142.082 522.304C143.074 522.032 144.082 521.896 145.106 521.896C147.074 521.896 148.602 522.36 149.69 523.288C150.778 524.216 151.322 525.664 151.322 527.632V535H147.818ZM143.882 535.192C142.874 535.192 142.01 535.024 141.29 534.688C140.57 534.336 140.018 533.864 139.634 533.272C139.25 532.68 139.058 532.016 139.058 531.28C139.058 530.512 139.242 529.84 139.61 529.264C139.994 528.688 140.594 528.24 141.41 527.92C142.226 527.584 143.29 527.416 144.602 527.416H148.034V529.6H145.01C144.13 529.6 143.522 529.744 143.186 530.032C142.866 530.32 142.706 530.68 142.706 531.112C142.706 531.592 142.89 531.976 143.258 532.264C143.642 532.536 144.162 532.672 144.818 532.672C145.442 532.672 146.002 532.528 146.498 532.24C146.994 531.936 147.354 531.496 147.578 530.92L148.154 532.648C147.882 533.48 147.386 534.112 146.666 534.544C145.946 534.976 145.018 535.192 143.882 535.192ZM161.716 539.848C160.5 539.848 159.324 539.696 158.188 539.392C157.068 539.104 156.132 538.664 155.38 538.072L156.868 535.384C157.412 535.832 158.1 536.184 158.932 536.44C159.78 536.712 160.612 536.848 161.428 536.848C162.756 536.848 163.716 536.552 164.308 535.96C164.916 535.368 165.22 534.488 165.22 533.32V531.376L165.46 528.136L165.412 524.872V522.088H168.964V532.84C168.964 535.24 168.34 537.008 167.092 538.144C165.844 539.28 164.052 539.848 161.716 539.848ZM161.14 534.376C159.94 534.376 158.852 534.12 157.876 533.608C156.916 533.08 156.14 532.352 155.548 531.424C154.972 530.48 154.684 529.384 154.684 528.136C154.684 526.872 154.972 525.776 155.548 524.848C156.14 523.904 156.916 523.176 157.876 522.664C158.852 522.152 159.94 521.896 161.14 521.896C162.228 521.896 163.188 522.12 164.02 522.568C164.852 523 165.5 523.68 165.964 524.608C166.428 525.52 166.66 526.696 166.66 528.136C166.66 529.56 166.428 530.736 165.964 531.664C165.5 532.576 164.852 533.256 164.02 533.704C163.188 534.152 162.228 534.376 161.14 534.376ZM161.884 531.304C162.54 531.304 163.124 531.176 163.636 530.92C164.148 530.648 164.548 530.272 164.836 529.792C165.124 529.312 165.268 528.76 165.268 528.136C165.268 527.496 165.124 526.944 164.836 526.48C164.548 526 164.148 525.632 163.636 525.376C163.124 525.104 162.54 524.968 161.884 524.968C161.228 524.968 160.644 525.104 160.132 525.376C159.62 525.632 159.212 526 158.908 526.48C158.62 526.944 158.476 527.496 158.476 528.136C158.476 528.76 158.62 529.312 158.908 529.792C159.212 530.272 159.62 530.648 160.132 530.92C160.644 531.176 161.228 531.304 161.884 531.304ZM179.697 535.192C178.225 535.192 176.929 534.904 175.809 534.328C174.705 533.752 173.849 532.968 173.241 531.976C172.633 530.968 172.329 529.824 172.329 528.544C172.329 527.248 172.625 526.104 173.217 525.112C173.825 524.104 174.649 523.32 175.689 522.76C176.729 522.184 177.905 521.896 179.217 521.896C180.481 521.896 181.617 522.168 182.625 522.712C183.649 523.24 184.457 524.008 185.049 525.016C185.641 526.008 185.937 527.2 185.937 528.592C185.937 528.736 185.929 528.904 185.913 529.096C185.897 529.272 185.881 529.44 185.865 529.6H175.377V527.416H183.897L182.457 528.064C182.457 527.392 182.321 526.808 182.049 526.312C181.777 525.816 181.401 525.432 180.921 525.16C180.441 524.872 179.881 524.728 179.241 524.728C178.601 524.728 178.033 524.872 177.537 525.16C177.057 525.432 176.681 525.824 176.409 526.336C176.137 526.832 176.001 527.424 176.001 528.112V528.688C176.001 529.392 176.153 530.016 176.457 530.56C176.777 531.088 177.217 531.496 177.777 531.784C178.353 532.056 179.025 532.192 179.793 532.192C180.481 532.192 181.081 532.088 181.593 531.88C182.121 531.672 182.601 531.36 183.033 530.944L185.025 533.104C184.433 533.776 183.689 534.296 182.793 534.664C181.897 535.016 180.865 535.192 179.697 535.192ZM202.45 535.192C201.234 535.192 200.138 534.92 199.162 534.376C198.186 533.816 197.41 533.04 196.834 532.048C196.274 531.056 195.994 529.888 195.994 528.544C195.994 527.184 196.274 526.008 196.834 525.016C197.41 524.024 198.186 523.256 199.162 522.712C200.138 522.168 201.234 521.896 202.45 521.896C203.538 521.896 204.49 522.136 205.306 522.616C206.122 523.096 206.754 523.824 207.202 524.8C207.65 525.776 207.874 527.024 207.874 528.544C207.874 530.048 207.658 531.296 207.226 532.288C206.794 533.264 206.17 533.992 205.354 534.472C204.554 534.952 203.586 535.192 202.45 535.192ZM203.098 532.12C203.706 532.12 204.258 531.976 204.754 531.688C205.25 531.4 205.642 530.992 205.93 530.464C206.234 529.92 206.386 529.28 206.386 528.544C206.386 527.792 206.234 527.152 205.93 526.624C205.642 526.096 205.25 525.688 204.754 525.4C204.258 525.112 203.706 524.968 203.098 524.968C202.474 524.968 201.914 525.112 201.418 525.4C200.922 525.688 200.522 526.096 200.218 526.624C199.93 527.152 199.786 527.792 199.786 528.544C199.786 529.28 199.93 529.92 200.218 530.464C200.522 530.992 200.922 531.4 201.418 531.688C201.914 531.976 202.474 532.12 203.098 532.12ZM206.482 535V532.36L206.554 528.52L206.314 524.704V517.192H210.058V535H206.482ZM222.283 535V532.48L222.043 531.928V527.416C222.043 526.616 221.795 525.992 221.299 525.544C220.819 525.096 220.075 524.872 219.067 524.872C218.379 524.872 217.699 524.984 217.027 525.208C216.371 525.416 215.811 525.704 215.347 526.072L214.003 523.456C214.707 522.96 215.555 522.576 216.547 522.304C217.539 522.032 218.547 521.896 219.571 521.896C221.539 521.896 223.067 522.36 224.155 523.288C225.243 524.216 225.787 525.664 225.787 527.632V535H222.283ZM218.347 535.192C217.339 535.192 216.475 535.024 215.755 534.688C215.035 534.336 214.483 533.864 214.099 533.272C213.715 532.68 213.523 532.016 213.523 531.28C213.523 530.512 213.707 529.84 214.075 529.264C214.459 528.688 215.059 528.24 215.875 527.92C216.691 527.584 217.755 527.416 219.067 527.416H222.499V529.6H219.475C218.595 529.6 217.987 529.744 217.651 530.032C217.331 530.32 217.171 530.68 217.171 531.112C217.171 531.592 217.355 531.976 217.723 532.264C218.107 532.536 218.627 532.672 219.283 532.672C219.907 532.672 220.467 532.528 220.963 532.24C221.459 531.936 221.819 531.496 222.043 530.92L222.619 532.648C222.347 533.48 221.851 534.112 221.131 534.544C220.411 534.976 219.483 535.192 218.347 535.192ZM230.016 535V522.088H233.76V535H230.016ZM231.888 520.288C231.2 520.288 230.64 520.088 230.208 519.688C229.776 519.288 229.56 518.792 229.56 518.2C229.56 517.608 229.776 517.112 230.208 516.712C230.64 516.312 231.2 516.112 231.888 516.112C232.576 516.112 233.136 516.304 233.568 516.688C234 517.056 234.216 517.536 234.216 518.128C234.216 518.752 234 519.272 233.568 519.688C233.152 520.088 232.592 520.288 231.888 520.288ZM238.075 535V517.192H241.819V535H238.075ZM247.765 539.848C247.093 539.848 246.429 539.744 245.773 539.536C245.117 539.328 244.581 539.04 244.165 538.672L245.533 536.008C245.821 536.264 246.149 536.464 246.517 536.608C246.901 536.752 247.277 536.824 247.645 536.824C248.173 536.824 248.589 536.696 248.893 536.44C249.213 536.2 249.501 535.792 249.757 535.216L250.429 533.632L250.717 533.224L255.349 522.088H258.949L253.117 535.792C252.701 536.832 252.221 537.648 251.677 538.24C251.149 538.832 250.557 539.248 249.901 539.488C249.261 539.728 248.549 539.848 247.765 539.848ZM249.973 535.504L244.213 522.088H248.077L252.541 532.888L249.973 535.504ZM274.234 535.192C272.714 535.192 271.53 534.808 270.682 534.04C269.834 533.256 269.41 532.096 269.41 530.56V519.232H273.154V530.512C273.154 531.056 273.298 531.48 273.586 531.784C273.874 532.072 274.266 532.216 274.762 532.216C275.354 532.216 275.858 532.056 276.274 531.736L277.282 534.376C276.898 534.648 276.434 534.856 275.89 535C275.362 535.128 274.81 535.192 274.234 535.192ZM267.418 525.256V522.376H276.37V525.256H267.418ZM280.224 535V522.088H283.968V535H280.224ZM282.096 520.288C281.408 520.288 280.848 520.088 280.416 519.688C279.984 519.288 279.768 518.792 279.768 518.2C279.768 517.608 279.984 517.112 280.416 516.712C280.848 516.312 281.408 516.112 282.096 516.112C282.784 516.112 283.344 516.304 283.776 516.688C284.208 517.056 284.424 517.536 284.424 518.128C284.424 518.752 284.208 519.272 283.776 519.688C283.36 520.088 282.8 520.288 282.096 520.288ZM304.818 521.896C305.842 521.896 306.746 522.104 307.53 522.52C308.33 522.92 308.954 523.544 309.402 524.392C309.866 525.224 310.098 526.296 310.098 527.608V535H306.354V528.184C306.354 527.144 306.138 526.376 305.706 525.88C305.274 525.384 304.666 525.136 303.882 525.136C303.338 525.136 302.85 525.264 302.418 525.52C301.986 525.76 301.65 526.128 301.41 526.624C301.17 527.12 301.05 527.752 301.05 528.52V535H297.306V528.184C297.306 527.144 297.09 526.376 296.658 525.88C296.242 525.384 295.642 525.136 294.858 525.136C294.314 525.136 293.826 525.264 293.394 525.52C292.962 525.76 292.626 526.128 292.386 526.624C292.146 527.12 292.026 527.752 292.026 528.52V535H288.282V522.088H291.858V525.616L291.186 524.584C291.634 523.704 292.266 523.04 293.082 522.592C293.914 522.128 294.858 521.896 295.914 521.896C297.098 521.896 298.13 522.2 299.01 522.808C299.906 523.4 300.498 524.312 300.786 525.544L299.466 525.184C299.898 524.176 300.586 523.376 301.53 522.784C302.49 522.192 303.586 521.896 304.818 521.896ZM320.796 535.192C319.324 535.192 318.028 534.904 316.908 534.328C315.804 533.752 314.948 532.968 314.34 531.976C313.732 530.968 313.428 529.824 313.428 528.544C313.428 527.248 313.724 526.104 314.316 525.112C314.924 524.104 315.748 523.32 316.788 522.76C317.828 522.184 319.004 521.896 320.316 521.896C321.58 521.896 322.716 522.168 323.724 522.712C324.748 523.24 325.556 524.008 326.148 525.016C326.74 526.008 327.036 527.2 327.036 528.592C327.036 528.736 327.028 528.904 327.012 529.096C326.996 529.272 326.98 529.44 326.964 529.6H316.476V527.416H324.996L323.556 528.064C323.556 527.392 323.42 526.808 323.148 526.312C322.876 525.816 322.5 525.432 322.02 525.16C321.54 524.872 320.98 524.728 320.34 524.728C319.7 524.728 319.132 524.872 318.636 525.16C318.156 525.432 317.78 525.824 317.508 526.336C317.236 526.832 317.1 527.424 317.1 528.112V528.688C317.1 529.392 317.252 530.016 317.556 530.56C317.876 531.088 318.316 531.496 318.876 531.784C319.452 532.056 320.124 532.192 320.892 532.192C321.58 532.192 322.18 532.088 322.692 531.88C323.22 531.672 323.7 531.36 324.132 530.944L326.124 533.104C325.532 533.776 324.788 534.296 323.892 534.664C322.996 535.016 321.964 535.192 320.796 535.192ZM342.349 535.192C341.245 535.192 340.181 535.064 339.157 534.808C338.149 534.536 337.349 534.2 336.757 533.8L338.005 531.112C338.597 531.48 339.293 531.784 340.093 532.024C340.909 532.248 341.709 532.36 342.493 532.36C343.357 532.36 343.965 532.256 344.317 532.048C344.685 531.84 344.869 531.552 344.869 531.184C344.869 530.88 344.725 530.656 344.437 530.512C344.165 530.352 343.797 530.232 343.333 530.152C342.869 530.072 342.357 529.992 341.797 529.912C341.253 529.832 340.701 529.728 340.141 529.6C339.581 529.456 339.069 529.248 338.605 528.976C338.141 528.704 337.765 528.336 337.477 527.872C337.205 527.408 337.069 526.808 337.069 526.072C337.069 525.256 337.301 524.536 337.765 523.912C338.245 523.288 338.933 522.8 339.829 522.448C340.725 522.08 341.797 521.896 343.045 521.896C343.925 521.896 344.821 521.992 345.733 522.184C346.645 522.376 347.405 522.656 348.013 523.024L346.765 525.688C346.141 525.32 345.509 525.072 344.869 524.944C344.245 524.8 343.637 524.728 343.045 524.728C342.213 524.728 341.605 524.84 341.221 525.064C340.837 525.288 340.645 525.576 340.645 525.928C340.645 526.248 340.781 526.488 341.053 526.648C341.341 526.808 341.717 526.936 342.181 527.032C342.645 527.128 343.149 527.216 343.693 527.296C344.253 527.36 344.813 527.464 345.373 527.608C345.933 527.752 346.437 527.96 346.885 528.232C347.349 528.488 347.725 528.848 348.013 529.312C348.301 529.76 348.445 530.352 348.445 531.088C348.445 531.888 348.205 532.6 347.725 533.224C347.245 533.832 346.549 534.312 345.637 534.664C344.741 535.016 343.645 535.192 342.349 535.192ZM359.227 535.192C358.139 535.192 357.187 534.952 356.371 534.472C355.555 533.992 354.915 533.264 354.451 532.288C354.003 531.296 353.779 530.048 353.779 528.544C353.779 527.024 353.995 525.776 354.427 524.8C354.859 523.824 355.483 523.096 356.299 522.616C357.115 522.136 358.091 521.896 359.227 521.896C360.443 521.896 361.531 522.176 362.491 522.736C363.467 523.28 364.235 524.048 364.795 525.04C365.371 526.032 365.659 527.2 365.659 528.544C365.659 529.904 365.371 531.08 364.795 532.072C364.235 533.064 363.467 533.832 362.491 534.376C361.531 534.92 360.443 535.192 359.227 535.192ZM351.595 539.656V522.088H355.171V524.728L355.099 528.568L355.339 532.384V539.656H351.595ZM358.579 532.12C359.203 532.12 359.755 531.976 360.235 531.688C360.731 531.4 361.123 530.992 361.411 530.464C361.715 529.92 361.867 529.28 361.867 528.544C361.867 527.792 361.715 527.152 361.411 526.624C361.123 526.096 360.731 525.688 360.235 525.4C359.755 525.112 359.203 524.968 358.579 524.968C357.955 524.968 357.395 525.112 356.899 525.4C356.403 525.688 356.011 526.096 355.723 526.624C355.435 527.152 355.291 527.792 355.291 528.544C355.291 529.28 355.435 529.92 355.723 530.464C356.011 530.992 356.403 531.4 356.899 531.688C357.395 531.976 357.955 532.12 358.579 532.12ZM375.414 535.192C373.942 535.192 372.646 534.904 371.526 534.328C370.422 533.752 369.566 532.968 368.958 531.976C368.35 530.968 368.046 529.824 368.046 528.544C368.046 527.248 368.342 526.104 368.934 525.112C369.542 524.104 370.366 523.32 371.406 522.76C372.446 522.184 373.622 521.896 374.934 521.896C376.198 521.896 377.334 522.168 378.342 522.712C379.366 523.24 380.174 524.008 380.766 525.016C381.358 526.008 381.654 527.2 381.654 528.592C381.654 528.736 381.646 528.904 381.63 529.096C381.614 529.272 381.598 529.44 381.582 529.6H371.094V527.416H379.614L378.174 528.064C378.174 527.392 378.038 526.808 377.766 526.312C377.494 525.816 377.118 525.432 376.638 525.16C376.158 524.872 375.598 524.728 374.958 524.728C374.318 524.728 373.75 524.872 373.254 525.16C372.774 525.432 372.398 525.824 372.126 526.336C371.854 526.832 371.718 527.424 371.718 528.112V528.688C371.718 529.392 371.87 530.016 372.174 530.56C372.494 531.088 372.934 531.496 373.494 531.784C374.07 532.056 374.742 532.192 375.51 532.192C376.198 532.192 376.798 532.088 377.31 531.88C377.838 531.672 378.318 531.36 378.75 530.944L380.742 533.104C380.15 533.776 379.406 534.296 378.51 534.664C377.614 535.016 376.582 535.192 375.414 535.192ZM392.834 521.896C393.858 521.896 394.77 522.104 395.57 522.52C396.386 522.92 397.026 523.544 397.49 524.392C397.954 525.224 398.186 526.296 398.186 527.608V535H394.442V528.184C394.442 527.144 394.21 526.376 393.746 525.88C393.298 525.384 392.658 525.136 391.826 525.136C391.234 525.136 390.698 525.264 390.218 525.52C389.754 525.76 389.386 526.136 389.114 526.648C388.858 527.16 388.73 527.816 388.73 528.616V535H384.986V522.088H388.562V525.664L387.89 524.584C388.354 523.72 389.018 523.056 389.882 522.592C390.746 522.128 391.73 521.896 392.834 521.896ZM407.7 535.192C406.18 535.192 404.996 534.808 404.148 534.04C403.3 533.256 402.876 532.096 402.876 530.56V519.232H406.62V530.512C406.62 531.056 406.764 531.48 407.052 531.784C407.34 532.072 407.732 532.216 408.228 532.216C408.82 532.216 409.324 532.056 409.74 531.736L410.748 534.376C410.364 534.648 409.9 534.856 409.356 535C408.828 535.128 408.276 535.192 407.7 535.192ZM400.884 525.256V522.376H409.836V525.256H400.884ZM427.471 535.192C426.095 535.192 424.871 534.904 423.799 534.328C422.743 533.752 421.903 532.968 421.279 531.976C420.671 530.968 420.367 529.824 420.367 528.544C420.367 527.248 420.671 526.104 421.279 525.112C421.903 524.104 422.743 523.32 423.799 522.76C424.871 522.184 426.095 521.896 427.471 521.896C428.831 521.896 430.047 522.184 431.119 522.76C432.191 523.32 433.031 524.096 433.639 525.088C434.247 526.08 434.551 527.232 434.551 528.544C434.551 529.824 434.247 530.968 433.639 531.976C433.031 532.968 432.191 533.752 431.119 534.328C430.047 534.904 428.831 535.192 427.471 535.192ZM427.471 532.12C428.095 532.12 428.655 531.976 429.151 531.688C429.647 531.4 430.039 530.992 430.327 530.464C430.615 529.92 430.759 529.28 430.759 528.544C430.759 527.792 430.615 527.152 430.327 526.624C430.039 526.096 429.647 525.688 429.151 525.4C428.655 525.112 428.095 524.968 427.471 524.968C426.847 524.968 426.287 525.112 425.791 525.4C425.295 525.688 424.895 526.096 424.591 526.624C424.303 527.152 424.159 527.792 424.159 528.544C424.159 529.28 424.303 529.92 424.591 530.464C424.895 530.992 425.295 531.4 425.791 531.688C426.287 531.976 426.847 532.12 427.471 532.12ZM445.741 521.896C446.765 521.896 447.677 522.104 448.477 522.52C449.293 522.92 449.933 523.544 450.397 524.392C450.861 525.224 451.093 526.296 451.093 527.608V535H447.349V528.184C447.349 527.144 447.117 526.376 446.653 525.88C446.205 525.384 445.565 525.136 444.733 525.136C444.141 525.136 443.605 525.264 443.125 525.52C442.661 525.76 442.293 526.136 442.021 526.648C441.765 527.16 441.637 527.816 441.637 528.616V535H437.893V522.088H441.469V525.664L440.797 524.584C441.261 523.72 441.925 523.056 442.789 522.592C443.653 522.128 444.637 521.896 445.741 521.896ZM467.308 535.192C466.204 535.192 465.14 535.064 464.116 534.808C463.108 534.536 462.308 534.2 461.716 533.8L462.964 531.112C463.556 531.48 464.252 531.784 465.052 532.024C465.868 532.248 466.668 532.36 467.452 532.36C468.316 532.36 468.924 532.256 469.276 532.048C469.644 531.84 469.828 531.552 469.828 531.184C469.828 530.88 469.684 530.656 469.396 530.512C469.124 530.352 468.756 530.232 468.292 530.152C467.828 530.072 467.316 529.992 466.756 529.912C466.212 529.832 465.66 529.728 465.1 529.6C464.54 529.456 464.028 529.248 463.564 528.976C463.1 528.704 462.724 528.336 462.436 527.872C462.164 527.408 462.028 526.808 462.028 526.072C462.028 525.256 462.26 524.536 462.724 523.912C463.204 523.288 463.892 522.8 464.788 522.448C465.684 522.08 466.756 521.896 468.004 521.896C468.884 521.896 469.78 521.992 470.692 522.184C471.604 522.376 472.364 522.656 472.972 523.024L471.724 525.688C471.1 525.32 470.468 525.072 469.828 524.944C469.204 524.8 468.596 524.728 468.004 524.728C467.172 524.728 466.564 524.84 466.18 525.064C465.796 525.288 465.604 525.576 465.604 525.928C465.604 526.248 465.74 526.488 466.012 526.648C466.3 526.808 466.676 526.936 467.14 527.032C467.604 527.128 468.108 527.216 468.652 527.296C469.212 527.36 469.772 527.464 470.332 527.608C470.892 527.752 471.396 527.96 471.844 528.232C472.308 528.488 472.684 528.848 472.972 529.312C473.26 529.76 473.404 530.352 473.404 531.088C473.404 531.888 473.164 532.6 472.684 533.224C472.204 533.832 471.508 534.312 470.596 534.664C469.7 535.016 468.604 535.192 467.308 535.192ZM482.698 535.192C481.322 535.192 480.098 534.904 479.026 534.328C477.97 533.752 477.13 532.968 476.506 531.976C475.898 530.968 475.594 529.824 475.594 528.544C475.594 527.248 475.898 526.104 476.506 525.112C477.13 524.104 477.97 523.32 479.026 522.76C480.098 522.184 481.322 521.896 482.698 521.896C484.058 521.896 485.274 522.184 486.346 522.76C487.418 523.32 488.258 524.096 488.866 525.088C489.474 526.08 489.778 527.232 489.778 528.544C489.778 529.824 489.474 530.968 488.866 531.976C488.258 532.968 487.418 533.752 486.346 534.328C485.274 534.904 484.058 535.192 482.698 535.192ZM482.698 532.12C483.322 532.12 483.882 531.976 484.378 531.688C484.874 531.4 485.266 530.992 485.554 530.464C485.842 529.92 485.986 529.28 485.986 528.544C485.986 527.792 485.842 527.152 485.554 526.624C485.266 526.096 484.874 525.688 484.378 525.4C483.882 525.112 483.322 524.968 482.698 524.968C482.074 524.968 481.514 525.112 481.018 525.4C480.522 525.688 480.122 526.096 479.818 526.624C479.53 527.152 479.386 527.792 479.386 528.544C479.386 529.28 479.53 529.92 479.818 530.464C480.122 530.992 480.522 531.4 481.018 531.688C481.514 531.976 482.074 532.12 482.698 532.12ZM499.36 535.192C497.968 535.192 496.728 534.912 495.64 534.352C494.552 533.776 493.696 532.984 493.072 531.976C492.464 530.968 492.16 529.824 492.16 528.544C492.16 527.248 492.464 526.104 493.072 525.112C493.696 524.104 494.552 523.32 495.64 522.76C496.728 522.184 497.968 521.896 499.36 521.896C500.72 521.896 501.904 522.184 502.912 522.76C503.92 523.32 504.664 524.128 505.144 525.184L502.24 526.744C501.904 526.136 501.48 525.688 500.968 525.4C500.472 525.112 499.928 524.968 499.336 524.968C498.696 524.968 498.12 525.112 497.608 525.4C497.096 525.688 496.688 526.096 496.384 526.624C496.096 527.152 495.952 527.792 495.952 528.544C495.952 529.296 496.096 529.936 496.384 530.464C496.688 530.992 497.096 531.4 497.608 531.688C498.12 531.976 498.696 532.12 499.336 532.12C499.928 532.12 500.472 531.984 500.968 531.712C501.48 531.424 501.904 530.968 502.24 530.344L505.144 531.928C504.664 532.968 503.92 533.776 502.912 534.352C501.904 534.912 500.72 535.192 499.36 535.192ZM508.07 535V522.088H511.814V535H508.07ZM509.942 520.288C509.254 520.288 508.694 520.088 508.262 519.688C507.83 519.288 507.614 518.792 507.614 518.2C507.614 517.608 507.83 517.112 508.262 516.712C508.694 516.312 509.254 516.112 509.942 516.112C510.63 516.112 511.19 516.304 511.622 516.688C512.054 517.056 512.27 517.536 512.27 518.128C512.27 518.752 512.054 519.272 511.622 519.688C511.206 520.088 510.646 520.288 509.942 520.288ZM524.049 535V532.48L523.809 531.928V527.416C523.809 526.616 523.561 525.992 523.065 525.544C522.585 525.096 521.841 524.872 520.833 524.872C520.145 524.872 519.465 524.984 518.793 525.208C518.137 525.416 517.577 525.704 517.113 526.072L515.769 523.456C516.473 522.96 517.321 522.576 518.313 522.304C519.305 522.032 520.313 521.896 521.337 521.896C523.305 521.896 524.833 522.36 525.921 523.288C527.009 524.216 527.553 525.664 527.553 527.632V535H524.049ZM520.113 535.192C519.105 535.192 518.241 535.024 517.521 534.688C516.801 534.336 516.249 533.864 515.865 533.272C515.481 532.68 515.289 532.016 515.289 531.28C515.289 530.512 515.473 529.84 515.841 529.264C516.225 528.688 516.825 528.24 517.641 527.92C518.457 527.584 519.521 527.416 520.833 527.416H524.265V529.6H521.241C520.361 529.6 519.753 529.744 519.417 530.032C519.097 530.32 518.937 530.68 518.937 531.112C518.937 531.592 519.121 531.976 519.489 532.264C519.873 532.536 520.393 532.672 521.049 532.672C521.673 532.672 522.233 532.528 522.729 532.24C523.225 531.936 523.585 531.496 523.809 530.92L524.385 532.648C524.113 533.48 523.617 534.112 522.897 534.544C522.177 534.976 521.249 535.192 520.113 535.192ZM531.781 535V517.192H535.525V535H531.781ZM18.264 552.896C19.288 552.896 20.192 553.104 20.976 553.52C21.776 553.92 22.4 554.544 22.848 555.392C23.312 556.224 23.544 557.296 23.544 558.608V566H19.8V559.184C19.8 558.144 19.584 557.376 19.152 556.88C18.72 556.384 18.112 556.136 17.328 556.136C16.784 556.136 16.296 556.264 15.864 556.52C15.432 556.76 15.096 557.128 14.856 557.624C14.616 558.12 14.496 558.752 14.496 559.52V566H10.752V559.184C10.752 558.144 10.536 557.376 10.104 556.88C9.688 556.384 9.088 556.136 8.304 556.136C7.76 556.136 7.272 556.264 6.84 556.52C6.408 556.76 6.072 557.128 5.832 557.624C5.592 558.12 5.472 558.752 5.472 559.52V566H1.728V553.088H5.304V556.616L4.632 555.584C5.08 554.704 5.712 554.04 6.528 553.592C7.36 553.128 8.304 552.896 9.36 552.896C10.544 552.896 11.576 553.2 12.456 553.808C13.352 554.4 13.944 555.312 14.232 556.544L12.912 556.184C13.344 555.176 14.032 554.376 14.976 553.784C15.936 553.192 17.032 552.896 18.264 552.896ZM34.2416 566.192C32.7696 566.192 31.4736 565.904 30.3536 565.328C29.2496 564.752 28.3936 563.968 27.7856 562.976C27.1776 561.968 26.8736 560.824 26.8736 559.544C26.8736 558.248 27.1696 557.104 27.7616 556.112C28.3696 555.104 29.1936 554.32 30.2336 553.76C31.2736 553.184 32.4496 552.896 33.7616 552.896C35.0256 552.896 36.1616 553.168 37.1696 553.712C38.1936 554.24 39.0016 555.008 39.5936 556.016C40.1856 557.008 40.4816 558.2 40.4816 559.592C40.4816 559.736 40.4736 559.904 40.4576 560.096C40.4416 560.272 40.4256 560.44 40.4096 560.6H29.9216V558.416H38.4416L37.0016 559.064C37.0016 558.392 36.8656 557.808 36.5936 557.312C36.3216 556.816 35.9456 556.432 35.4656 556.16C34.9856 555.872 34.4256 555.728 33.7856 555.728C33.1456 555.728 32.5776 555.872 32.0816 556.16C31.6016 556.432 31.2256 556.824 30.9536 557.336C30.6816 557.832 30.5456 558.424 30.5456 559.112V559.688C30.5456 560.392 30.6976 561.016 31.0016 561.56C31.3216 562.088 31.7616 562.496 32.3216 562.784C32.8976 563.056 33.5696 563.192 34.3376 563.192C35.0256 563.192 35.6256 563.088 36.1376 562.88C36.6656 562.672 37.1456 562.36 37.5776 561.944L39.5696 564.104C38.9776 564.776 38.2336 565.296 37.3376 565.664C36.4416 566.016 35.4096 566.192 34.2416 566.192ZM49.3583 566.192C48.1423 566.192 47.0463 565.92 46.0703 565.376C45.0943 564.816 44.3183 564.04 43.7423 563.048C43.1823 562.056 42.9023 560.888 42.9023 559.544C42.9023 558.184 43.1823 557.008 43.7423 556.016C44.3183 555.024 45.0943 554.256 46.0703 553.712C47.0463 553.168 48.1423 552.896 49.3583 552.896C50.4463 552.896 51.3983 553.136 52.2143 553.616C53.0303 554.096 53.6623 554.824 54.1103 555.8C54.5583 556.776 54.7823 558.024 54.7823 559.544C54.7823 561.048 54.5663 562.296 54.1343 563.288C53.7023 564.264 53.0783 564.992 52.2623 565.472C51.4623 565.952 50.4943 566.192 49.3583 566.192ZM50.0063 563.12C50.6143 563.12 51.1663 562.976 51.6623 562.688C52.1583 562.4 52.5503 561.992 52.8383 561.464C53.1423 560.92 53.2943 560.28 53.2943 559.544C53.2943 558.792 53.1423 558.152 52.8383 557.624C52.5503 557.096 52.1583 556.688 51.6623 556.4C51.1663 556.112 50.6143 555.968 50.0063 555.968C49.3823 555.968 48.8223 556.112 48.3263 556.4C47.8303 556.688 47.4303 557.096 47.1263 557.624C46.8383 558.152 46.6943 558.792 46.6943 559.544C46.6943 560.28 46.8383 560.92 47.1263 561.464C47.4303 561.992 47.8303 562.4 48.3263 562.688C48.8223 562.976 49.3823 563.12 50.0063 563.12ZM53.3903 566V563.36L53.4623 559.52L53.2223 555.704V548.192H56.9663V566H53.3903ZM61.2714 566V553.088H65.0154V566H61.2714ZM63.1434 551.288C62.4554 551.288 61.8954 551.088 61.4634 550.688C61.0314 550.288 60.8154 549.792 60.8154 549.2C60.8154 548.608 61.0314 548.112 61.4634 547.712C61.8954 547.312 62.4554 547.112 63.1434 547.112C63.8314 547.112 64.3914 547.304 64.8234 547.688C65.2554 548.056 65.4714 548.536 65.4714 549.128C65.4714 549.752 65.2554 550.272 64.8234 550.688C64.4074 551.088 63.8474 551.288 63.1434 551.288ZM77.2502 566V563.48L77.0102 562.928V558.416C77.0102 557.616 76.7622 556.992 76.2662 556.544C75.7862 556.096 75.0422 555.872 74.0342 555.872C73.3462 555.872 72.6662 555.984 71.9942 556.208C71.3382 556.416 70.7782 556.704 70.3142 557.072L68.9702 554.456C69.6742 553.96 70.5222 553.576 71.5142 553.304C72.5062 553.032 73.5142 552.896 74.5382 552.896C76.5062 552.896 78.0342 553.36 79.1222 554.288C80.2102 555.216 80.7542 556.664 80.7542 558.632V566H77.2502ZM73.3142 566.192C72.3062 566.192 71.4422 566.024 70.7222 565.688C70.0022 565.336 69.4502 564.864 69.0662 564.272C68.6822 563.68 68.4902 563.016 68.4902 562.28C68.4902 561.512 68.6742 560.84 69.0422 560.264C69.4262 559.688 70.0262 559.24 70.8422 558.92C71.6582 558.584 72.7222 558.416 74.0342 558.416H77.4662V560.6H74.4422C73.5622 560.6 72.9542 560.744 72.6182 561.032C72.2982 561.32 72.1382 561.68 72.1382 562.112C72.1382 562.592 72.3222 562.976 72.6902 563.264C73.0742 563.536 73.5942 563.672 74.2502 563.672C74.8742 563.672 75.4342 563.528 75.9302 563.24C76.4262 562.936 76.7862 562.496 77.0102 561.92L77.5862 563.648C77.3142 564.48 76.8182 565.112 76.0982 565.544C75.3782 565.976 74.4502 566.192 73.3142 566.192ZM100.252 566.192C99.1636 566.192 98.2116 565.952 97.3956 565.472C96.5796 564.992 95.9396 564.264 95.4756 563.288C95.0276 562.296 94.8036 561.048 94.8036 559.544C94.8036 558.024 95.0196 556.776 95.4516 555.8C95.8836 554.824 96.5076 554.096 97.3236 553.616C98.1396 553.136 99.1156 552.896 100.252 552.896C101.468 552.896 102.556 553.176 103.516 553.736C104.492 554.28 105.26 555.048 105.82 556.04C106.396 557.032 106.684 558.2 106.684 559.544C106.684 560.904 106.396 562.08 105.82 563.072C105.26 564.064 104.492 564.832 103.516 565.376C102.556 565.92 101.468 566.192 100.252 566.192ZM92.6196 570.656V553.088H96.1956V555.728L96.1236 559.568L96.3636 563.384V570.656H92.6196ZM99.6036 563.12C100.228 563.12 100.78 562.976 101.26 562.688C101.756 562.4 102.148 561.992 102.436 561.464C102.74 560.92 102.892 560.28 102.892 559.544C102.892 558.792 102.74 558.152 102.436 557.624C102.148 557.096 101.756 556.688 101.26 556.4C100.78 556.112 100.228 555.968 99.6036 555.968C98.9796 555.968 98.4196 556.112 97.9236 556.4C97.4276 556.688 97.0356 557.096 96.7476 557.624C96.4596 558.152 96.3156 558.792 96.3156 559.544C96.3156 560.28 96.4596 560.92 96.7476 561.464C97.0356 561.992 97.4276 562.4 97.9236 562.688C98.4196 562.976 98.9796 563.12 99.6036 563.12ZM110.03 566V548.192H113.774V566H110.03ZM126.009 566V563.48L125.769 562.928V558.416C125.769 557.616 125.521 556.992 125.025 556.544C124.545 556.096 123.801 555.872 122.793 555.872C122.105 555.872 121.425 555.984 120.753 556.208C120.097 556.416 119.537 556.704 119.073 557.072L117.729 554.456C118.433 553.96 119.281 553.576 120.273 553.304C121.265 553.032 122.273 552.896 123.297 552.896C125.265 552.896 126.793 553.36 127.881 554.288C128.969 555.216 129.513 556.664 129.513 558.632V566H126.009ZM122.073 566.192C121.065 566.192 120.201 566.024 119.481 565.688C118.761 565.336 118.209 564.864 117.825 564.272C117.441 563.68 117.249 563.016 117.249 562.28C117.249 561.512 117.433 560.84 117.801 560.264C118.185 559.688 118.785 559.24 119.601 558.92C120.417 558.584 121.481 558.416 122.793 558.416H126.225V560.6H123.201C122.321 560.6 121.713 560.744 121.377 561.032C121.057 561.32 120.897 561.68 120.897 562.112C120.897 562.592 121.081 562.976 121.449 563.264C121.833 563.536 122.353 563.672 123.009 563.672C123.633 563.672 124.193 563.528 124.689 563.24C125.185 562.936 125.545 562.496 125.769 561.92L126.345 563.648C126.073 564.48 125.577 565.112 124.857 565.544C124.137 565.976 123.209 566.192 122.073 566.192ZM139.021 566.192C137.501 566.192 136.317 565.808 135.469 565.04C134.621 564.256 134.197 563.096 134.197 561.56V550.232H137.941V561.512C137.941 562.056 138.085 562.48 138.373 562.784C138.661 563.072 139.053 563.216 139.549 563.216C140.141 563.216 140.645 563.056 141.061 562.736L142.069 565.376C141.685 565.648 141.221 565.856 140.677 566C140.149 566.128 139.597 566.192 139.021 566.192ZM132.205 556.256V553.376H141.157V556.256H132.205ZM145.467 566V552.8C145.467 551.344 145.899 550.184 146.763 549.32C147.627 548.44 148.859 548 150.459 548C151.003 548 151.523 548.056 152.019 548.168C152.531 548.28 152.963 548.456 153.315 548.696L152.331 551.408C152.123 551.264 151.891 551.152 151.635 551.072C151.379 550.992 151.107 550.952 150.819 550.952C150.275 550.952 149.851 551.112 149.547 551.432C149.259 551.736 149.115 552.2 149.115 552.824V554.024L149.211 555.632V566H145.467ZM143.475 556.256V553.376H152.427V556.256H143.475ZM161.112 566.192C159.736 566.192 158.512 565.904 157.44 565.328C156.384 564.752 155.544 563.968 154.92 562.976C154.312 561.968 154.008 560.824 154.008 559.544C154.008 558.248 154.312 557.104 154.92 556.112C155.544 555.104 156.384 554.32 157.44 553.76C158.512 553.184 159.736 552.896 161.112 552.896C162.472 552.896 163.688 553.184 164.76 553.76C165.832 554.32 166.672 555.096 167.28 556.088C167.888 557.08 168.192 558.232 168.192 559.544C168.192 560.824 167.888 561.968 167.28 562.976C166.672 563.968 165.832 564.752 164.76 565.328C163.688 565.904 162.472 566.192 161.112 566.192ZM161.112 563.12C161.736 563.12 162.296 562.976 162.792 562.688C163.288 562.4 163.68 561.992 163.968 561.464C164.256 560.92 164.4 560.28 164.4 559.544C164.4 558.792 164.256 558.152 163.968 557.624C163.68 557.096 163.288 556.688 162.792 556.4C162.296 556.112 161.736 555.968 161.112 555.968C160.488 555.968 159.928 556.112 159.432 556.4C158.936 556.688 158.536 557.096 158.232 557.624C157.944 558.152 157.8 558.792 157.8 559.544C157.8 560.28 157.944 560.92 158.232 561.464C158.536 561.992 158.936 562.4 159.432 562.688C159.928 562.976 160.488 563.12 161.112 563.12ZM171.535 566V553.088H175.111V556.736L174.607 555.68C174.991 554.768 175.607 554.08 176.455 553.616C177.303 553.136 178.335 552.896 179.551 552.896V556.352C179.391 556.336 179.247 556.328 179.119 556.328C178.991 556.312 178.855 556.304 178.711 556.304C177.687 556.304 176.855 556.6 176.215 557.192C175.591 557.768 175.279 558.672 175.279 559.904V566H171.535ZM199.176 552.896C200.2 552.896 201.104 553.104 201.888 553.52C202.688 553.92 203.312 554.544 203.76 555.392C204.224 556.224 204.456 557.296 204.456 558.608V566H200.712V559.184C200.712 558.144 200.496 557.376 200.064 556.88C199.632 556.384 199.024 556.136 198.24 556.136C197.696 556.136 197.208 556.264 196.776 556.52C196.344 556.76 196.008 557.128 195.768 557.624C195.528 558.12 195.408 558.752 195.408 559.52V566H191.664V559.184C191.664 558.144 191.448 557.376 191.016 556.88C190.6 556.384 190 556.136 189.216 556.136C188.672 556.136 188.184 556.264 187.752 556.52C187.32 556.76 186.984 557.128 186.744 557.624C186.504 558.12 186.384 558.752 186.384 559.52V566H182.64V553.088H186.216V556.616L185.544 555.584C185.992 554.704 186.624 554.04 187.44 553.592C188.272 553.128 189.216 552.896 190.272 552.896C191.456 552.896 192.488 553.2 193.368 553.808C194.264 554.4 194.856 555.312 195.144 556.544L193.824 556.184C194.256 555.176 194.944 554.376 195.888 553.784C196.848 553.192 197.944 552.896 199.176 552.896ZM212.996 566.192C211.892 566.192 210.828 566.064 209.804 565.808C208.796 565.536 207.996 565.2 207.404 564.8L208.652 562.112C209.244 562.48 209.94 562.784 210.74 563.024C211.556 563.248 212.356 563.36 213.14 563.36C214.004 563.36 214.612 563.256 214.964 563.048C215.332 562.84 215.516 562.552 215.516 562.184C215.516 561.88 215.372 561.656 215.084 561.512C214.812 561.352 214.444 561.232 213.98 561.152C213.516 561.072 213.004 560.992 212.444 560.912C211.9 560.832 211.348 560.728 210.788 560.6C210.228 560.456 209.716 560.248 209.252 559.976C208.788 559.704 208.412 559.336 208.124 558.872C207.852 558.408 207.716 557.808 207.716 557.072C207.716 556.256 207.948 555.536 208.412 554.912C208.892 554.288 209.58 553.8 210.476 553.448C211.372 553.08 212.444 552.896 213.692 552.896C214.572 552.896 215.468 552.992 216.38 553.184C217.292 553.376 218.052 553.656 218.66 554.024L217.412 556.688C216.788 556.32 216.156 556.072 215.516 555.944C214.892 555.8 214.284 555.728 213.692 555.728C212.86 555.728 212.252 555.84 211.868 556.064C211.484 556.288 211.292 556.576 211.292 556.928C211.292 557.248 211.428 557.488 211.7 557.648C211.988 557.808 212.364 557.936 212.828 558.032C213.292 558.128 213.796 558.216 214.34 558.296C214.9 558.36 215.46 558.464 216.02 558.608C216.58 558.752 217.084 558.96 217.532 559.232C217.996 559.488 218.372 559.848 218.66 560.312C218.948 560.76 219.092 561.352 219.092 562.088C219.092 562.888 218.852 563.6 218.372 564.224C217.892 564.832 217.196 565.312 216.284 565.664C215.388 566.016 214.292 566.192 212.996 566.192ZM237.511 566.192C236.375 566.192 235.399 565.952 234.583 565.472C233.767 564.992 233.143 564.264 232.711 563.288C232.279 562.296 232.063 561.048 232.063 559.544C232.063 558.024 232.287 556.776 232.735 555.8C233.199 554.824 233.839 554.096 234.655 553.616C235.471 553.136 236.423 552.896 237.511 552.896C238.727 552.896 239.815 553.168 240.775 553.712C241.751 554.256 242.519 555.024 243.079 556.016C243.655 557.008 243.943 558.184 243.943 559.544C243.943 560.888 243.655 562.056 243.079 563.048C242.519 564.04 241.751 564.816 240.775 565.376C239.815 565.92 238.727 566.192 237.511 566.192ZM229.879 566V548.192H233.623V555.704L233.383 559.52L233.455 563.36V566H229.879ZM236.863 563.12C237.487 563.12 238.039 562.976 238.519 562.688C239.015 562.4 239.407 561.992 239.695 561.464C239.999 560.92 240.151 560.28 240.151 559.544C240.151 558.792 239.999 558.152 239.695 557.624C239.407 557.096 239.015 556.688 238.519 556.4C238.039 556.112 237.487 555.968 236.863 555.968C236.239 555.968 235.679 556.112 235.183 556.4C234.687 556.688 234.295 557.096 234.007 557.624C233.719 558.152 233.575 558.792 233.575 559.544C233.575 560.28 233.719 560.92 234.007 561.464C234.295 561.992 234.687 562.4 235.183 562.688C235.679 562.976 236.239 563.12 236.863 563.12ZM248.57 570.848C247.898 570.848 247.234 570.744 246.578 570.536C245.922 570.328 245.386 570.04 244.97 569.672L246.338 567.008C246.626 567.264 246.954 567.464 247.322 567.608C247.706 567.752 248.082 567.824 248.45 567.824C248.978 567.824 249.394 567.696 249.698 567.44C250.018 567.2 250.306 566.792 250.562 566.216L251.234 564.632L251.522 564.224L256.154 553.088H259.754L253.922 566.792C253.506 567.832 253.026 568.648 252.482 569.24C251.954 569.832 251.362 570.248 250.706 570.488C250.066 570.728 249.354 570.848 248.57 570.848ZM250.778 566.504L245.018 553.088H248.882L253.346 563.888L250.778 566.504ZM275.926 566.288C274.518 566.288 273.286 566.08 272.23 565.664C271.174 565.232 270.35 564.632 269.758 563.864C269.166 563.08 268.87 562.168 268.87 561.128C268.87 560.088 269.158 559.208 269.734 558.488C270.326 557.752 271.15 557.2 272.206 556.832C273.262 556.448 274.502 556.256 275.926 556.256C277.366 556.256 278.614 556.448 279.67 556.832C280.742 557.2 281.566 557.752 282.142 558.488C282.734 559.208 283.03 560.088 283.03 561.128C283.03 562.168 282.734 563.08 282.142 563.864C281.55 564.632 280.718 565.232 279.646 565.664C278.59 566.08 277.35 566.288 275.926 566.288ZM275.926 563.432C276.902 563.432 277.67 563.216 278.23 562.784C278.806 562.352 279.094 561.76 279.094 561.008C279.094 560.256 278.806 559.672 278.23 559.256C277.67 558.824 276.902 558.608 275.926 558.608C274.966 558.608 274.206 558.824 273.646 559.256C273.086 559.672 272.806 560.256 272.806 561.008C272.806 561.76 273.086 562.352 273.646 562.784C274.206 563.216 274.966 563.432 275.926 563.432ZM275.926 558.224C274.63 558.224 273.494 558.048 272.518 557.696C271.558 557.344 270.806 556.832 270.262 556.16C269.734 555.472 269.47 554.656 269.47 553.712C269.47 552.72 269.742 551.872 270.286 551.168C270.83 550.448 271.59 549.896 272.566 549.512C273.542 549.112 274.662 548.912 275.926 548.912C277.222 548.912 278.35 549.112 279.31 549.512C280.286 549.896 281.046 550.448 281.59 551.168C282.15 551.872 282.43 552.72 282.43 553.712C282.43 554.656 282.158 555.472 281.614 556.16C281.086 556.832 280.334 557.344 279.358 557.696C278.382 558.048 277.238 558.224 275.926 558.224ZM275.926 555.944C276.742 555.944 277.382 555.76 277.846 555.392C278.326 555.024 278.566 554.52 278.566 553.88C278.566 553.208 278.318 552.688 277.822 552.32C277.342 551.952 276.71 551.768 275.926 551.768C275.158 551.768 274.534 551.952 274.054 552.32C273.574 552.688 273.334 553.208 273.334 553.88C273.334 554.52 273.566 555.024 274.03 555.392C274.494 555.76 275.126 555.944 275.926 555.944ZM291.722 566.192C290.202 566.192 289.018 565.808 288.17 565.04C287.322 564.256 286.898 563.096 286.898 561.56V550.232H290.642V561.512C290.642 562.056 290.786 562.48 291.074 562.784C291.362 563.072 291.754 563.216 292.25 563.216C292.842 563.216 293.346 563.056 293.762 562.736L294.77 565.376C294.386 565.648 293.922 565.856 293.378 566C292.85 566.128 292.298 566.192 291.722 566.192ZM284.906 556.256V553.376H293.858V556.256H284.906ZM305.56 552.896C306.584 552.896 307.496 553.104 308.296 553.52C309.112 553.92 309.752 554.544 310.216 555.392C310.68 556.224 310.912 557.296 310.912 558.608V566H307.168V559.184C307.168 558.144 306.936 557.376 306.472 556.88C306.024 556.384 305.384 556.136 304.552 556.136C303.96 556.136 303.424 556.264 302.944 556.52C302.48 556.76 302.112 557.136 301.84 557.648C301.584 558.16 301.456 558.816 301.456 559.616V566H297.712V548.192H301.456V556.664L300.616 555.584C301.08 554.72 301.744 554.056 302.608 553.592C303.472 553.128 304.456 552.896 305.56 552.896ZM330.702 566V563.48L330.462 562.928V558.416C330.462 557.616 330.214 556.992 329.718 556.544C329.238 556.096 328.494 555.872 327.486 555.872C326.798 555.872 326.118 555.984 325.446 556.208C324.79 556.416 324.23 556.704 323.766 557.072L322.422 554.456C323.126 553.96 323.974 553.576 324.966 553.304C325.958 553.032 326.966 552.896 327.99 552.896C329.958 552.896 331.486 553.36 332.574 554.288C333.662 555.216 334.206 556.664 334.206 558.632V566H330.702ZM326.766 566.192C325.758 566.192 324.894 566.024 324.174 565.688C323.454 565.336 322.902 564.864 322.518 564.272C322.134 563.68 321.942 563.016 321.942 562.28C321.942 561.512 322.126 560.84 322.494 560.264C322.878 559.688 323.478 559.24 324.294 558.92C325.11 558.584 326.174 558.416 327.486 558.416H330.918V560.6H327.894C327.014 560.6 326.406 560.744 326.07 561.032C325.75 561.32 325.59 561.68 325.59 562.112C325.59 562.592 325.774 562.976 326.142 563.264C326.526 563.536 327.046 563.672 327.702 563.672C328.326 563.672 328.886 563.528 329.382 563.24C329.878 562.936 330.238 562.496 330.462 561.92L331.038 563.648C330.766 564.48 330.27 565.112 329.55 565.544C328.83 565.976 327.902 566.192 326.766 566.192ZM346.283 552.896C347.307 552.896 348.219 553.104 349.019 553.52C349.835 553.92 350.475 554.544 350.939 555.392C351.403 556.224 351.635 557.296 351.635 558.608V566H347.891V559.184C347.891 558.144 347.659 557.376 347.195 556.88C346.747 556.384 346.107 556.136 345.275 556.136C344.683 556.136 344.147 556.264 343.667 556.52C343.203 556.76 342.835 557.136 342.563 557.648C342.307 558.16 342.179 558.816 342.179 559.616V566H338.435V553.088H342.011V556.664L341.339 555.584C341.803 554.72 342.467 554.056 343.331 553.592C344.195 553.128 345.179 552.896 346.283 552.896ZM361.506 566.192C360.29 566.192 359.194 565.92 358.218 565.376C357.242 564.816 356.466 564.04 355.89 563.048C355.33 562.056 355.05 560.888 355.05 559.544C355.05 558.184 355.33 557.008 355.89 556.016C356.466 555.024 357.242 554.256 358.218 553.712C359.194 553.168 360.29 552.896 361.506 552.896C362.594 552.896 363.546 553.136 364.362 553.616C365.178 554.096 365.81 554.824 366.258 555.8C366.706 556.776 366.93 558.024 366.93 559.544C366.93 561.048 366.714 562.296 366.282 563.288C365.85 564.264 365.226 564.992 364.41 565.472C363.61 565.952 362.642 566.192 361.506 566.192ZM362.154 563.12C362.762 563.12 363.314 562.976 363.81 562.688C364.306 562.4 364.698 561.992 364.986 561.464C365.29 560.92 365.442 560.28 365.442 559.544C365.442 558.792 365.29 558.152 364.986 557.624C364.698 557.096 364.306 556.688 363.81 556.4C363.314 556.112 362.762 555.968 362.154 555.968C361.53 555.968 360.97 556.112 360.474 556.4C359.978 556.688 359.578 557.096 359.274 557.624C358.986 558.152 358.842 558.792 358.842 559.544C358.842 560.28 358.986 560.92 359.274 561.464C359.578 561.992 359.978 562.4 360.474 562.688C360.97 562.976 361.53 563.12 362.154 563.12ZM365.538 566V563.36L365.61 559.52L365.37 555.704V548.192H369.114V566H365.538ZM382.856 566V550.64L384.536 552.32H379.496V549.2H386.744V566H382.856ZM397.703 566.288C396.327 566.288 395.095 565.952 394.007 565.28C392.919 564.592 392.063 563.6 391.439 562.304C390.815 561.008 390.503 559.44 390.503 557.6C390.503 555.76 390.815 554.192 391.439 552.896C392.063 551.6 392.919 550.616 394.007 549.944C395.095 549.256 396.327 548.912 397.703 548.912C399.095 548.912 400.327 549.256 401.399 549.944C402.487 550.616 403.343 551.6 403.967 552.896C404.591 554.192 404.903 555.76 404.903 557.6C404.903 559.44 404.591 561.008 403.967 562.304C403.343 563.6 402.487 564.592 401.399 565.28C400.327 565.952 399.095 566.288 397.703 566.288ZM397.703 563C398.359 563 398.927 562.816 399.407 562.448C399.903 562.08 400.287 561.496 400.559 560.696C400.847 559.896 400.991 558.864 400.991 557.6C400.991 556.336 400.847 555.304 400.559 554.504C400.287 553.704 399.903 553.12 399.407 552.752C398.927 552.384 398.359 552.2 397.703 552.2C397.063 552.2 396.495 552.384 395.999 552.752C395.519 553.12 395.135 553.704 394.847 554.504C394.575 555.304 394.439 556.336 394.439 557.6C394.439 558.864 394.575 559.896 394.847 560.696C395.135 561.496 395.519 562.08 395.999 562.448C396.495 562.816 397.063 563 397.703 563ZM413.938 566.192C412.418 566.192 411.234 565.808 410.386 565.04C409.538 564.256 409.114 563.096 409.114 561.56V550.232H412.858V561.512C412.858 562.056 413.002 562.48 413.29 562.784C413.578 563.072 413.97 563.216 414.466 563.216C415.058 563.216 415.562 563.056 415.978 562.736L416.986 565.376C416.602 565.648 416.138 565.856 415.594 566C415.066 566.128 414.514 566.192 413.938 566.192ZM407.122 556.256V553.376H416.074V556.256H407.122ZM427.776 552.896C428.8 552.896 429.712 553.104 430.512 553.52C431.328 553.92 431.968 554.544 432.432 555.392C432.896 556.224 433.128 557.296 433.128 558.608V566H429.384V559.184C429.384 558.144 429.152 557.376 428.688 556.88C428.24 556.384 427.6 556.136 426.768 556.136C426.176 556.136 425.64 556.264 425.16 556.52C424.696 556.76 424.328 557.136 424.056 557.648C423.8 558.16 423.672 558.816 423.672 559.616V566H419.928V548.192H423.672V556.664L422.832 555.584C423.296 554.72 423.96 554.056 424.824 553.592C425.688 553.128 426.672 552.896 427.776 552.896ZM451.071 570.848C449.855 570.848 448.679 570.696 447.543 570.392C446.423 570.104 445.487 569.664 444.735 569.072L446.223 566.384C446.767 566.832 447.455 567.184 448.287 567.44C449.135 567.712 449.967 567.848 450.783 567.848C452.111 567.848 453.071 567.552 453.663 566.96C454.271 566.368 454.575 565.488 454.575 564.32V562.376L454.815 559.136L454.767 555.872V553.088H458.319V563.84C458.319 566.24 457.695 568.008 456.447 569.144C455.199 570.28 453.407 570.848 451.071 570.848ZM450.495 565.376C449.295 565.376 448.207 565.12 447.231 564.608C446.271 564.08 445.495 563.352 444.903 562.424C444.327 561.48 444.039 560.384 444.039 559.136C444.039 557.872 444.327 556.776 444.903 555.848C445.495 554.904 446.271 554.176 447.231 553.664C448.207 553.152 449.295 552.896 450.495 552.896C451.583 552.896 452.543 553.12 453.375 553.568C454.207 554 454.855 554.68 455.319 555.608C455.783 556.52 456.015 557.696 456.015 559.136C456.015 560.56 455.783 561.736 455.319 562.664C454.855 563.576 454.207 564.256 453.375 564.704C452.543 565.152 451.583 565.376 450.495 565.376ZM451.239 562.304C451.895 562.304 452.479 562.176 452.991 561.92C453.503 561.648 453.903 561.272 454.191 560.792C454.479 560.312 454.623 559.76 454.623 559.136C454.623 558.496 454.479 557.944 454.191 557.48C453.903 557 453.503 556.632 452.991 556.376C452.479 556.104 451.895 555.968 451.239 555.968C450.583 555.968 449.999 556.104 449.487 556.376C448.975 556.632 448.567 557 448.263 557.48C447.975 557.944 447.831 558.496 447.831 559.136C447.831 559.76 447.975 560.312 448.263 560.792C448.567 561.272 448.975 561.648 449.487 561.92C449.999 562.176 450.583 562.304 451.239 562.304ZM462.643 566V553.088H466.219V556.736L465.715 555.68C466.099 554.768 466.715 554.08 467.563 553.616C468.411 553.136 469.443 552.896 470.659 552.896V556.352C470.499 556.336 470.355 556.328 470.227 556.328C470.099 556.312 469.963 556.304 469.819 556.304C468.795 556.304 467.963 556.6 467.323 557.192C466.699 557.768 466.387 558.672 466.387 559.904V566H462.643ZM480.802 566V563.48L480.562 562.928V558.416C480.562 557.616 480.314 556.992 479.818 556.544C479.338 556.096 478.594 555.872 477.586 555.872C476.898 555.872 476.218 555.984 475.546 556.208C474.89 556.416 474.33 556.704 473.866 557.072L472.522 554.456C473.226 553.96 474.074 553.576 475.066 553.304C476.058 553.032 477.066 552.896 478.09 552.896C480.058 552.896 481.586 553.36 482.674 554.288C483.762 555.216 484.306 556.664 484.306 558.632V566H480.802ZM476.866 566.192C475.858 566.192 474.994 566.024 474.274 565.688C473.554 565.336 473.002 564.864 472.618 564.272C472.234 563.68 472.042 563.016 472.042 562.28C472.042 561.512 472.226 560.84 472.594 560.264C472.978 559.688 473.578 559.24 474.394 558.92C475.21 558.584 476.274 558.416 477.586 558.416H481.018V560.6H477.994C477.114 560.6 476.506 560.744 476.17 561.032C475.85 561.32 475.69 561.68 475.69 562.112C475.69 562.592 475.874 562.976 476.242 563.264C476.626 563.536 477.146 563.672 477.802 563.672C478.426 563.672 478.986 563.528 479.482 563.24C479.978 562.936 480.338 562.496 480.562 561.92L481.138 563.648C480.866 564.48 480.37 565.112 479.65 565.544C478.93 565.976 478.002 566.192 476.866 566.192ZM494.172 566.192C492.956 566.192 491.86 565.92 490.884 565.376C489.908 564.816 489.132 564.04 488.556 563.048C487.996 562.056 487.716 560.888 487.716 559.544C487.716 558.184 487.996 557.008 488.556 556.016C489.132 555.024 489.908 554.256 490.884 553.712C491.86 553.168 492.956 552.896 494.172 552.896C495.26 552.896 496.212 553.136 497.028 553.616C497.844 554.096 498.476 554.824 498.924 555.8C499.372 556.776 499.596 558.024 499.596 559.544C499.596 561.048 499.38 562.296 498.948 563.288C498.516 564.264 497.892 564.992 497.076 565.472C496.276 565.952 495.308 566.192 494.172 566.192ZM494.82 563.12C495.428 563.12 495.98 562.976 496.476 562.688C496.972 562.4 497.364 561.992 497.652 561.464C497.956 560.92 498.108 560.28 498.108 559.544C498.108 558.792 497.956 558.152 497.652 557.624C497.364 557.096 496.972 556.688 496.476 556.4C495.98 556.112 495.428 555.968 494.82 555.968C494.196 555.968 493.636 556.112 493.14 556.4C492.644 556.688 492.244 557.096 491.94 557.624C491.652 558.152 491.508 558.792 491.508 559.544C491.508 560.28 491.652 560.92 491.94 561.464C492.244 561.992 492.644 562.4 493.14 562.688C493.636 562.976 494.196 563.12 494.82 563.12ZM498.204 566V563.36L498.276 559.52L498.036 555.704V548.192H501.78V566H498.204ZM512.493 566.192C511.021 566.192 509.725 565.904 508.605 565.328C507.501 564.752 506.645 563.968 506.037 562.976C505.429 561.968 505.125 560.824 505.125 559.544C505.125 558.248 505.421 557.104 506.013 556.112C506.621 555.104 507.445 554.32 508.485 553.76C509.525 553.184 510.701 552.896 512.013 552.896C513.277 552.896 514.413 553.168 515.421 553.712C516.445 554.24 517.253 555.008 517.845 556.016C518.437 557.008 518.733 558.2 518.733 559.592C518.733 559.736 518.725 559.904 518.709 560.096C518.693 560.272 518.677 560.44 518.661 560.6H508.173V558.416H516.693L515.253 559.064C515.253 558.392 515.117 557.808 514.845 557.312C514.573 556.816 514.197 556.432 513.717 556.16C513.237 555.872 512.677 555.728 512.037 555.728C511.397 555.728 510.829 555.872 510.333 556.16C509.853 556.432 509.477 556.824 509.205 557.336C508.933 557.832 508.797 558.424 508.797 559.112V559.688C508.797 560.392 508.949 561.016 509.253 561.56C509.573 562.088 510.013 562.496 510.573 562.784C511.149 563.056 511.821 563.192 512.589 563.192C513.277 563.192 513.877 563.088 514.389 562.88C514.917 562.672 515.397 562.36 515.829 561.944L517.821 564.104C517.229 564.776 516.485 565.296 515.589 565.664C514.693 566.016 513.661 566.192 512.493 566.192ZM522.066 566V553.088H525.642V556.736L525.138 555.68C525.522 554.768 526.138 554.08 526.986 553.616C527.834 553.136 528.866 552.896 530.082 552.896V556.352C529.922 556.336 529.778 556.328 529.65 556.328C529.522 556.312 529.386 556.304 529.242 556.304C528.218 556.304 527.386 556.6 526.746 557.192C526.122 557.768 525.81 558.672 525.81 559.904V566H522.066ZM537.586 566.192C536.482 566.192 535.418 566.064 534.394 565.808C533.386 565.536 532.586 565.2 531.994 564.8L533.242 562.112C533.834 562.48 534.53 562.784 535.33 563.024C536.146 563.248 536.946 563.36 537.73 563.36C538.594 563.36 539.202 563.256 539.554 563.048C539.922 562.84 540.106 562.552 540.106 562.184C540.106 561.88 539.962 561.656 539.674 561.512C539.402 561.352 539.034 561.232 538.57 561.152C538.106 561.072 537.594 560.992 537.034 560.912C536.49 560.832 535.938 560.728 535.378 560.6C534.818 560.456 534.306 560.248 533.842 559.976C533.378 559.704 533.002 559.336 532.714 558.872C532.442 558.408 532.306 557.808 532.306 557.072C532.306 556.256 532.538 555.536 533.002 554.912C533.482 554.288 534.17 553.8 535.066 553.448C535.962 553.08 537.034 552.896 538.282 552.896C539.162 552.896 540.058 552.992 540.97 553.184C541.882 553.376 542.642 553.656 543.25 554.024L542.002 556.688C541.378 556.32 540.746 556.072 540.106 555.944C539.482 555.8 538.874 555.728 538.282 555.728C537.45 555.728 536.842 555.84 536.458 556.064C536.074 556.288 535.882 556.576 535.882 556.928C535.882 557.248 536.018 557.488 536.29 557.648C536.578 557.808 536.954 557.936 537.418 558.032C537.882 558.128 538.386 558.216 538.93 558.296C539.49 558.36 540.05 558.464 540.61 558.608C541.17 558.752 541.674 558.96 542.122 559.232C542.586 559.488 542.962 559.848 543.25 560.312C543.538 560.76 543.682 561.352 543.682 562.088C543.682 562.888 543.442 563.6 542.962 564.224C542.482 564.832 541.786 565.312 540.874 565.664C539.978 566.016 538.882 566.192 537.586 566.192ZM548.248 566.192C547.608 566.192 547.056 565.976 546.592 565.544C546.144 565.096 545.92 564.528 545.92 563.84C545.92 563.152 546.144 562.6 546.592 562.184C547.056 561.752 547.608 561.536 548.248 561.536C548.904 561.536 549.456 561.752 549.904 562.184C550.352 562.6 550.576 563.152 550.576 563.84C550.576 564.528 550.352 565.096 549.904 565.544C549.456 565.976 548.904 566.192 548.248 566.192Z" fill="white"/>
<circle cx="190.25" cy="188.75" r="183.75" stroke="white" stroke-width="9"/>
<line x1="194.305" y1="0.5" x2="194.305" y2="20.0816" stroke="white" stroke-width="9"/>
<line x1="378.5" y1="189.244" x2="358.918" y2="189.244" stroke="white" stroke-width="9"/>
<line x1="337.977" y1="107.862" x2="354.935" y2="98.0715" stroke="white" stroke-width="9"/>
<line y1="-4.5" x2="19.5816" y2="-4.5" transform="matrix(0.866025 0.5 0.5 -0.866025 340.227 265.741)" stroke="white" stroke-width="9"/>
<line y1="-4.5" x2="19.5816" y2="-4.5" transform="matrix(-0.866025 -0.5 -0.5 0.866025 40.3201 111.759)" stroke="white" stroke-width="9"/>
<line x1="42.5701" y1="268.749" x2="25.6119" y2="278.54" stroke="white" stroke-width="9"/>
<line x1="279.464" y1="45.7658" x2="289.967" y2="29.239" stroke="white" stroke-width="9"/>
<line y1="-4.5" x2="19.5816" y2="-4.5" transform="matrix(0.536341 0.844002 0.844002 -0.536341 283.262 329.321)" stroke="white" stroke-width="9"/>
<line y1="-4.5" x2="19.5816" y2="-4.5" transform="matrix(-0.536341 -0.844002 -0.844002 0.536341 96.3944 49.9602)" stroke="white" stroke-width="9"/>
<line x1="99.3025" y1="329.953" x2="88.8001" y2="346.48" stroke="white" stroke-width="9"/>
<line x1="21.5815" y1="189.244" x2="1.99998" y2="189.244" stroke="white" stroke-width="9"/>
<line x1="194.305" y1="357.419" x2="194.305" y2="377.001" stroke="white" stroke-width="9"/>
<path d="M190.25 188.306L370.934 238.595C380.725 219.457 390.363 127.257 331.326 64.586C273.472 3.17034 211.167 0.499873 190.25 0.5V188.306Z" fill="white"/>
</svg>
