<svg width="1436" height="484" viewBox="0 0 1436 484" fill="none" xmlns="http://www.w3.org/2000/svg">
<g filter="url(#filter0_d_1_352)">
<path d="M1360 190.667C1360 119.057 1301.88 61 1230.19 61C1197.97 61 1168.5 72.7309 1145.79 92.1496C1130.54 85.857 1113.84 82.3833 1096.31 82.3833C1060.68 82.3833 1028.4 96.7338 1004.94 119.954C981.483 96.7338 949.216 82.3833 913.572 82.3833C868.85 82.3833 829.4 104.977 806.056 139.372C782.711 104.977 743.276 82.3833 698.539 82.3833C661.641 82.3833 628.348 97.7588 604.719 122.445C581.089 97.7588 547.782 82.3833 510.898 82.3833C483.278 82.3833 457.681 91.0107 436.631 105.703C415.581 91.0107 389.984 82.3833 362.364 82.3833C338.948 82.3833 316.972 88.5762 298.002 99.4245C274.501 75.7064 241.878 61 205.807 61C134.119 61 76 119.057 76 190.667C76 240.025 103.606 282.934 144.238 304.844C146.989 374.034 203.997 429.286 273.931 429.286C319.737 429.286 359.998 405.582 383.101 369.791C402.569 416.872 448.959 450 503.116 450C544.761 450 581.816 430.41 605.574 399.944C629.332 430.396 666.387 450 708.031 450C756.231 450 798.288 423.762 820.678 384.797C843.068 423.762 885.125 450 933.34 450C991.773 450 1041.18 411.433 1057.46 358.388C1078.91 400.471 1122.69 429.286 1173.2 429.286C1244.89 429.286 1303.01 371.229 1303.01 299.619C1303.01 299.092 1303.01 298.566 1302.99 298.039C1337.4 274.719 1360 235.327 1360 190.667Z" fill="white"/>
</g>
<path d="M506.079 238V201.648H491.743V193.2H530.783V201.648H516.447V238H506.079ZM546.738 211.248H568.306V219.312H546.738V211.248ZM547.506 229.68H571.89V238H537.202V193.2H571.058V201.52H547.506V229.68ZM590.515 211.248H612.083V219.312H590.515V211.248ZM591.283 229.68H615.667V238H580.979V193.2H614.835V201.52H591.283V229.68ZM624.757 238V193.2H633.333L659.765 225.456H655.605V193.2H665.845V238H657.333L630.837 205.744H634.997V238H624.757ZM692.004 238.768C688.42 238.768 684.986 238.299 681.7 237.36C678.415 236.379 675.77 235.12 673.764 233.584L677.284 225.776C679.204 227.141 681.466 228.272 684.068 229.168C686.714 230.021 689.38 230.448 692.068 230.448C694.116 230.448 695.759 230.256 696.996 229.872C698.276 229.445 699.215 228.869 699.812 228.144C700.41 227.419 700.708 226.587 700.708 225.648C700.708 224.453 700.239 223.515 699.3 222.832C698.362 222.107 697.124 221.531 695.588 221.104C694.052 220.635 692.346 220.208 690.468 219.824C688.634 219.397 686.778 218.885 684.9 218.288C683.066 217.691 681.38 216.923 679.844 215.984C678.308 215.045 677.05 213.808 676.068 212.272C675.13 210.736 674.66 208.773 674.66 206.384C674.66 203.824 675.343 201.499 676.708 199.408C678.116 197.275 680.207 195.589 682.98 194.352C685.796 193.072 689.316 192.432 693.54 192.432C696.356 192.432 699.13 192.773 701.86 193.456C704.591 194.096 707.002 195.077 709.092 196.4L705.892 204.272C703.802 203.077 701.711 202.203 699.62 201.648C697.53 201.051 695.482 200.752 693.476 200.752C691.471 200.752 689.828 200.987 688.548 201.456C687.268 201.925 686.351 202.544 685.796 203.312C685.242 204.037 684.964 204.891 684.964 205.872C684.964 207.024 685.434 207.963 686.372 208.688C687.311 209.371 688.548 209.925 690.084 210.352C691.62 210.779 693.306 211.205 695.14 211.632C697.018 212.059 698.874 212.549 700.708 213.104C702.586 213.659 704.292 214.405 705.828 215.344C707.364 216.283 708.602 217.52 709.54 219.056C710.522 220.592 711.012 222.533 711.012 224.88C711.012 227.397 710.308 229.701 708.9 231.792C707.492 233.883 705.38 235.568 702.564 236.848C699.791 238.128 696.271 238.768 692.004 238.768ZM737.902 238V193.2H746.478L772.91 225.456H768.75V193.2H778.99V238H770.478L743.982 205.744H748.142V238H737.902ZM799.965 211.248H821.533V219.312H799.965V211.248ZM800.733 229.68H825.117V238H790.429V193.2H824.285V201.52H800.733V229.68ZM843.743 211.248H865.311V219.312H843.743V211.248ZM844.511 229.68H868.895V238H834.207V193.2H868.063V201.52H844.511V229.68ZM877.984 238V193.2H898.336C903.2 193.2 907.488 194.139 911.2 196.016C914.912 197.851 917.814 200.432 919.904 203.76C921.995 207.088 923.04 211.035 923.04 215.6C923.04 220.123 921.995 224.069 919.904 227.44C917.814 230.768 914.912 233.371 911.2 235.248C907.488 237.083 903.2 238 898.336 238H877.984ZM888.352 229.488H897.824C900.811 229.488 903.392 228.933 905.568 227.824C907.787 226.672 909.494 225.051 910.688 222.96C911.926 220.869 912.544 218.416 912.544 215.6C912.544 212.741 911.926 210.288 910.688 208.24C909.494 206.149 907.787 204.549 905.568 203.44C903.392 202.288 900.811 201.712 897.824 201.712H888.352V229.488ZM259.6 307V262.2H268.176L287.248 293.816H282.704L301.456 262.2H309.968L310.096 307H300.368L300.304 277.112H302.096L287.12 302.264H282.448L267.152 277.112H269.328V307H259.6ZM331.101 280.248H352.669V288.312H331.101V280.248ZM331.869 298.68H356.253V307H321.565V262.2H355.421V270.52H331.869V298.68ZM365.342 307V262.2H373.918L400.35 294.456H396.19V262.2H406.43V307H397.918L371.422 274.744H375.582V307H365.342ZM427.149 307V270.648H412.813V262.2H451.853V270.648H437.517V307H427.149ZM450.134 307L470.102 262.2H480.342L500.374 307H489.494L473.11 267.448H477.206L460.758 307H450.134ZM460.118 297.4L462.87 289.528H485.91L488.726 297.4H460.118ZM505.862 307V262.2H516.23V298.552H538.694V307H505.862ZM595.012 262.2H605.38V307H595.012V262.2ZM574.66 307H564.292V262.2H574.66V307ZM595.78 288.632H573.892V279.864H595.78V288.632ZM626.356 280.248H647.924V288.312H626.356V280.248ZM627.124 298.68H651.508V307H616.82V262.2H650.676V270.52H627.124V298.68ZM654.709 307L674.677 262.2H684.917L704.949 307H694.069L677.685 267.448H681.781L665.333 307H654.709ZM664.693 297.4L667.445 289.528H690.485L693.301 297.4H664.693ZM710.437 307V262.2H720.805V298.552H743.269V307H710.437ZM754.994 307V270.648H740.658V262.2H779.698V270.648H765.362V307H754.994ZM816.837 262.2H827.205V307H816.837V262.2ZM796.485 307H786.117V262.2H796.485V307ZM817.605 288.632H795.717V279.864H817.605V288.632ZM872.329 307.768C868.745 307.768 865.311 307.299 862.025 306.36C858.74 305.379 856.095 304.12 854.089 302.584L857.609 294.776C859.529 296.141 861.791 297.272 864.393 298.168C867.039 299.021 869.705 299.448 872.393 299.448C874.441 299.448 876.084 299.256 877.321 298.872C878.601 298.445 879.54 297.869 880.137 297.144C880.735 296.419 881.033 295.587 881.033 294.648C881.033 293.453 880.564 292.515 879.625 291.832C878.687 291.107 877.449 290.531 875.913 290.104C874.377 289.635 872.671 289.208 870.793 288.824C868.959 288.397 867.103 287.885 865.225 287.288C863.391 286.691 861.705 285.923 860.169 284.984C858.633 284.045 857.375 282.808 856.393 281.272C855.455 279.736 854.985 277.773 854.985 275.384C854.985 272.824 855.668 270.499 857.033 268.408C858.441 266.275 860.532 264.589 863.305 263.352C866.121 262.072 869.641 261.432 873.865 261.432C876.681 261.432 879.455 261.773 882.185 262.456C884.916 263.096 887.327 264.077 889.417 265.4L886.217 273.272C884.127 272.077 882.036 271.203 879.945 270.648C877.855 270.051 875.807 269.752 873.801 269.752C871.796 269.752 870.153 269.987 868.873 270.456C867.593 270.925 866.676 271.544 866.121 272.312C865.567 273.037 865.289 273.891 865.289 274.872C865.289 276.024 865.759 276.963 866.697 277.688C867.636 278.371 868.873 278.925 870.409 279.352C871.945 279.779 873.631 280.205 875.465 280.632C877.343 281.059 879.199 281.549 881.033 282.104C882.911 282.659 884.617 283.405 886.153 284.344C887.689 285.283 888.927 286.52 889.865 288.056C890.847 289.592 891.337 291.533 891.337 293.88C891.337 296.397 890.633 298.701 889.225 300.792C887.817 302.883 885.705 304.568 882.889 305.848C880.116 307.128 876.596 307.768 872.329 307.768ZM919.166 307.768C912.809 307.768 907.838 305.997 904.254 302.456C900.67 298.915 898.878 293.859 898.878 287.288V262.2H909.246V286.904C909.246 291.171 910.121 294.243 911.87 296.12C913.619 297.997 916.073 298.936 919.23 298.936C922.387 298.936 924.841 297.997 926.59 296.12C928.339 294.243 929.214 291.171 929.214 286.904V262.2H939.454V287.288C939.454 293.859 937.662 298.915 934.078 302.456C930.494 305.997 925.523 307.768 919.166 307.768ZM950.54 307V262.2H969.932C973.942 262.2 977.398 262.861 980.3 264.184C983.201 265.464 985.441 267.32 987.02 269.752C988.598 272.184 989.388 275.085 989.388 278.456C989.388 281.784 988.598 284.664 987.02 287.096C985.441 289.528 983.201 291.405 980.3 292.728C977.398 294.008 973.942 294.648 969.932 294.648H956.3L960.908 289.976V307H950.54ZM960.908 291.128L956.3 286.2H969.356C972.556 286.2 974.945 285.517 976.524 284.152C978.102 282.787 978.892 280.888 978.892 278.456C978.892 275.981 978.102 274.061 976.524 272.696C974.945 271.331 972.556 270.648 969.356 270.648H956.3L960.908 265.72V291.128ZM997.63 307V262.2H1017.02C1021.03 262.2 1024.49 262.861 1027.39 264.184C1030.29 265.464 1032.53 267.32 1034.11 269.752C1035.69 272.184 1036.48 275.085 1036.48 278.456C1036.48 281.784 1035.69 284.664 1034.11 287.096C1032.53 289.528 1030.29 291.405 1027.39 292.728C1024.49 294.008 1021.03 294.648 1017.02 294.648H1003.39L1008 289.976V307H997.63ZM1008 291.128L1003.39 286.2H1016.45C1019.65 286.2 1022.03 285.517 1023.61 284.152C1025.19 282.787 1025.98 280.888 1025.98 278.456C1025.98 275.981 1025.19 274.061 1023.61 272.696C1022.03 271.331 1019.65 270.648 1016.45 270.648H1003.39L1008 265.72V291.128ZM1067.1 307.768C1063.56 307.768 1060.28 307.192 1057.25 306.04C1054.26 304.888 1051.66 303.267 1049.44 301.176C1047.26 299.085 1045.56 296.632 1044.32 293.816C1043.13 291 1042.53 287.928 1042.53 284.6C1042.53 281.272 1043.13 278.2 1044.32 275.384C1045.56 272.568 1047.29 270.115 1049.5 268.024C1051.72 265.933 1054.33 264.312 1057.31 263.16C1060.3 262.008 1063.54 261.432 1067.04 261.432C1070.58 261.432 1073.82 262.008 1076.77 263.16C1079.76 264.312 1082.34 265.933 1084.51 268.024C1086.73 270.115 1088.46 272.568 1089.7 275.384C1090.93 278.157 1091.55 281.229 1091.55 284.6C1091.55 287.928 1090.93 291.021 1089.7 293.88C1088.46 296.696 1086.73 299.149 1084.51 301.24C1082.34 303.288 1079.76 304.888 1076.77 306.04C1073.82 307.192 1070.6 307.768 1067.1 307.768ZM1067.04 298.936C1069.05 298.936 1070.88 298.595 1072.54 297.912C1074.25 297.229 1075.74 296.248 1077.02 294.968C1078.3 293.688 1079.29 292.173 1079.97 290.424C1080.69 288.675 1081.06 286.733 1081.06 284.6C1081.06 282.467 1080.69 280.525 1079.97 278.776C1079.29 277.027 1078.3 275.512 1077.02 274.232C1075.79 272.952 1074.32 271.971 1072.61 271.288C1070.9 270.605 1069.05 270.264 1067.04 270.264C1065.04 270.264 1063.18 270.605 1061.47 271.288C1059.81 271.971 1058.34 272.952 1057.06 274.232C1055.78 275.512 1054.77 277.027 1054.05 278.776C1053.37 280.525 1053.02 282.467 1053.02 284.6C1053.02 286.691 1053.37 288.632 1054.05 290.424C1054.77 292.173 1055.76 293.688 1056.99 294.968C1058.27 296.248 1059.77 297.229 1061.47 297.912C1063.18 298.595 1065.04 298.936 1067.04 298.936ZM1100.18 307V262.2H1119.58C1123.59 262.2 1127.04 262.861 1129.94 264.184C1132.85 265.464 1135.09 267.32 1136.66 269.752C1138.24 272.184 1139.03 275.085 1139.03 278.456C1139.03 281.784 1138.24 284.664 1136.66 287.096C1135.09 289.485 1132.85 291.32 1129.94 292.6C1127.04 293.88 1123.59 294.52 1119.58 294.52H1105.94L1110.55 289.976V307H1100.18ZM1128.66 307L1117.46 290.744H1128.54L1139.86 307H1128.66ZM1110.55 291.128L1105.94 286.264H1119C1122.2 286.264 1124.59 285.581 1126.17 284.216C1127.75 282.808 1128.54 280.888 1128.54 278.456C1128.54 275.981 1127.75 274.061 1126.17 272.696C1124.59 271.331 1122.2 270.648 1119 270.648H1105.94L1110.55 265.72V291.128ZM1156.74 307V270.648H1142.41V262.2H1181.45V270.648H1167.11V307H1156.74Z" fill="#101066"/>
<defs>
<filter id="filter0_d_1_352" x="47" y="35" width="1344" height="449" filterUnits="userSpaceOnUse" color-interpolation-filters="sRGB">
<feFlood flood-opacity="0" result="BackgroundImageFix"/>
<feColorMatrix in="SourceAlpha" type="matrix" values="0 0 0 0 0 0 0 0 0 0 0 0 0 0 0 0 0 0 127 0" result="hardAlpha"/>
<feOffset dx="1" dy="4"/>
<feGaussianBlur stdDeviation="15"/>
<feComposite in2="hardAlpha" operator="out"/>
<feColorMatrix type="matrix" values="0 0 0 0 1 0 0 0 0 0.793231 0 0 0 0 0.786182 0 0 0 1 0"/>
<feBlend mode="normal" in2="BackgroundImageFix" result="effect1_dropShadow_1_352"/>
<feBlend mode="normal" in="SourceGraphic" in2="effect1_dropShadow_1_352" result="shape"/>
</filter>
</defs>
</svg>

