<svg width="296" height="296" viewBox="0 0 296 296" fill="none" xmlns="http://www.w3.org/2000/svg">
<g clip-path="url(#clip0_1_492)">
<path d="M138.252 62.4303V174.613L166.444 184.794L138.252 266.933C138.252 266.933 104.192 271.604 73.6533 266.933C43.1144 262.262 41.9407 192.226 40.7671 137.259C39.5935 82.2931 40.7673 64.9893 71.306 62.4303C104.896 59.6156 138.252 62.4303 138.252 62.4303Z" fill="#FFE2E2" stroke="#FC8D3D" stroke-width="2" stroke-miterlimit="10"/>
<path d="M137.653 62.0446V174.431L165.764 184.63L137.653 266.918C137.653 266.918 194.351 269.038 217.293 261.849C240.235 254.659 266.31 220.26 266.31 180.657C266.31 141.055 254.839 71.208 232.945 56.6099C211.051 42.0118 137.653 62.0446 137.653 62.0446Z" fill="#FFE2E2" stroke="#FC8D3D" stroke-width="2" stroke-miterlimit="10"/>
<path d="M-40.0328 374.693C-40.0328 374.693 121.628 243.583 126.305 235.522C130.991 227.456 129.632 220.687 124.031 223.994C118.429 227.301 98.8138 242.381 96.9708 243.098C95.1278 243.815 127.15 220.224 126.693 213.68C126.235 207.136 121.86 209.334 114.131 213.526C107.986 216.853 91.1105 229.816 87.4173 232.082C87.206 232.207 86.9992 231.929 87.1687 231.757C91.2414 227.696 110.464 208.377 115.501 201.917C121.517 194.195 113.975 191.005 101.134 203.171L92.5916 211.443C92.3903 211.633 77.7232 221.335 77.8721 221.104C79.6331 218.293 86.4687 215.315 89.4119 208.592C93.4359 199.402 98.6385 185.16 96.3183 181.23C93.9982 177.3 87.8966 179.76 87.0279 184.058C86.1592 188.356 77.8213 203.178 77.8213 203.178C77.8213 203.178 54.8505 218.997 53.5613 219.372C52.2722 219.747 62.5853 204.988 62.03 198.302C61.6282 193.397 56.3999 184.927 52.6049 184.896C48.8098 184.865 47.6201 196.924 45.2536 200.593C42.8871 204.261 39.0152 213.032 33.5155 219.022C26.538 226.612 -58.7569 318.38 -58.7569 318.38C-58.7569 318.38 -57.1176 342.425 -49.1267 359.291C-41.1315 376.141 -48.0145 385.047 -48.0145 385.047L-40.0328 374.693Z" fill="#FFE2E2" stroke="#FC8D3D" stroke-width="2" stroke-miterlimit="10"/>
<path d="M360.378 -25.2122C360.378 -25.2122 164.74 45.8511 157.686 51.9401C150.62 58.0316 149.692 64.8725 156.066 63.5782C162.441 62.284 185.908 54.4441 187.884 54.3692C189.861 54.2944 151.886 66.1214 150.179 72.4553C148.472 78.7892 153.325 78.1428 162.001 76.7077C168.896 75.5714 189.081 68.8372 193.312 67.9028C193.553 67.854 193.657 68.1842 193.441 68.2909C188.265 70.7979 163.783 82.7725 156.911 87.2304C148.701 92.5624 154.786 98.0424 170.899 90.7417L181.676 85.7169C181.928 85.6029 198.961 81.2284 198.745 81.3978C196.162 83.4787 188.728 84.0591 183.749 89.4507C176.942 96.82 167.37 108.579 168.278 113.052C169.186 117.524 175.756 117.194 177.982 113.416C180.208 109.638 192.933 98.3556 192.933 98.3556C192.933 98.3556 219.813 90.9149 221.154 90.9816C222.495 91.0482 207.924 101.626 206.263 108.126C205.039 112.893 207.212 122.607 210.788 123.876C214.365 125.146 219.431 114.138 222.866 111.445C226.302 108.752 232.828 101.728 239.984 97.8652C249.059 92.9725 359.666 34.1275 359.666 34.1275C359.666 34.1275 365.976 10.8677 363.938 -7.68442C361.89 -26.2221 371.306 -32.389 371.306 -32.389L360.378 -25.2122Z" fill="#FFE2E2" stroke="#FC8D3D" stroke-width="2" stroke-miterlimit="10"/>
<path d="M281.963 231.777C281.963 231.777 188.542 208.322 181.091 202.666C173.64 197.011 172.283 190.264 178.759 191.172C185.236 192.079 209.254 198.495 211.24 198.446C213.226 198.397 174.404 188.878 172.32 182.67C170.235 176.463 175.132 176.831 183.916 177.739C190.898 178.462 211.561 183.958 215.866 184.645C216.113 184.682 216.199 184.351 215.977 184.253C210.636 182.069 185.347 171.593 178.179 167.569C169.618 162.76 175.404 156.933 192.008 163.239L203.123 167.593C203.382 167.692 220.739 171.041 220.517 170.881C217.791 168.967 210.315 168.832 204.986 163.754C197.72 156.823 187.394 145.684 188.036 141.182C188.677 136.679 195.29 136.618 197.744 140.249C200.199 143.88 213.658 154.357 213.658 154.357C213.658 154.357 241.069 160.172 242.414 160.024C243.758 159.877 228.498 150.21 226.426 143.844C224.909 139.17 226.5 129.368 230.016 127.896C233.532 126.424 239.28 137.072 242.882 139.55C246.485 142.028 253.467 148.628 260.881 152.051C273.242 156.025 391.052 212.455 391.052 212.455C391.052 212.455 401.241 208.603 400.304 227.176C399.366 245.749 372.547 260.912 372.547 260.912L281.963 231.777Z" fill="#FFE2E2" stroke="#FC8D3D" stroke-width="2" stroke-miterlimit="10"/>
<path d="M29.6734 29.39C29.6734 29.39 107.843 85.6688 112.681 93.6748C117.518 101.681 116.289 108.452 110.605 105.218C104.921 101.984 84.9661 87.157 83.1021 86.4696C81.2381 85.7821 113.806 108.958 113.452 115.496C113.099 122.035 108.683 119.885 100.855 115.8C94.6328 112.55 77.4569 99.8163 73.7091 97.5888C73.4934 97.4636 73.2909 97.7395 73.461 97.9127C77.6196 101.914 97.2567 120.984 102.433 127.369C108.615 134.998 101.087 138.278 87.9822 126.29L79.2593 118.14C79.0548 117.953 64.1592 108.435 64.3067 108.665C66.1343 111.45 73.0324 114.334 76.1109 121.021C80.3059 130.145 85.7912 144.308 83.5334 148.255C81.2756 152.203 75.1076 149.82 74.1662 145.539C73.2248 141.258 64.5828 126.554 64.5828 126.554C64.5828 126.554 41.2531 111.033 39.9491 110.674C38.645 110.314 49.2598 124.93 48.8361 131.613C48.5214 136.517 43.4248 145.039 39.6139 145.11C35.803 145.18 34.3901 133.162 31.9569 129.53C29.5236 125.897 25.4701 117.186 19.8427 111.269C9.82135 103.013 -78.8446 7.08624 -78.8446 7.08624C-78.8446 7.08624 -89.7365 6.90558 -82.0104 -10.0101C-74.2843 -26.9259 -43.7628 -31.12 -43.7628 -31.12L29.6734 29.39Z" fill="#FFE2E2" stroke="#FC8D3D" stroke-width="2" stroke-miterlimit="10"/>
</g>
<defs>
<clipPath id="clip0_1_492">
<rect width="296" height="296" rx="56" fill="white"/>
</clipPath>
</defs>
</svg>
