<svg xmlns="http://www.w3.org/2000/svg" id="Layer_1" data-name="Layer 1" viewBox="39.59 205.69 539.26 259.31">
  <defs>
    <style>
      .cls-1 {
        fill: white;
        stroke-width: 0px;
      }
    </style>
  </defs>
  <path class="cls-1" d="M535.77,209.35c-10.28,0-19.71,3.77-27.12,10.06-7.41-6.29-16.84-10.06-27.12-10.06-23.79,0-43.07,20.17-43.07,45.05v79.15h30.42v-75.04c0-9.74,5.58-17.64,12.47-17.64h.46c6.88,0,12.47,7.9,12.47,17.64v75.04h28.75v-75.04c0-9.74,5.58-17.64,12.47-17.64h.46c6.88,0,12.47,7.9,12.47,17.64v75.04h30.42v-79.15c0-24.88-19.28-45.05-43.07-45.05Z"/>
  <path class="cls-1" d="M136.91,290.1c-6.39,10.79-18.13,18.03-31.58,18.03-20.26,0-36.68-16.42-36.68-36.68s16.42-36.68,36.68-36.68c13.44,0,25.19,7.24,31.58,18.03l25.04-14.79c-11.45-19.34-32.51-32.32-56.61-32.32-36.31,0-65.75,29.44-65.75,65.75s29.44,65.75,65.75,65.75c24.1,0,45.17-12.98,56.61-32.32l-25.04-14.79Z"/>
  <path class="cls-1" d="M386.16,290.1c-6.39,10.79-18.13,18.03-31.58,18.03-20.26,0-36.68-16.42-36.68-36.68s16.42-36.68,36.68-36.68c13.44,0,25.19,7.24,31.58,18.03l25.04-14.79c-11.45-19.34-32.51-32.32-56.61-32.32-36.31,0-65.75,29.44-65.75,65.75s29.44,65.75,65.75,65.75c24.1,0,45.17-12.98,56.61-32.32l-25.04-14.79Z"/>
  <path class="cls-1" d="M361.72,361.48c-29.62,43.62-79.63,72.27-136.33,72.27s-106.7-28.66-136.33-72.27h-37.92c33.63,61.67,99.05,103.52,174.25,103.52s140.61-41.84,174.25-103.52h-37.92Z"/>
  <g>
    <path class="cls-1" d="M211.14,333.54h28.49v-47.06c0-5.95-6.26-10.77-13.99-10.77h-.52c-7.73,0-13.99,4.82-13.99,10.77v47.06Z"/>
    <path class="cls-1" d="M238.02,213.7v47.27c0,7.62-5.55,13.79-12.4,13.79h-.46c-6.85,0-12.4-6.17-12.4-13.79v-47.27h-30.44v45.88c0,24.88,19.28,45.05,43.07,45.05h0c23.79,0,43.07-20.17,43.07-45.05v-45.88h-30.44Z"/>
  </g>
</svg>