<svg width="564" height="1097" viewBox="0 0 564 1097" fill="none" xmlns="http://www.w3.org/2000/svg">
<path d="M85.2 407V277L96.6 288.8H55.6V267H111.2V407H85.2ZM196.012 409C184.412 409 174.345 407.267 165.812 403.8C157.279 400.333 150.679 395.467 146.012 389.2C141.345 382.8 139.012 375.333 139.012 366.8C139.012 358.267 141.279 351.067 145.812 345.2C150.345 339.333 156.879 334.867 165.412 331.8C173.945 328.733 184.145 327.2 196.012 327.2C207.879 327.2 218.079 328.733 226.612 331.8C235.279 334.867 241.879 339.4 246.412 345.4C251.079 351.267 253.412 358.4 253.412 366.8C253.412 375.333 251.012 382.8 246.212 389.2C241.545 395.467 234.879 400.333 226.212 403.8C217.679 407.267 207.612 409 196.012 409ZM196.012 388.6C205.612 388.6 213.212 386.6 218.812 382.6C224.412 378.6 227.212 373.067 227.212 366C227.212 359.067 224.412 353.6 218.812 349.6C213.212 345.6 205.612 343.6 196.012 343.6C186.412 343.6 178.879 345.6 173.412 349.6C167.945 353.6 165.212 359.067 165.212 366C165.212 373.067 167.945 378.6 173.412 382.6C178.879 386.6 186.412 388.6 196.012 388.6ZM196.012 340.8C185.212 340.8 175.945 339.4 168.212 336.6C160.479 333.667 154.479 329.467 150.212 324C146.079 318.4 144.012 311.733 144.012 304C144.012 296 146.145 289.133 150.412 283.4C154.812 277.533 160.945 273 168.812 269.8C176.679 266.6 185.745 265 196.012 265C206.412 265 215.545 266.6 223.412 269.8C231.279 273 237.412 277.533 241.812 283.4C246.212 289.133 248.412 296 248.412 304C248.412 311.733 246.279 318.4 242.012 324C237.879 329.467 231.879 333.667 224.012 336.6C216.145 339.4 206.812 340.8 196.012 340.8ZM196.012 324.8C204.279 324.8 210.812 323.067 215.612 319.6C220.412 316 222.812 311.2 222.812 305.2C222.812 298.933 220.345 294.067 215.412 290.6C210.479 287.133 204.012 285.4 196.012 285.4C188.012 285.4 181.612 287.133 176.812 290.6C172.012 294.067 169.612 298.933 169.612 305.2C169.612 311.2 171.945 316 176.612 319.6C181.412 323.067 187.879 324.8 196.012 324.8ZM64.246 508V431.7H99.998C109.154 431.7 116.13 433.517 120.926 437.15C125.722 440.711 128.12 445.507 128.12 451.538C128.12 455.607 127.175 459.095 125.286 462.002C123.397 464.836 120.853 467.052 117.656 468.651C114.531 470.177 111.116 470.94 107.41 470.94L109.372 467.016C113.659 467.016 117.511 467.815 120.926 469.414C124.341 470.94 127.03 473.193 128.992 476.172C131.027 479.151 132.044 482.857 132.044 487.29C132.044 493.83 129.537 498.917 124.523 502.55C119.509 506.183 112.061 508 102.178 508H64.246ZM78.416 496.882H101.306C106.611 496.882 110.68 496.01 113.514 494.266C116.348 492.522 117.765 489.724 117.765 485.873C117.765 482.094 116.348 479.333 113.514 477.589C110.68 475.772 106.611 474.864 101.306 474.864H77.326V463.855H98.472C103.413 463.855 107.192 462.983 109.808 461.239C112.497 459.495 113.841 456.879 113.841 453.391C113.841 449.83 112.497 447.178 109.808 445.434C107.192 443.69 103.413 442.818 98.472 442.818H78.416V496.882ZM148.007 508V431.7H162.177V508H148.007ZM183.655 508V431.7H197.825V496.01H237.719V508H183.655ZM249.745 508V431.7H263.915V496.01H303.81V508H249.745ZM315.836 508V431.7H330.006V508H315.836ZM387.236 509.09C381.277 509.09 375.791 508.109 370.777 506.147C365.763 504.185 361.403 501.46 357.697 497.972C353.991 494.411 351.121 490.269 349.086 485.546C347.051 480.75 346.034 475.518 346.034 469.85C346.034 464.182 347.051 458.986 349.086 454.263C351.121 449.467 353.991 445.325 357.697 441.837C361.403 438.276 365.763 435.515 370.777 433.553C375.791 431.591 381.241 430.61 387.127 430.61C393.086 430.61 398.536 431.591 403.477 433.553C408.491 435.515 412.851 438.276 416.557 441.837C420.263 445.325 423.133 449.467 425.168 454.263C427.203 458.986 428.22 464.182 428.22 469.85C428.22 475.518 427.203 480.75 425.168 485.546C423.133 490.342 420.263 494.484 416.557 497.972C412.851 501.46 408.491 504.185 403.477 506.147C398.536 508.109 393.122 509.09 387.236 509.09ZM387.127 496.664C390.978 496.664 394.539 496.01 397.809 494.702C401.079 493.394 403.913 491.541 406.311 489.143C408.709 486.672 410.562 483.838 411.87 480.641C413.251 477.371 413.941 473.774 413.941 469.85C413.941 465.926 413.251 462.365 411.87 459.168C410.562 455.898 408.709 453.064 406.311 450.666C403.913 448.195 401.079 446.306 397.809 444.998C394.539 443.69 390.978 443.036 387.127 443.036C383.276 443.036 379.715 443.69 376.445 444.998C373.248 446.306 370.414 448.195 367.943 450.666C365.545 453.064 363.656 455.898 362.275 459.168C360.967 462.365 360.313 465.926 360.313 469.85C360.313 473.701 360.967 477.262 362.275 480.532C363.656 483.802 365.545 486.672 367.943 489.143C370.341 491.541 373.175 493.394 376.445 494.702C379.715 496.01 383.276 496.664 387.127 496.664ZM444.08 508V431.7H455.743L503.594 490.451H497.817V431.7H511.878V508H500.215L452.364 449.249H458.141V508H444.08ZM64.752 570L53.76 544.368H60L69.456 566.976H66.384L76.176 544.368H81.936L70.944 570H64.752ZM86.526 570V544.368H92.526V570H86.526ZM89.55 540.144C88.43 540.144 87.502 539.792 86.766 539.088C86.062 538.384 85.71 537.536 85.71 536.544C85.71 535.52 86.062 534.672 86.766 534C87.502 533.296 88.43 532.944 89.55 532.944C90.67 532.944 91.582 533.28 92.286 533.952C93.022 534.592 93.39 535.408 93.39 536.4C93.39 537.456 93.038 538.352 92.334 539.088C91.63 539.792 90.702 540.144 89.55 540.144ZM113.289 570.336C110.441 570.336 107.945 569.776 105.801 568.656C103.689 567.504 102.041 565.936 100.857 563.952C99.705 561.968 99.129 559.712 99.129 557.184C99.129 554.624 99.689 552.368 100.809 550.416C101.961 548.432 103.529 546.88 105.513 545.76C107.529 544.64 109.817 544.08 112.377 544.08C114.873 544.08 117.097 544.624 119.049 545.712C121.001 546.8 122.537 548.336 123.657 550.32C124.777 552.304 125.337 554.64 125.337 557.328C125.337 557.584 125.321 557.872 125.289 558.192C125.289 558.512 125.273 558.816 125.241 559.104H103.881V555.12H122.073L119.721 556.368C119.753 554.896 119.449 553.6 118.809 552.48C118.169 551.36 117.289 550.48 116.169 549.84C115.081 549.2 113.817 548.88 112.377 548.88C110.905 548.88 109.609 549.2 108.489 549.84C107.401 550.48 106.537 551.376 105.897 552.528C105.289 553.648 104.985 554.976 104.985 556.512V557.472C104.985 559.008 105.337 560.368 106.041 561.552C106.745 562.736 107.737 563.648 109.017 564.288C110.297 564.928 111.769 565.248 113.433 565.248C114.873 565.248 116.169 565.024 117.321 564.576C118.473 564.128 119.497 563.424 120.393 562.464L123.609 566.16C122.457 567.504 121.001 568.544 119.241 569.28C117.513 569.984 115.529 570.336 113.289 570.336ZM137.136 570L127.728 544.368H133.392L141.456 566.976H138.768L147.216 544.368H152.256L160.464 566.976H157.824L166.128 544.368H171.456L162 570H156.24L148.752 549.984H150.528L142.896 570H137.136ZM184.013 570.336C181.869 570.336 179.805 570.064 177.821 569.52C175.869 568.944 174.317 568.256 173.165 567.456L175.469 562.896C176.621 563.632 177.997 564.24 179.597 564.72C181.197 565.2 182.797 565.44 184.397 565.44C186.285 565.44 187.645 565.184 188.477 564.672C189.341 564.16 189.773 563.472 189.773 562.608C189.773 561.904 189.485 561.376 188.909 561.024C188.333 560.64 187.581 560.352 186.653 560.16C185.725 559.968 184.685 559.792 183.533 559.632C182.413 559.472 181.277 559.264 180.125 559.008C179.005 558.72 177.981 558.32 177.053 557.808C176.125 557.264 175.373 556.544 174.797 555.648C174.221 554.752 173.933 553.568 173.933 552.096C173.933 550.464 174.397 549.056 175.325 547.872C176.253 546.656 177.549 545.728 179.213 545.088C180.909 544.416 182.909 544.08 185.213 544.08C186.941 544.08 188.685 544.272 190.445 544.656C192.205 545.04 193.661 545.584 194.813 546.288L192.509 550.848C191.293 550.112 190.061 549.616 188.813 549.36C187.597 549.072 186.381 548.928 185.165 548.928C183.341 548.928 181.981 549.2 181.085 549.744C180.221 550.288 179.789 550.976 179.789 551.808C179.789 552.576 180.077 553.152 180.653 553.536C181.229 553.92 181.981 554.224 182.909 554.448C183.837 554.672 184.861 554.864 185.981 555.024C187.133 555.152 188.269 555.36 189.389 555.648C190.509 555.936 191.533 556.336 192.461 556.848C193.421 557.328 194.189 558.016 194.765 558.912C195.341 559.808 195.629 560.976 195.629 562.416C195.629 564.016 195.149 565.408 194.189 566.592C193.261 567.776 191.933 568.704 190.205 569.376C188.477 570.016 186.413 570.336 184.013 570.336ZM230.286 544.08C232.334 544.08 234.158 544.48 235.758 545.28C237.39 546.08 238.67 547.312 239.598 548.976C240.526 550.608 240.99 552.72 240.99 555.312V570H234.99V556.08C234.99 553.808 234.446 552.112 233.358 550.992C232.302 549.872 230.814 549.312 228.894 549.312C227.486 549.312 226.238 549.6 225.15 550.176C224.062 550.752 223.214 551.616 222.606 552.768C222.03 553.888 221.742 555.312 221.742 557.04V570H215.742V534.384H221.742V551.28L220.446 549.168C221.342 547.536 222.638 546.288 224.334 545.424C226.062 544.528 228.046 544.08 230.286 544.08ZM265.233 570V564.816L264.897 563.712V554.64C264.897 552.88 264.369 551.52 263.313 550.56C262.257 549.568 260.657 549.072 258.513 549.072C257.073 549.072 255.649 549.296 254.241 549.744C252.865 550.192 251.697 550.816 250.737 551.616L248.385 547.248C249.761 546.192 251.393 545.408 253.281 544.896C255.201 544.352 257.185 544.08 259.233 544.08C262.945 544.08 265.809 544.976 267.825 546.768C269.873 548.528 270.897 551.264 270.897 554.976V570H265.233ZM257.169 570.336C255.249 570.336 253.569 570.016 252.129 569.376C250.689 568.704 249.569 567.792 248.769 566.64C248.001 565.456 247.617 564.128 247.617 562.656C247.617 561.216 247.953 559.92 248.625 558.768C249.329 557.616 250.465 556.704 252.033 556.032C253.601 555.36 255.681 555.024 258.273 555.024H265.713V559.008H258.705C256.657 559.008 255.281 559.344 254.577 560.016C253.873 560.656 253.521 561.456 253.521 562.416C253.521 563.504 253.953 564.368 254.817 565.008C255.681 565.648 256.881 565.968 258.417 565.968C259.889 565.968 261.201 565.632 262.353 564.96C263.537 564.288 264.385 563.296 264.897 561.984L265.905 565.584C265.329 567.088 264.289 568.256 262.785 569.088C261.313 569.92 259.441 570.336 257.169 570.336ZM285.785 570L274.793 544.368H281.033L290.489 566.976H287.417L297.209 544.368H302.969L291.977 570H285.785ZM318.903 570.336C316.055 570.336 313.559 569.776 311.415 568.656C309.303 567.504 307.655 565.936 306.471 563.952C305.319 561.968 304.743 559.712 304.743 557.184C304.743 554.624 305.303 552.368 306.423 550.416C307.575 548.432 309.143 546.88 311.127 545.76C313.143 544.64 315.431 544.08 317.991 544.08C320.487 544.08 322.711 544.624 324.663 545.712C326.615 546.8 328.151 548.336 329.271 550.32C330.391 552.304 330.951 554.64 330.951 557.328C330.951 557.584 330.935 557.872 330.903 558.192C330.903 558.512 330.887 558.816 330.855 559.104H309.495V555.12H327.687L325.335 556.368C325.367 554.896 325.063 553.6 324.423 552.48C323.783 551.36 322.903 550.48 321.783 549.84C320.695 549.2 319.431 548.88 317.991 548.88C316.519 548.88 315.223 549.2 314.103 549.84C313.015 550.48 312.151 551.376 311.511 552.528C310.903 553.648 310.599 554.976 310.599 556.512V557.472C310.599 559.008 310.951 560.368 311.655 561.552C312.359 562.736 313.351 563.648 314.631 564.288C315.911 564.928 317.383 565.248 319.047 565.248C320.487 565.248 321.783 565.024 322.935 564.576C324.087 564.128 325.111 563.424 326.007 562.464L329.223 566.16C328.071 567.504 326.615 568.544 324.855 569.28C323.127 569.984 321.143 570.336 318.903 570.336ZM365.868 570.336C363.692 570.336 361.756 569.856 360.06 568.896C358.364 567.936 357.02 566.496 356.028 564.576C355.068 562.624 354.588 560.16 354.588 557.184C354.588 554.176 355.084 551.712 356.076 549.792C357.1 547.872 358.46 546.448 360.156 545.52C361.884 544.56 363.788 544.08 365.868 544.08C368.396 544.08 370.62 544.624 372.54 545.712C374.492 546.8 376.028 548.32 377.148 550.272C378.3 552.224 378.876 554.528 378.876 557.184C378.876 559.84 378.3 562.144 377.148 564.096C376.028 566.048 374.492 567.584 372.54 568.704C370.62 569.792 368.396 570.336 365.868 570.336ZM351.66 570V534.384H357.66V550.32L357.18 557.136L357.372 563.952V570H351.66ZM365.196 565.2C366.636 565.2 367.916 564.88 369.036 564.24C370.188 563.6 371.1 562.672 371.772 561.456C372.444 560.24 372.78 558.816 372.78 557.184C372.78 555.52 372.444 554.096 371.772 552.912C371.1 551.696 370.188 550.768 369.036 550.128C367.916 549.488 366.636 549.168 365.196 549.168C363.756 549.168 362.46 549.488 361.308 550.128C360.156 550.768 359.244 551.696 358.572 552.912C357.9 554.096 357.564 555.52 357.564 557.184C357.564 558.816 357.9 560.24 358.572 561.456C359.244 562.672 360.156 563.6 361.308 564.24C362.46 564.88 363.756 565.2 365.196 565.2ZM397.455 570.336C394.607 570.336 392.111 569.776 389.967 568.656C387.855 567.504 386.207 565.936 385.023 563.952C383.871 561.968 383.295 559.712 383.295 557.184C383.295 554.624 383.855 552.368 384.975 550.416C386.127 548.432 387.695 546.88 389.679 545.76C391.695 544.64 393.983 544.08 396.543 544.08C399.039 544.08 401.263 544.624 403.215 545.712C405.167 546.8 406.703 548.336 407.823 550.32C408.943 552.304 409.503 554.64 409.503 557.328C409.503 557.584 409.487 557.872 409.455 558.192C409.455 558.512 409.439 558.816 409.407 559.104H388.047V555.12H406.239L403.887 556.368C403.919 554.896 403.615 553.6 402.975 552.48C402.335 551.36 401.455 550.48 400.335 549.84C399.247 549.2 397.983 548.88 396.543 548.88C395.071 548.88 393.775 549.2 392.655 549.84C391.567 550.48 390.703 551.376 390.063 552.528C389.455 553.648 389.151 554.976 389.151 556.512V557.472C389.151 559.008 389.503 560.368 390.207 561.552C390.911 562.736 391.903 563.648 393.183 564.288C394.463 564.928 395.935 565.248 397.599 565.248C399.039 565.248 400.335 565.024 401.487 564.576C402.639 564.128 403.663 563.424 404.559 562.464L407.775 566.16C406.623 567.504 405.167 568.544 403.407 569.28C401.679 569.984 399.695 570.336 397.455 570.336ZM428.154 570.336C425.306 570.336 422.81 569.776 420.666 568.656C418.554 567.504 416.906 565.936 415.722 563.952C414.57 561.968 413.994 559.712 413.994 557.184C413.994 554.624 414.554 552.368 415.674 550.416C416.826 548.432 418.394 546.88 420.378 545.76C422.394 544.64 424.682 544.08 427.242 544.08C429.738 544.08 431.962 544.624 433.914 545.712C435.866 546.8 437.402 548.336 438.522 550.32C439.642 552.304 440.202 554.64 440.202 557.328C440.202 557.584 440.186 557.872 440.154 558.192C440.154 558.512 440.138 558.816 440.106 559.104H418.746V555.12H436.938L434.586 556.368C434.618 554.896 434.314 553.6 433.674 552.48C433.034 551.36 432.154 550.48 431.034 549.84C429.946 549.2 428.682 548.88 427.242 548.88C425.77 548.88 424.474 549.2 423.354 549.84C422.266 550.48 421.402 551.376 420.762 552.528C420.154 553.648 419.85 554.976 419.85 556.512V557.472C419.85 559.008 420.202 560.368 420.906 561.552C421.61 562.736 422.602 563.648 423.882 564.288C425.162 564.928 426.634 565.248 428.298 565.248C429.738 565.248 431.034 565.024 432.186 564.576C433.338 564.128 434.362 563.424 435.258 562.464L438.474 566.16C437.322 567.504 435.866 568.544 434.106 569.28C432.378 569.984 430.394 570.336 428.154 570.336ZM461.349 544.08C463.397 544.08 465.221 544.48 466.821 545.28C468.453 546.08 469.733 547.312 470.661 548.976C471.589 550.608 472.053 552.72 472.053 555.312V570H466.053V556.08C466.053 553.808 465.509 552.112 464.421 550.992C463.365 549.872 461.877 549.312 459.957 549.312C458.549 549.312 457.301 549.6 456.213 550.176C455.125 550.752 454.277 551.616 453.669 552.768C453.093 553.888 452.805 555.312 452.805 557.04V570H446.805V544.368H452.517V551.28L451.509 549.168C452.405 547.536 453.701 546.288 455.397 545.424C457.125 544.528 459.109 544.08 461.349 544.08ZM69.552 641.648C67.184 641.648 64.864 641.328 62.592 640.688C60.352 640.08 58.512 639.184 57.072 638L59.76 633.488C60.88 634.416 62.288 635.152 63.984 635.696C65.712 636.272 67.456 636.56 69.216 636.56C72.032 636.56 74.096 635.904 75.408 634.592C76.72 633.312 77.376 631.376 77.376 628.784V624.224L77.856 618.416L77.664 612.608V606.368H83.376V628.112C83.376 632.752 82.192 636.16 79.824 638.336C77.456 640.544 74.032 641.648 69.552 641.648ZM68.784 630.848C66.352 630.848 64.144 630.336 62.16 629.312C60.208 628.256 58.656 626.8 57.504 624.944C56.384 623.088 55.824 620.912 55.824 618.416C55.824 615.952 56.384 613.792 57.504 611.936C58.656 610.08 60.208 608.64 62.16 607.616C64.144 606.592 66.352 606.08 68.784 606.08C70.96 606.08 72.912 606.512 74.64 607.376C76.368 608.24 77.744 609.584 78.768 611.408C79.824 613.232 80.352 615.568 80.352 618.416C80.352 621.264 79.824 623.616 78.768 625.472C77.744 627.296 76.368 628.656 74.64 629.552C72.912 630.416 70.96 630.848 68.784 630.848ZM69.696 625.76C71.2 625.76 72.544 625.456 73.728 624.848C74.912 624.208 75.824 623.344 76.464 622.256C77.136 621.136 77.472 619.856 77.472 618.416C77.472 616.976 77.136 615.712 76.464 614.624C75.824 613.504 74.912 612.656 73.728 612.08C72.544 611.472 71.2 611.168 69.696 611.168C68.192 611.168 66.832 611.472 65.616 612.08C64.432 612.656 63.504 613.504 62.832 614.624C62.192 615.712 61.872 616.976 61.872 618.416C61.872 619.856 62.192 621.136 62.832 622.256C63.504 623.344 64.432 624.208 65.616 624.848C66.832 625.456 68.192 625.76 69.696 625.76ZM107.896 632V626.816L107.56 625.712V616.64C107.56 614.88 107.032 613.52 105.976 612.56C104.92 611.568 103.32 611.072 101.176 611.072C99.7361 611.072 98.3121 611.296 96.9041 611.744C95.5281 612.192 94.3601 612.816 93.4001 613.616L91.0481 609.248C92.4241 608.192 94.0561 607.408 95.9441 606.896C97.8641 606.352 99.8481 606.08 101.896 606.08C105.608 606.08 108.472 606.976 110.488 608.768C112.536 610.528 113.56 613.264 113.56 616.976V632H107.896ZM99.8321 632.336C97.9121 632.336 96.2321 632.016 94.7921 631.376C93.3521 630.704 92.2321 629.792 91.4321 628.64C90.6641 627.456 90.2801 626.128 90.2801 624.656C90.2801 623.216 90.6161 621.92 91.2881 620.768C91.9921 619.616 93.1281 618.704 94.6961 618.032C96.2641 617.36 98.3441 617.024 100.936 617.024H108.376V621.008H101.368C99.3201 621.008 97.9441 621.344 97.2401 622.016C96.5361 622.656 96.1841 623.456 96.1841 624.416C96.1841 625.504 96.6161 626.368 97.4801 627.008C98.3441 627.648 99.5441 627.968 101.08 627.968C102.552 627.968 103.864 627.632 105.016 626.96C106.2 626.288 107.048 625.296 107.56 623.984L108.568 627.584C107.992 629.088 106.952 630.256 105.448 631.088C103.976 631.92 102.104 632.336 99.8321 632.336ZM122.1 632V606.368H127.812V613.424L127.14 611.36C127.908 609.632 129.108 608.32 130.74 607.424C132.404 606.528 134.468 606.08 136.932 606.08V611.792C136.676 611.728 136.436 611.696 136.212 611.696C135.988 611.664 135.764 611.648 135.54 611.648C133.268 611.648 131.46 612.32 130.116 613.664C128.772 614.976 128.1 616.944 128.1 619.568V632H122.1ZM157.406 606.08C159.454 606.08 161.278 606.48 162.878 607.28C164.51 608.08 165.79 609.312 166.718 610.976C167.646 612.608 168.11 614.72 168.11 617.312V632H162.11V618.08C162.11 615.808 161.566 614.112 160.478 612.992C159.422 611.872 157.934 611.312 156.014 611.312C154.606 611.312 153.358 611.6 152.27 612.176C151.182 612.752 150.334 613.616 149.726 614.768C149.15 615.888 148.862 617.312 148.862 619.04V632H142.862V606.368H148.574V613.28L147.566 611.168C148.462 609.536 149.758 608.288 151.454 607.424C153.182 606.528 155.166 606.08 157.406 606.08ZM188.657 632.336C185.809 632.336 183.313 631.776 181.169 630.656C179.057 629.504 177.409 627.936 176.225 625.952C175.073 623.968 174.497 621.712 174.497 619.184C174.497 616.624 175.057 614.368 176.177 612.416C177.329 610.432 178.897 608.88 180.881 607.76C182.897 606.64 185.185 606.08 187.745 606.08C190.241 606.08 192.465 606.624 194.417 607.712C196.369 608.8 197.905 610.336 199.025 612.32C200.145 614.304 200.705 616.64 200.705 619.328C200.705 619.584 200.689 619.872 200.657 620.192C200.657 620.512 200.641 620.816 200.609 621.104H179.249V617.12H197.441L195.089 618.368C195.121 616.896 194.817 615.6 194.177 614.48C193.537 613.36 192.657 612.48 191.537 611.84C190.449 611.2 189.185 610.88 187.745 610.88C186.273 610.88 184.977 611.2 183.857 611.84C182.769 612.48 181.905 613.376 181.265 614.528C180.657 615.648 180.353 616.976 180.353 618.512V619.472C180.353 621.008 180.705 622.368 181.409 623.552C182.113 624.736 183.105 625.648 184.385 626.288C185.665 626.928 187.137 627.248 188.801 627.248C190.241 627.248 191.537 627.024 192.689 626.576C193.841 626.128 194.865 625.424 195.761 624.464L198.977 628.16C197.825 629.504 196.369 630.544 194.609 631.28C192.881 631.984 190.897 632.336 188.657 632.336ZM207.308 632V606.368H213.02V613.424L212.348 611.36C213.116 609.632 214.316 608.32 215.948 607.424C217.612 606.528 219.676 606.08 222.14 606.08V611.792C221.884 611.728 221.644 611.696 221.42 611.696C221.196 611.664 220.972 611.648 220.748 611.648C218.476 611.648 216.668 612.32 215.324 613.664C213.98 614.976 213.308 616.944 213.308 619.568V632H207.308ZM239.883 632.336C237.035 632.336 234.539 631.776 232.395 630.656C230.283 629.504 228.635 627.936 227.451 625.952C226.299 623.968 225.723 621.712 225.723 619.184C225.723 616.624 226.283 614.368 227.403 612.416C228.555 610.432 230.123 608.88 232.107 607.76C234.123 606.64 236.411 606.08 238.971 606.08C241.467 606.08 243.691 606.624 245.643 607.712C247.595 608.8 249.131 610.336 250.251 612.32C251.371 614.304 251.931 616.64 251.931 619.328C251.931 619.584 251.915 619.872 251.883 620.192C251.883 620.512 251.867 620.816 251.835 621.104H230.475V617.12H248.667L246.315 618.368C246.347 616.896 246.043 615.6 245.403 614.48C244.763 613.36 243.883 612.48 242.763 611.84C241.675 611.2 240.411 610.88 238.971 610.88C237.499 610.88 236.203 611.2 235.083 611.84C233.995 612.48 233.131 613.376 232.491 614.528C231.883 615.648 231.579 616.976 231.579 618.512V619.472C231.579 621.008 231.931 622.368 232.635 623.552C233.339 624.736 234.331 625.648 235.611 626.288C236.891 626.928 238.363 627.248 240.027 627.248C241.467 627.248 242.763 627.024 243.915 626.576C245.067 626.128 246.091 625.424 246.987 624.464L250.203 628.16C249.051 629.504 247.595 630.544 245.835 631.28C244.107 631.984 242.123 632.336 239.883 632.336ZM269.383 632.336C266.919 632.336 264.695 631.792 262.711 630.704C260.759 629.584 259.223 628.048 258.103 626.096C256.983 624.144 256.423 621.84 256.423 619.184C256.423 616.528 256.983 614.224 258.103 612.272C259.223 610.32 260.759 608.8 262.711 607.712C264.695 606.624 266.919 606.08 269.383 606.08C271.527 606.08 273.447 606.56 275.143 607.52C276.839 608.448 278.183 609.872 279.175 611.792C280.167 613.712 280.663 616.176 280.663 619.184C280.663 622.16 280.183 624.624 279.223 626.576C278.263 628.496 276.935 629.936 275.239 630.896C273.543 631.856 271.591 632.336 269.383 632.336ZM270.103 627.2C271.543 627.2 272.823 626.88 273.943 626.24C275.095 625.6 276.007 624.672 276.679 623.456C277.383 622.24 277.735 620.816 277.735 619.184C277.735 617.52 277.383 616.096 276.679 614.912C276.007 613.696 275.095 612.768 273.943 612.128C272.823 611.488 271.543 611.168 270.103 611.168C268.663 611.168 267.367 611.488 266.215 612.128C265.095 612.768 264.183 613.696 263.479 614.912C262.807 616.096 262.471 617.52 262.471 619.184C262.471 620.816 262.807 622.24 263.479 623.456C264.183 624.672 265.095 625.6 266.215 626.24C267.367 626.88 268.663 627.2 270.103 627.2ZM277.879 632V625.952L278.119 619.136L277.639 612.32V596.384H283.591V632H277.879ZM320.641 632.336C318.465 632.336 316.529 631.856 314.833 630.896C313.137 629.936 311.793 628.496 310.801 626.576C309.841 624.624 309.361 622.16 309.361 619.184C309.361 616.176 309.857 613.712 310.849 611.792C311.873 609.872 313.233 608.448 314.929 607.52C316.657 606.56 318.561 606.08 320.641 606.08C323.169 606.08 325.393 606.624 327.313 607.712C329.265 608.8 330.801 610.32 331.921 612.272C333.073 614.224 333.649 616.528 333.649 619.184C333.649 621.84 333.073 624.144 331.921 626.096C330.801 628.048 329.265 629.584 327.313 630.704C325.393 631.792 323.169 632.336 320.641 632.336ZM306.433 632V596.384H312.433V612.32L311.953 619.136L312.145 625.952V632H306.433ZM319.969 627.2C321.409 627.2 322.689 626.88 323.809 626.24C324.961 625.6 325.873 624.672 326.545 623.456C327.217 622.24 327.553 620.816 327.553 619.184C327.553 617.52 327.217 616.096 326.545 614.912C325.873 613.696 324.961 612.768 323.809 612.128C322.689 611.488 321.409 611.168 319.969 611.168C318.529 611.168 317.233 611.488 316.081 612.128C314.929 612.768 314.017 613.696 313.345 614.912C312.673 616.096 312.337 617.52 312.337 619.184C312.337 620.816 312.673 622.24 313.345 623.456C314.017 624.672 314.929 625.6 316.081 626.24C317.233 626.88 318.529 627.2 319.969 627.2ZM341.589 641.648C340.341 641.648 339.093 641.44 337.845 641.024C336.597 640.608 335.557 640.032 334.725 639.296L337.125 634.88C337.733 635.424 338.421 635.856 339.189 636.176C339.957 636.496 340.741 636.656 341.541 636.656C342.629 636.656 343.509 636.384 344.181 635.84C344.853 635.296 345.477 634.384 346.053 633.104L347.541 629.744L348.021 629.024L357.717 606.368H363.477L351.477 634.064C350.677 635.984 349.781 637.504 348.789 638.624C347.829 639.744 346.741 640.528 345.525 640.976C344.341 641.424 343.029 641.648 341.589 641.648ZM346.869 632.912L335.301 606.368H341.541L350.949 628.496L346.869 632.912ZM73.056 694L77.184 660.4H81.552L77.424 694H73.056ZM55.104 685.84V681.472H85.44V685.84H55.104ZM60.576 694L64.752 660.4H69.12L64.944 694H60.576ZM56.736 672.928V668.56H86.976L87.024 672.928H56.736ZM125.253 668.08C127.301 668.08 129.109 668.48 130.677 669.28C132.277 670.08 133.525 671.312 134.421 672.976C135.317 674.608 135.765 676.72 135.765 679.312V694H129.765V680.08C129.765 677.808 129.269 676.112 128.277 674.992C127.285 673.872 125.861 673.312 124.005 673.312C122.693 673.312 121.525 673.6 120.501 674.176C119.509 674.752 118.725 675.6 118.149 676.72C117.605 677.84 117.333 679.264 117.333 680.992V694H111.333V680.08C111.333 677.808 110.837 676.112 109.845 674.992C108.853 673.872 107.429 673.312 105.573 673.312C104.261 673.312 103.093 673.6 102.069 674.176C101.077 674.752 100.293 675.6 99.717 676.72C99.173 677.84 98.901 679.264 98.901 680.992V694H92.901V668.368H98.613V675.184L97.605 673.168C98.469 671.504 99.717 670.24 101.349 669.376C103.013 668.512 104.901 668.08 107.013 668.08C109.413 668.08 111.493 668.672 113.253 669.856C115.045 671.04 116.229 672.832 116.805 675.232L114.453 674.416C115.285 672.496 116.661 670.96 118.581 669.808C120.501 668.656 122.725 668.08 125.253 668.08ZM156.367 694.336C153.519 694.336 151.023 693.776 148.879 692.656C146.767 691.504 145.119 689.936 143.935 687.952C142.783 685.968 142.207 683.712 142.207 681.184C142.207 678.624 142.767 676.368 143.887 674.416C145.039 672.432 146.607 670.88 148.591 669.76C150.607 668.64 152.895 668.08 155.455 668.08C157.951 668.08 160.175 668.624 162.127 669.712C164.079 670.8 165.615 672.336 166.735 674.32C167.855 676.304 168.415 678.64 168.415 681.328C168.415 681.584 168.399 681.872 168.367 682.192C168.367 682.512 168.351 682.816 168.319 683.104H146.959V679.12H165.151L162.799 680.368C162.831 678.896 162.527 677.6 161.887 676.48C161.247 675.36 160.367 674.48 159.247 673.84C158.159 673.2 156.895 672.88 155.455 672.88C153.983 672.88 152.687 673.2 151.567 673.84C150.479 674.48 149.615 675.376 148.975 676.528C148.367 677.648 148.063 678.976 148.063 680.512V681.472C148.063 683.008 148.415 684.368 149.119 685.552C149.823 686.736 150.815 687.648 152.095 688.288C153.375 688.928 154.847 689.248 156.511 689.248C157.951 689.248 159.247 689.024 160.399 688.576C161.551 688.128 162.575 687.424 163.471 686.464L166.687 690.16C165.535 691.504 164.079 692.544 162.319 693.28C160.591 693.984 158.607 694.336 156.367 694.336ZM189.562 668.08C191.61 668.08 193.434 668.48 195.034 669.28C196.666 670.08 197.946 671.312 198.874 672.976C199.802 674.608 200.266 676.72 200.266 679.312V694H194.266V680.08C194.266 677.808 193.722 676.112 192.634 674.992C191.578 673.872 190.09 673.312 188.17 673.312C186.762 673.312 185.514 673.6 184.426 674.176C183.338 674.752 182.49 675.616 181.882 676.768C181.306 677.888 181.018 679.312 181.018 681.04V694H175.018V668.368H180.73V675.28L179.722 673.168C180.618 671.536 181.914 670.288 183.61 669.424C185.338 668.528 187.322 668.08 189.562 668.08ZM218.366 694.336C215.55 694.336 213.374 693.616 211.838 692.176C210.302 690.704 209.534 688.544 209.534 685.696V662.704H215.534V685.552C215.534 686.768 215.838 687.712 216.446 688.384C217.086 689.056 217.966 689.392 219.086 689.392C220.43 689.392 221.55 689.04 222.446 688.336L224.126 692.608C223.422 693.184 222.558 693.616 221.534 693.904C220.51 694.192 219.454 694.336 218.366 694.336ZM205.31 673.36V668.56H222.398V673.36H205.31ZM245.694 694V688.816L245.358 687.712V678.64C245.358 676.88 244.83 675.52 243.774 674.56C242.718 673.568 241.118 673.072 238.974 673.072C237.534 673.072 236.11 673.296 234.702 673.744C233.326 674.192 232.158 674.816 231.198 675.616L228.846 671.248C230.222 670.192 231.854 669.408 233.742 668.896C235.662 668.352 237.646 668.08 239.694 668.08C243.406 668.08 246.27 668.976 248.286 670.768C250.334 672.528 251.358 675.264 251.358 678.976V694H245.694ZM237.63 694.336C235.71 694.336 234.03 694.016 232.59 693.376C231.15 692.704 230.03 691.792 229.23 690.64C228.462 689.456 228.078 688.128 228.078 686.656C228.078 685.216 228.414 683.92 229.086 682.768C229.79 681.616 230.926 680.704 232.494 680.032C234.062 679.36 236.142 679.024 238.734 679.024H246.174V683.008H239.166C237.118 683.008 235.742 683.344 235.038 684.016C234.334 684.656 233.982 685.456 233.982 686.416C233.982 687.504 234.414 688.368 235.278 689.008C236.142 689.648 237.342 689.968 238.878 689.968C240.35 689.968 241.662 689.632 242.814 688.96C243.998 688.288 244.846 687.296 245.358 685.984L246.366 689.584C245.79 691.088 244.75 692.256 243.246 693.088C241.774 693.92 239.902 694.336 237.63 694.336ZM259.898 694V658.384H265.898V694H259.898ZM289.157 668.08C291.205 668.08 293.029 668.48 294.629 669.28C296.261 670.08 297.541 671.312 298.469 672.976C299.397 674.608 299.861 676.72 299.861 679.312V694H293.861V680.08C293.861 677.808 293.317 676.112 292.229 674.992C291.173 673.872 289.685 673.312 287.765 673.312C286.357 673.312 285.109 673.6 284.021 674.176C282.933 674.752 282.085 675.616 281.477 676.768C280.901 677.888 280.613 679.312 280.613 681.04V694H274.613V658.384H280.613V675.28L279.317 673.168C280.213 671.536 281.509 670.288 283.205 669.424C284.933 668.528 286.917 668.08 289.157 668.08ZM320.407 694.336C317.559 694.336 315.063 693.776 312.919 692.656C310.807 691.504 309.159 689.936 307.975 687.952C306.823 685.968 306.247 683.712 306.247 681.184C306.247 678.624 306.807 676.368 307.927 674.416C309.079 672.432 310.647 670.88 312.631 669.76C314.647 668.64 316.935 668.08 319.495 668.08C321.991 668.08 324.215 668.624 326.167 669.712C328.119 670.8 329.655 672.336 330.775 674.32C331.895 676.304 332.455 678.64 332.455 681.328C332.455 681.584 332.439 681.872 332.407 682.192C332.407 682.512 332.391 682.816 332.359 683.104H310.999V679.12H329.191L326.839 680.368C326.871 678.896 326.567 677.6 325.927 676.48C325.287 675.36 324.407 674.48 323.287 673.84C322.199 673.2 320.935 672.88 319.495 672.88C318.023 672.88 316.727 673.2 315.607 673.84C314.519 674.48 313.655 675.376 313.015 676.528C312.407 677.648 312.103 678.976 312.103 680.512V681.472C312.103 683.008 312.455 684.368 313.159 685.552C313.863 686.736 314.855 687.648 316.135 688.288C317.415 688.928 318.887 689.248 320.551 689.248C321.991 689.248 323.287 689.024 324.439 688.576C325.591 688.128 326.615 687.424 327.511 686.464L330.727 690.16C329.575 691.504 328.119 692.544 326.359 693.28C324.631 693.984 322.647 694.336 320.407 694.336ZM354.147 694V688.816L353.811 687.712V678.64C353.811 676.88 353.283 675.52 352.227 674.56C351.171 673.568 349.571 673.072 347.427 673.072C345.987 673.072 344.563 673.296 343.155 673.744C341.779 674.192 340.611 674.816 339.651 675.616L337.299 671.248C338.675 670.192 340.307 669.408 342.195 668.896C344.115 668.352 346.099 668.08 348.147 668.08C351.859 668.08 354.723 668.976 356.739 670.768C358.787 672.528 359.811 675.264 359.811 678.976V694H354.147ZM346.083 694.336C344.163 694.336 342.483 694.016 341.043 693.376C339.603 692.704 338.483 691.792 337.683 690.64C336.915 689.456 336.531 688.128 336.531 686.656C336.531 685.216 336.867 683.92 337.539 682.768C338.243 681.616 339.379 680.704 340.947 680.032C342.515 679.36 344.595 679.024 347.187 679.024H354.627V683.008H347.619C345.571 683.008 344.195 683.344 343.491 684.016C342.787 684.656 342.435 685.456 342.435 686.416C342.435 687.504 342.867 688.368 343.731 689.008C344.595 689.648 345.795 689.968 347.331 689.968C348.803 689.968 350.115 689.632 351.267 688.96C352.451 688.288 353.299 687.296 353.811 685.984L354.819 689.584C354.243 691.088 353.203 692.256 351.699 693.088C350.227 693.92 348.355 694.336 346.083 694.336ZM368.352 694V658.384H374.352V694H368.352ZM393.98 694.336C391.164 694.336 388.988 693.616 387.452 692.176C385.916 690.704 385.148 688.544 385.148 685.696V662.704H391.148V685.552C391.148 686.768 391.452 687.712 392.06 688.384C392.7 689.056 393.58 689.392 394.7 689.392C396.044 689.392 397.164 689.04 398.06 688.336L399.74 692.608C399.036 693.184 398.172 693.616 397.148 693.904C396.124 694.192 395.068 694.336 393.98 694.336ZM380.924 673.36V668.56H398.012V673.36H380.924ZM420.06 668.08C422.108 668.08 423.932 668.48 425.532 669.28C427.164 670.08 428.444 671.312 429.372 672.976C430.3 674.608 430.764 676.72 430.764 679.312V694H424.764V680.08C424.764 677.808 424.22 676.112 423.132 674.992C422.076 673.872 420.588 673.312 418.668 673.312C417.26 673.312 416.012 673.6 414.924 674.176C413.836 674.752 412.988 675.616 412.38 676.768C411.804 677.888 411.516 679.312 411.516 681.04V694H405.516V658.384H411.516V675.28L410.22 673.168C411.116 671.536 412.412 670.288 414.108 669.424C415.836 668.528 417.82 668.08 420.06 668.08ZM69.456 756.336C66.832 756.336 64.496 755.776 62.448 754.656C60.4 753.504 58.784 751.936 57.6 749.952C56.416 747.968 55.824 745.712 55.824 743.184C55.824 740.624 56.416 738.368 57.6 736.416C58.784 734.432 60.4 732.88 62.448 731.76C64.496 730.64 66.832 730.08 69.456 730.08C72.112 730.08 74.464 730.64 76.512 731.76C78.592 732.88 80.208 734.416 81.36 736.368C82.544 738.32 83.136 740.592 83.136 743.184C83.136 745.712 82.544 747.968 81.36 749.952C80.208 751.936 78.592 753.504 76.512 754.656C74.464 755.776 72.112 756.336 69.456 756.336ZM69.456 751.2C70.928 751.2 72.24 750.88 73.392 750.24C74.544 749.6 75.44 748.672 76.08 747.456C76.752 746.24 77.088 744.816 77.088 743.184C77.088 741.52 76.752 740.096 76.08 738.912C75.44 737.696 74.544 736.768 73.392 736.128C72.24 735.488 70.944 735.168 69.504 735.168C68.032 735.168 66.72 735.488 65.568 736.128C64.448 736.768 63.552 737.696 62.88 738.912C62.208 740.096 61.872 741.52 61.872 743.184C61.872 744.816 62.208 746.24 62.88 747.456C63.552 748.672 64.448 749.6 65.568 750.24C66.72 750.88 68.016 751.2 69.456 751.2ZM104.258 730.08C106.306 730.08 108.13 730.48 109.73 731.28C111.362 732.08 112.642 733.312 113.57 734.976C114.498 736.608 114.962 738.72 114.962 741.312V756H108.962V742.08C108.962 739.808 108.418 738.112 107.33 736.992C106.274 735.872 104.786 735.312 102.866 735.312C101.458 735.312 100.21 735.6 99.1215 736.176C98.0335 736.752 97.1855 737.616 96.5775 738.768C96.0015 739.888 95.7135 741.312 95.7135 743.04V756H89.7135V730.368H95.4255V737.28L94.4175 735.168C95.3135 733.536 96.6095 732.288 98.3055 731.424C100.034 730.528 102.018 730.08 104.258 730.08ZM144.91 756V727.68H133.774V722.4H162.286V727.68H151.15V756H144.91ZM167.234 756V730.368H173.234V756H167.234ZM170.258 726.144C169.138 726.144 168.21 725.792 167.474 725.088C166.77 724.384 166.418 723.536 166.418 722.544C166.418 721.52 166.77 720.672 167.474 720C168.21 719.296 169.138 718.944 170.258 718.944C171.378 718.944 172.29 719.28 172.994 719.952C173.73 720.592 174.098 721.408 174.098 722.4C174.098 723.456 173.746 724.352 173.042 725.088C172.338 725.792 171.41 726.144 170.258 726.144ZM186.844 750.288L186.988 742.752L200.38 730.368H207.58L196.204 741.792L193.036 744.432L186.844 750.288ZM181.948 756V720.384H187.948V756H181.948ZM201.292 756L191.932 744.432L195.724 739.632L208.588 756H201.292ZM219.899 756V727.68H208.763V722.4H237.275V727.68H226.139V756H219.899ZM251.117 756.336C248.493 756.336 246.157 755.776 244.109 754.656C242.061 753.504 240.445 751.936 239.261 749.952C238.077 747.968 237.485 745.712 237.485 743.184C237.485 740.624 238.077 738.368 239.261 736.416C240.445 734.432 242.061 732.88 244.109 731.76C246.157 730.64 248.493 730.08 251.117 730.08C253.773 730.08 256.125 730.64 258.173 731.76C260.253 732.88 261.869 734.416 263.021 736.368C264.205 738.32 264.797 740.592 264.797 743.184C264.797 745.712 264.205 747.968 263.021 749.952C261.869 751.936 260.253 753.504 258.173 754.656C256.125 755.776 253.773 756.336 251.117 756.336ZM251.117 751.2C252.589 751.2 253.901 750.88 255.053 750.24C256.205 749.6 257.101 748.672 257.741 747.456C258.413 746.24 258.749 744.816 258.749 743.184C258.749 741.52 258.413 740.096 257.741 738.912C257.101 737.696 256.205 736.768 255.053 736.128C253.901 735.488 252.605 735.168 251.165 735.168C249.693 735.168 248.381 735.488 247.229 736.128C246.109 736.768 245.213 737.696 244.541 738.912C243.869 740.096 243.533 741.52 243.533 743.184C243.533 744.816 243.869 746.24 244.541 747.456C245.213 748.672 246.109 749.6 247.229 750.24C248.381 750.88 249.677 751.2 251.117 751.2ZM276.271 750.288L276.415 742.752L289.807 730.368H297.007L285.631 741.792L282.463 744.432L276.271 750.288ZM271.375 756V720.384H277.375V756H271.375ZM290.719 756L281.359 744.432L285.151 739.632L298.015 756H290.719ZM305.119 756.336C304.031 756.336 303.103 755.968 302.335 755.232C301.567 754.464 301.183 753.504 301.183 752.352C301.183 751.136 301.567 750.176 302.335 749.472C303.103 748.736 304.031 748.368 305.119 748.368C306.207 748.368 307.135 748.736 307.903 749.472C308.671 750.176 309.055 751.136 309.055 752.352C309.055 753.504 308.671 754.464 307.903 755.232C307.135 755.968 306.207 756.336 305.119 756.336Z" fill="white"/>
<rect x="8.5" y="8.5" width="547" height="1080" rx="21.5" stroke="white" stroke-width="17"/>
<rect x="170" y="4" width="224" height="51" rx="9" fill="white"/>
<path fill-rule="evenodd" clip-rule="evenodd" d="M551 956H15V1088H551V956ZM282.5 1071C306.524 1071 326 1051.97 326 1028.5C326 1005.03 306.524 986 282.5 986C258.476 986 239 1005.03 239 1028.5C239 1051.97 258.476 1071 282.5 1071Z" fill="white"/>
</svg>
