<svg width="80" height="73" viewBox="0 0 80 73" fill="none" xmlns="http://www.w3.org/2000/svg">
<path d="M4.25955 21.1419C13.2788 11.1515 20.3322 6.52014 27.2752 3.31573C36.1555 -0.776083 45.2394 -0.632783 55.2778 3.71873C65.3162 8.07025 75.5431 15.8815 77.91 23.0767C80.2769 30.272 79.172 37.5488 77.9142 41.4743C76.6564 45.3998 73.9675 57.0996 57.8264 62.6094C41.6853 68.1192 38.3391 68.3095 31.7696 67.9394C23.6479 67.4696 19.9953 66.0599 17.1243 66.0538C15.2444 66.0519 13.3957 66.54 11.7675 67.4858L3.42495 72.3312C2.52808 72.8563 1.49563 71.8753 1.98253 70.9548L4.95575 65.2244C7.07298 61.1463 6.70033 56.3365 4.39963 52.351C1.8961 47.992 -3.84298 30.1203 4.25955 21.1419Z" fill="#FC8D3D"/>
</svg>
