<svg width="261" height="261" viewBox="0 0 261 261" fill="none" xmlns="http://www.w3.org/2000/svg">
<g clip-path="url(#clip0_21_300)">
<path d="M180.301 158.707C170.462 176.043 151.853 187.741 130.505 187.741C98.8935 187.741 73.2685 162.116 73.2685 130.505C73.2685 98.8935 98.8935 73.2685 130.505 73.2685V0C58.4259 0 0 58.4259 0 130.505C0 202.584 58.4259 261.009 130.505 261.009C179.187 261.009 221.637 234.346 244.071 194.832L180.301 158.717V158.707Z" fill="#D9D9D9"/>
<path d="M187.741 130.505C187.741 140.768 185.031 150.38 180.301 158.707L244.071 194.822C254.844 175.835 261.009 153.892 261.009 130.495C261 58.4259 202.574 0 130.505 0V73.259C162.116 73.259 187.741 98.8841 187.741 130.495V130.505Z" fill="#FB4B45"/>
</g>
<path d="M183.94 55.8774C184.509 58.3021 182.972 62.0209 180.399 62.8619C177.825 63.7029 174.96 61.5705 173.324 59.3464" stroke="black" stroke-width="5" stroke-linecap="round" stroke-linejoin="round"/>
<path d="M208.727 48.6694C209.296 51.0941 207.759 54.8129 205.186 55.6539C202.612 56.4949 199.747 54.3625 198.112 52.1384" stroke="black" stroke-width="5" stroke-linecap="round" stroke-linejoin="round"/>
<path d="M193.437 77.2206C193.29 74.7344 195.439 71.3325 198.118 70.9432C200.798 70.5539 203.257 73.1442 204.489 75.6148" stroke="black" stroke-width="5" stroke-linecap="round" stroke-linejoin="round"/>
<defs>
<clipPath id="clip0_21_300">
<rect width="261" height="261" fill="white"/>
</clipPath>
</defs>
</svg>
