<svg width="457" height="153" viewBox="0 0 457 153" fill="none" xmlns="http://www.w3.org/2000/svg">
<g clip-path="url(#clip0_21_301)">
<path d="M71.4942 65.7443L77.0651 75.9309L87.2517 81.5018C104.244 90.7932 104.244 115.199 87.2517 124.494L77.0651 130.065L71.4942 140.252C62.2028 157.244 37.7972 157.244 28.5018 140.252L22.9309 130.065L12.7443 124.494C-4.24809 115.203 -4.24809 90.7972 12.7443 81.5018L22.9309 75.9309L28.5018 65.7443C37.7932 48.7519 62.1988 48.7519 71.4942 65.7443Z" fill="#FFABE1"/>
</g>
<g clip-path="url(#clip1_21_301)">
<path d="M242.494 65.7443L248.065 75.9309L258.252 81.5018C275.244 90.7932 275.244 115.199 258.252 124.494L248.065 130.065L242.494 140.252C233.203 157.244 208.797 157.244 199.502 140.252L193.931 130.065L183.744 124.494C166.752 115.203 166.752 90.7972 183.744 81.5018L193.931 75.9309L199.502 65.7443C208.793 48.7519 233.199 48.7519 242.494 65.7443Z" fill="#D9D9D9"/>
</g>
<g clip-path="url(#clip2_21_301)">
<path d="M428.779 65.7443L434.294 75.9309L444.379 81.5018C461.202 90.7932 461.202 115.199 444.379 124.494L434.294 130.065L428.779 140.252C419.581 157.244 395.419 157.244 386.217 140.252L380.702 130.065L370.617 124.494C353.794 115.203 353.794 90.7972 370.617 81.5018L380.702 75.9309L386.217 65.7443C395.415 48.7519 419.577 48.7519 428.779 65.7443Z" fill="#D9D9D9"/>
</g>
<g clip-path="url(#clip3_21_301)">
<path d="M156.779 12.7443L162.294 22.9309L172.379 28.5018C189.202 37.7932 189.202 62.1988 172.379 71.4942L162.294 77.0651L156.779 87.2517C147.581 104.244 123.419 104.244 114.217 87.2517L108.702 77.0651L98.6168 71.4942C81.7944 62.2028 81.7944 37.7972 98.6168 28.5018L108.702 22.9309L114.217 12.7443C123.415 -4.24809 147.577 -4.24809 156.779 12.7443Z" fill="#D9D9D9"/>
</g>
<g clip-path="url(#clip4_21_301)">
<path d="M342.494 12.7443L348.065 22.9309L358.252 28.5018C375.244 37.7932 375.244 62.1988 358.252 71.4942L348.065 77.0651L342.494 87.2517C333.203 104.244 308.797 104.244 299.502 87.2517L293.931 77.0651L283.744 71.4942C266.752 62.2028 266.752 37.7972 283.744 28.5018L293.931 22.9309L299.502 12.7443C308.793 -4.24809 333.199 -4.24809 342.494 12.7443Z" fill="#D9D9D9"/>
</g>
<path d="M43.4564 113.491C43.4564 111 45.8024 107.731 48.4999 107.5C51.1975 107.269 53.4999 110 54.5838 112.539" stroke="black" stroke-width="5" stroke-linecap="round" stroke-linejoin="round"/>
<ellipse cx="38" cy="94.5" rx="4" ry="5.5" fill="black"/>
<ellipse cx="59" cy="94.5" rx="4" ry="5.5" fill="black"/>
<defs>
<clipPath id="clip0_21_301">
<rect width="100" height="100" fill="white" transform="translate(0 53)"/>
</clipPath>
<clipPath id="clip1_21_301">
<rect width="100" height="100" fill="white" transform="translate(171 53)"/>
</clipPath>
<clipPath id="clip2_21_301">
<rect width="99" height="100" fill="white" transform="translate(358 53)"/>
</clipPath>
<clipPath id="clip3_21_301">
<rect width="99" height="100" fill="white" transform="translate(86)"/>
</clipPath>
<clipPath id="clip4_21_301">
<rect width="100" height="100" fill="white" transform="translate(271)"/>
</clipPath>
</defs>
</svg>
