<svg width="91" height="89" viewBox="0 0 91 89" fill="none" xmlns="http://www.w3.org/2000/svg">
<path d="M17.4761 34.2235L5.17812 35.1081C3.36913 35.2352 1.78635 36.3663 1.08275 38.0348L0.538562 39.3216C-0.606597 42.0037 0.876504 45.0884 3.68335 45.8692L19.4215 50.2472C19.4215 50.2472 0.164715 52.3654 6.99084 60.4075C13.817 68.4497 28.8113 67.2765 35.0114 70.8744C41.2115 74.4723 53.6314 90.2049 60.855 88.2106C68.0787 86.2162 66.4351 73.8897 63.9124 68.5804L61.3898 63.2712L75.489 68.4717C77.4022 69.1814 79.5123 68.0994 80.0601 66.1301L82.0154 59.1014C82.5128 57.3133 81.5238 55.4491 79.7651 54.8534L73.634 52.7927C73.634 52.7927 95.653 47.4392 90.0951 33.8817C84.5371 20.3242 69.0561 28.0291 69.0561 28.0291C69.0561 28.0291 81.1454 9.49994 67.2613 1.90022C53.3771 -5.6995 42.8692 16.7407 42.8692 16.7407C42.8692 16.7407 39.3149 2.6753 27.4827 6.8588C15.6505 11.0423 13.9297 22.0423 17.4632 34.2377L17.4761 34.2235Z" fill="#AD45FF"/>
</svg>
