<svg width="1441" height="1111" viewBox="0 0 1441 1111" fill="none" xmlns="http://www.w3.org/2000/svg">
	<path fill-rule="evenodd" clip-rule="evenodd" d="M1441 0H0L0.000244141 748.193V798.944V821.943V959.166V977.075H2.28746C11.9513 1014.29 51.1025 1042.13 97.9371 1042.13C126.606 1042.13 152.413 1031.69 170.317 1015.05C184.06 1046.81 220.05 1069.46 262.297 1069.46C316.39 1069.46 360.234 1032.32 360.234 986.497V977.075H360.25V1000.7C360.25 1046.53 404.216 1083.67 458.459 1083.67C487.208 1083.67 513.086 1073.22 531.04 1056.59C544.822 1088.35 580.912 1111 623.275 1111C672.78 1111 713.725 1080.06 720.5 1039.83C727.276 1080.06 768.22 1111 817.725 1111C860.089 1111 896.179 1088.35 909.961 1056.59C927.914 1073.22 953.793 1083.67 982.541 1083.67C1036.78 1083.67 1080.75 1046.53 1080.75 1000.7V977.075H1080.77V986.497C1080.77 1032.32 1124.61 1069.46 1178.7 1069.46C1220.95 1069.46 1256.94 1046.81 1270.68 1015.05C1288.59 1031.69 1314.39 1042.13 1343.06 1042.13C1389.9 1042.13 1429.05 1014.29 1438.71 977.075H1441V959.166V821.943V798.944V748.193L1441 0Z" fill="#FFE2E2" />
</svg>
