<svg width="299" height="299" viewBox="0 0 299 299" fill="none" xmlns="http://www.w3.org/2000/svg">
<g clip-path="url(#clip0_1_448)">
<path d="M330 178.999H199V272.999H330V178.999Z" fill="#FFE2E2" stroke="#FC8D3D" stroke-width="2" stroke-miterlimit="10"/>
<path d="M309 217.999H218V224.999H309V217.999Z" stroke="#FC8D3D" stroke-width="2" stroke-miterlimit="10"/>
<path d="M309 240.999H218V247.999H309V240.999Z" stroke="#FC8D3D" stroke-width="2" stroke-miterlimit="10"/>
<path d="M309 228.999H218V235.999H309V228.999Z" stroke="#FC8D3D" stroke-width="2" stroke-miterlimit="10"/>
<path d="M309 204.999H218V213.999H309V204.999Z" stroke="#FC8D3D" stroke-width="2" stroke-miterlimit="10"/>
<path d="M309 252.999H218V259.999H309V252.999Z" stroke="#FC8D3D" stroke-width="2" stroke-miterlimit="10"/>
<path d="M277 191.999H218V198.999H277V191.999Z" stroke="#FC8D3D" stroke-width="2" stroke-miterlimit="10"/>
<path d="M58.126 42.429C58.126 42.429 93.2109 42.9773 113.505 36.9366C133.799 30.8959 149.694 19.3721 149.694 19.3721C149.694 19.3721 172.178 31.4535 192.462 36.9459C212.747 42.4383 242.904 42.4476 242.904 42.4476V151.71C242.904 151.71 245.549 185.408 237.142 204.357C228.735 223.307 208.311 239.849 205.305 241.959C202.298 244.068 150.715 277.45 150.715 277.45C150.715 277.45 106.193 248.575 99.2889 242.86C92.3851 237.145 68.0548 222.006 63.2481 199.497C58.4415 176.988 59.3416 158.634 59.3416 153.522C59.3416 148.411 58.1353 42.429 58.1353 42.429H58.126Z" fill="#FFE2E2" stroke="#FC8D3D" stroke-width="2" stroke-miterlimit="10"/>
<path d="M81.705 70.004C81.705 70.004 107.863 70.4315 122.979 65.7755C138.095 61.1195 149.954 52.235 149.954 52.235C149.954 52.235 166.712 61.547 181.828 65.7755C196.944 70.004 219.428 70.0133 219.428 70.0133V154.193C219.428 154.193 221.405 180.159 215.132 194.759C208.859 209.359 193.641 222.109 191.405 223.726C189.168 225.343 150.715 251.077 150.715 251.077C150.715 251.077 117.532 228.828 112.382 224.423C107.232 220.018 89.1006 208.355 85.5188 191.013C81.937 173.672 82.6051 159.527 82.6051 155.587C82.6051 151.647 81.705 69.9947 81.705 69.9947V70.004Z" fill="#FFE2E2" stroke="#FC8D3D" stroke-width="2" stroke-miterlimit="10"/>
<path d="M190.226 120.122H112.401V198.066H190.226V120.122Z" fill="#FFE2E2" stroke="#FC8D3D" stroke-width="2" stroke-miterlimit="10"/>
<path d="M122.636 120.12C122.636 120.12 120.139 83.6903 150.705 83.6903C181.271 83.6903 178.673 120.12 178.673 120.12H170.136C170.136 120.12 173.208 92.612 150.705 92.612C128.203 92.612 130.801 120.12 130.801 120.12H122.636Z" fill="#FFE2E2" stroke="#FC8D3D" stroke-width="2" stroke-miterlimit="10"/>
<path d="M122 184.999H-5.99988V305.999H122V184.999Z" fill="#FFE2E2" stroke="#FC8D3D" stroke-width="2" stroke-miterlimit="10"/>
<path d="M45.0001 197.999H-4.99988V212.999H45.0001V197.999Z" stroke="#FC8D3D" stroke-width="2" stroke-miterlimit="10"/>
<path d="M102 236.999H-4.99988V244.999H102V236.999Z" stroke="#FC8D3D" stroke-width="2" stroke-miterlimit="10"/>
<path d="M102 268.999H-4.99988V276.999H102V268.999Z" stroke="#FC8D3D" stroke-width="2" stroke-miterlimit="10"/>
<path d="M102 283.999H-4.99988V292.999H102V283.999Z" stroke="#FC8D3D" stroke-width="2" stroke-miterlimit="10"/>
<path d="M102 220.999H-4.99988V229.999H102V220.999Z" stroke="#FC8D3D" stroke-width="2" stroke-miterlimit="10"/>
<path d="M102 251.999H-4.99988V260.999H102V251.999Z" stroke="#FC8D3D" stroke-width="2" stroke-miterlimit="10"/>
<path d="M159.317 176.551L154.296 154.832C156.524 153.661 158.045 151.328 158.045 148.633C158.045 144.767 154.918 141.635 151.058 141.635C147.198 141.635 144.071 144.767 144.071 148.633C144.071 151.077 145.323 153.224 147.216 154.479L142.113 176.551H159.326H159.317Z" fill="#FFE2E2" stroke="#FC8D3D" stroke-width="2" stroke-miterlimit="10"/>
<path d="M259 11.999H180V90.999H259V11.999Z" fill="#FFE2E2" stroke="#FC8D3D" stroke-width="2" stroke-miterlimit="10"/>
<path d="M246 44.999H191V50.999H246V44.999Z" stroke="#FC8D3D" stroke-width="2" stroke-miterlimit="10"/>
<path d="M246 63.999H191V69.999H246V63.999Z" stroke="#FC8D3D" stroke-width="2" stroke-miterlimit="10"/>
<path d="M246 53.999H191V59.999H246V53.999Z" stroke="#FC8D3D" stroke-width="2" stroke-miterlimit="10"/>
<path d="M246 33.999H191V40.999H246V33.999Z" stroke="#FC8D3D" stroke-width="2" stroke-miterlimit="10"/>
<path d="M246 73.999H191V79.999H246V73.999Z" stroke="#FC8D3D" stroke-width="2" stroke-miterlimit="10"/>
<path d="M227 22.999H191V28.999H227V22.999Z" stroke="#FC8D3D" stroke-width="2" stroke-miterlimit="10"/>
</g>
<defs>
<clipPath id="clip0_1_448">
<rect width="299" height="299" rx="56" fill="white"/>
</clipPath>
</defs>
</svg>
