<svg width="1344" height="449" viewBox="0 0 1344 449" fill="none" xmlns="http://www.w3.org/2000/svg">
<g filter="url(#filter0_d_72_115)">
<path d="M1313 155.667C1313 84.0567 1254.88 26 1183.19 26C1150.97 26 1121.5 37.7309 1098.79 57.1496C1083.54 50.857 1066.84 47.3833 1049.31 47.3833C1013.68 47.3833 981.4 61.7338 957.941 84.9536C934.483 61.7338 902.216 47.3833 866.572 47.3833C821.85 47.3833 782.4 69.9768 759.056 104.372C735.711 69.9768 696.276 47.3833 651.539 47.3833C614.641 47.3833 581.348 62.7588 557.719 87.445C534.089 62.7588 500.782 47.3833 463.898 47.3833C436.278 47.3833 410.681 56.0107 389.631 70.7028C368.581 56.0107 342.984 47.3833 315.364 47.3833C291.948 47.3833 269.972 53.5762 251.002 64.4245C227.501 40.7064 194.878 26 158.807 26C87.1194 26 29 84.0567 29 155.667C29 205.025 56.606 247.934 97.2383 269.844C99.9889 339.034 156.997 394.286 226.931 394.286C272.737 394.286 312.998 370.582 336.101 334.791C355.569 381.872 401.959 415 456.116 415C497.761 415 534.816 395.41 558.574 364.944C582.332 395.396 619.387 415 661.031 415C709.231 415 751.288 388.762 773.678 349.797C796.068 388.762 838.125 415 886.34 415C944.773 415 994.184 376.433 1010.46 323.388C1031.91 365.471 1075.69 394.286 1126.2 394.286C1197.89 394.286 1256.01 336.229 1256.01 264.619C1256.01 264.092 1256.01 263.566 1255.99 263.039C1290.4 239.719 1313 200.327 1313 155.667Z" fill="white"/>
</g>
<defs>
<filter id="filter0_d_72_115" x="0" y="0" width="1344" height="449" filterUnits="userSpaceOnUse" color-interpolation-filters="sRGB">
<feFlood flood-opacity="0" result="BackgroundImageFix"/>
<feColorMatrix in="SourceAlpha" type="matrix" values="0 0 0 0 0 0 0 0 0 0 0 0 0 0 0 0 0 0 127 0" result="hardAlpha"/>
<feOffset dx="1" dy="4"/>
<feGaussianBlur stdDeviation="15"/>
<feComposite in2="hardAlpha" operator="out"/>
<feColorMatrix type="matrix" values="0 0 0 0 1 0 0 0 0 0.793231 0 0 0 0 0.786182 0 0 0 1 0"/>
<feBlend mode="normal" in2="BackgroundImageFix" result="effect1_dropShadow_72_115"/>
<feBlend mode="normal" in="SourceGraphic" in2="effect1_dropShadow_72_115" result="shape"/>
</filter>
</defs>
</svg>

