<svg width="299" height="299" viewBox="0 0 299 299" fill="none" xmlns="http://www.w3.org/2000/svg">
<g clip-path="url(#clip0_1_476)">
<path d="M-8.86658 305.13H99.9613C99.9613 305.13 95.6115 171.892 90.6296 163.194C85.6561 154.497 65.0798 146.887 65.0798 146.887L51.8142 143.332L42.3495 144.055C42.3495 144.055 16.1 153.968 9.90382 157.989C3.70766 162.009 -8.86658 305.13 -8.86658 305.13Z" fill="#FFE2E2" stroke="#FC8D3D" stroke-width="2" stroke-miterlimit="10"/>
<path d="M66.4937 80.9278C66.4937 80.9278 73.0226 81.8915 75.6757 88.3877C78.3288 94.8757 61.7614 118.942 61.7614 118.942L49.2193 127.507C49.2193 127.507 40.4615 127.507 34.307 121.127C28.1524 114.747 26.7302 103.158 26.7302 103.158C26.7302 103.158 15.7018 100.99 14.1881 92.5164C11.6598 78.4273 19.3946 70.2945 27.2042 68.4005C35.0139 66.5064 42.3495 69.6632 42.3495 69.6632C42.3495 69.6632 46.8906 65.1856 53.2364 64.6207C66.4937 63.441 66.4937 80.9361 66.4937 80.9361V80.9278Z" fill="#FFE2E2" stroke="#FC8D3D" stroke-width="2" stroke-miterlimit="10"/>
<path d="M220.533 93.9702C220.533 93.9702 216.499 91.6441 214.436 90.099C212.374 88.5538 214.436 84.0845 214.436 84.0845C214.436 84.0845 224.758 86.4936 225.099 84.9402C225.44 83.3867 220.458 79.2746 220.458 79.2746C220.458 79.2746 240.41 72.5707 248.495 80.8198C256.579 89.0689 256.92 92.6825 258.991 93.9702C261.062 95.2578 266.9 99.5526 266.559 108.824C266.218 118.103 262.426 132.491 250.732 132.856C239.038 133.222 220.533 93.9702 220.533 93.9702Z" fill="#FFE2E2" stroke="#FC8D3D" stroke-width="2" stroke-miterlimit="10"/>
<path d="M220.533 93.9707C220.533 93.9707 213.023 98.872 213.946 105.144C214.869 111.424 215.168 116.01 213.871 117.854C212.574 119.698 206.594 122.29 208.432 124.433C210.27 126.577 212.266 125.505 212.416 126.726C212.565 127.947 210.27 130.705 210.885 131.777C211.501 132.849 212.881 131.927 212.723 134.228C212.565 136.529 211.8 136.828 213.031 137.293C214.262 137.758 214.52 139.129 214.312 140.657C214.104 142.186 214.254 145.094 218.088 144.944C221.922 144.794 232.343 141.422 232.343 141.422V146.929L250.732 137.742V132.84C250.732 132.84 246.59 132.226 247.663 129.476C248.736 126.726 254.1 122.124 250.116 117.073C246.133 112.022 239.238 116.766 239.238 116.766C239.238 116.766 238.473 103.757 233.724 102.22C228.975 100.691 220.541 93.9541 220.541 93.9541L220.533 93.9707Z" fill="#FFE2E2" stroke="#FC8D3D" stroke-width="2" stroke-miterlimit="10"/>
<path d="M197.245 310.319H307.603C307.603 310.319 291.568 177.833 288.965 174.476C286.353 171.129 282.627 165.538 282.627 165.538C282.627 165.538 291.202 151.391 289.713 140.217C288.224 129.044 278.527 124.201 278.527 124.201L221.855 152.13L221.106 159.582C221.106 159.582 205.445 165.912 205.071 172.433C204.697 178.946 197.245 310.319 197.245 310.319Z" fill="#FFE2E2" stroke="#FC8D3D" stroke-width="2" stroke-miterlimit="10"/>
<path d="M94.5303 312.206H151.386H204.888C204.888 312.206 188.853 191.622 186.25 188.266C183.647 184.91 179.913 179.328 179.913 179.328C179.913 179.328 188.487 165.18 186.999 154.007C185.51 142.834 175.812 137.991 175.812 137.991L119.14 165.92L118.392 173.371C118.392 173.371 102.731 179.701 102.357 186.223C101.982 192.735 94.5303 312.206 94.5303 312.206Z" fill="#FFE2E2" stroke="#FC8D3D" stroke-width="2" stroke-miterlimit="10"/>
<path d="M75.6756 88.3794C75.6756 88.3794 84.3502 95.4738 84.0924 100.99C83.8262 106.506 81.722 107.029 82.7783 113.077C83.8262 119.116 89.881 118.07 87.5107 120.96C85.1403 123.851 85.9304 120.96 85.1403 123.851C84.3502 126.742 86.837 126.078 85.4148 128.678C83.9843 131.278 83.7348 130.697 84.1506 131.868C84.5665 133.039 85.997 135.224 84.4001 135.39C82.8032 135.556 81.5391 135.897 81.4559 137.068C81.3727 138.24 79.7759 141.346 78.3453 141.346C76.9148 141.346 64.3894 137.65 64.3894 137.65L65.0631 146.887C65.0631 146.887 61.0377 149.488 53.7021 149.488C46.3665 149.488 42.3411 144.046 42.3411 144.046L45.8924 127.025L48.4956 124.425C48.4956 124.425 44.7114 115.91 48.4956 112.603C52.2799 109.297 60.3307 113.55 60.3307 113.55C60.3307 113.55 63.1751 107.636 63.408 104.57C63.6409 101.497 67.6663 101.97 67.6663 101.97C67.6663 101.97 66.4853 97.2432 68.1404 94.8757C69.7955 92.5081 75.6673 88.3877 75.6673 88.3877L75.6756 88.3794Z" fill="#FFE2E2" stroke="#FC8D3D" stroke-width="2" stroke-miterlimit="10"/>
<path d="M119.115 112.737L131.682 125.538L148.009 151.548C148.009 151.548 157.59 181.205 166.081 186.223C174.573 191.24 197.37 192.785 197.37 192.785C197.37 192.785 168.926 141.754 166.93 122.456C164.934 103.158 145.713 93.4224 135.857 96.7038C126.002 99.9851 117.818 107.752 117.818 107.752L119.115 112.728V112.737Z" fill="#FFE2E2" stroke="#FC8D3D" stroke-width="2" stroke-miterlimit="10"/>
<path d="M117.818 107.76C117.818 107.76 110.308 112.662 111.231 118.934C112.154 125.206 112.454 129.8 111.156 131.644C109.859 133.488 103.879 136.08 105.717 138.223C107.555 140.366 109.551 139.295 109.701 140.516C109.85 141.737 107.555 144.495 108.17 145.567C108.786 146.638 110.166 145.716 110.008 148.017C109.85 150.318 109.085 150.618 110.316 151.083C111.547 151.548 111.805 152.919 111.597 154.447C111.389 155.976 111.539 158.883 115.373 158.734C119.207 158.584 129.628 155.211 129.628 155.211V160.719L148.017 151.531V146.63C148.017 146.63 143.875 146.015 144.948 143.266C146.021 140.516 151.385 135.914 147.402 130.863C143.418 125.812 136.523 130.555 136.523 130.555C136.523 130.555 135.758 117.546 131.009 116.009C126.26 114.473 117.826 107.744 117.826 107.744L117.818 107.76Z" fill="#FFE2E2" stroke="#FC8D3D" stroke-width="2" stroke-miterlimit="10"/>
</g>
<defs>
<clipPath id="clip0_1_476">
<rect width="299" height="299" rx="56" fill="white"/>
</clipPath>
</defs>
</svg>
